<?xml version="1.0" encoding="utf-8"?>
<!-- Generator: Adobe Illustrator 24.2.1, SVG Export Plug-In . SVG Version: 6.00 Build 0)  -->
<svg version="1.1" id="レイヤー_1" xmlns="http://www.w3.org/2000/svg" xmlns:xlink="http://www.w3.org/1999/xlink" x="0px"
	 y="0px" width="84.6px" height="55.2px" viewBox="0 0 84.6 55.2" style="enable-background:new 0 0 84.6 55.2;"
	 xml:space="preserve">
<style type="text/css">
	.st0{fill:#467026;}
</style>
<g id="NAvCpN_1_">
	<g>
		<path class="st0" d="M15.8,27.8c0-0.1,0-0.2,0-0.2c0.2-0.3,0.5-0.5,0.7-0.9C20.4,20.9,24.2,15,28,9.2c0.5-0.7,1-1.2,1.9-1.4
			C35.5,6.6,41.1,5.3,46.7,4c3.2-0.7,6.5-1.4,9.7-2.2c4.1,7.4,8.2,14.8,12.3,22.3c-2,0.1-1.9,1.3-1.9,2.6c0,5,0,10,0,15
			c0,0.6-0.1,1.1-0.7,1.4c-6.8,3.3-13.5,6.7-20.2,10c-0.4,0.2-0.9,0.2-1.3,0.1c-8.3-3.2-16.5-6.5-24.8-9.7c-0.6-0.2-0.8-0.6-0.8-1.2
			c0-1.5,0-3.1,0-4.6c0-2.9,0-5.7,0-8.4c-0.5-0.1-0.9-0.1-1.2-0.3C17.2,28.6,16.5,28.2,15.8,27.8z M27.8,33c2.2,0.7,4.3,1.3,6.3,1.9
			c0,0.2,0.1,0.2,0.1,0.3c0,2.4,0,4.7,0,7.1c0,1.1-0.3,2.5,0.2,3.3c0.5,0.8,2,1,3,1.4c2.1,0.8,4.2,1.7,6.4,2.5c0-5.2,0-10.3,0-15.5
			c-1,0.7-1.2-0.1-1.5-0.7c-3.7-6.9-7.5-13.8-11.2-20.7c-0.2-0.4-0.5-0.8-0.8-1.3c-2.7,4.1-5.3,8.1-7.9,12.1c-0.2,0.3-0.3,0.7-0.3,1
			c0,5.3,0,10.5,0,15.8c0,0.3,0.2,0.8,0.5,0.9c1.6,0.7,3.3,1.3,5.1,2C27.8,39.8,27.8,36.5,27.8,33z M63.9,26.2c-0.3,0-0.4,0-0.4,0
			c-5.4,2.1-10.8,4.3-16.1,6.4c-0.3,0.1-0.6,0.8-0.6,1.2c0,4.9,0,9.7,0,14.6c0,0.2,0.1,0.5,0.1,0.8c5.6-2.8,11.1-5.5,16.5-8.2
			c0.3-0.2,0.5-0.7,0.6-1.1c0.1-1.6,0-3.1,0-4.7C63.9,32.2,63.9,29.2,63.9,26.2z"/>
	</g>
</g>
</svg>
