<?xml version="1.0" encoding="utf-8"?>
<!-- Generator: Adobe Illustrator 24.2.1, SVG Export Plug-In . SVG Version: 6.00 Build 0)  -->
<svg version="1.1" id="レイヤー_1" xmlns="http://www.w3.org/2000/svg" xmlns:xlink="http://www.w3.org/1999/xlink" x="0px"
	 y="0px" width="84.6px" height="55.2px" viewBox="0 0 84.6 55.2" style="enable-background:new 0 0 84.6 55.2;"
	 xml:space="preserve">
<style type="text/css">
	.st0{fill:#467026;}
</style>
<g id="M95tUc_1_">
	<g>
		<path class="st0" d="M60.6,52.3c-12.2,0-24.4,0-36.6,0c-0.2-0.1-0.3-0.2-0.5-0.2c-3.3-0.7-5.4-3.3-5.4-6.7c0-10.7,0-21.5,0-32.2
			c0-2.8,1.8-5.5,4.5-6.2c2-0.5,4.1-0.4,6.2-0.6c0.1,1.6,0,2.9,0.3,4.1c0.5,2.2,2.7,3.5,5,3.3c2.1-0.2,3.8-2.1,3.9-4.3
			c0-1,0-1.9,0-2.9c3,0,5.8,0,8.7,0c0,0.9,0,1.7,0,2.5c0,2.7,1.9,4.7,4.5,4.8c2.6,0,4.7-2,4.7-4.7c0-0.8,0-1.7,0-2.6
			c1.3,0,2.5,0,3.6,0c3.9,0,6.9,2.9,6.9,6.8c0,10.7,0,21.5,0,32.2c0,3.2-2.2,5.8-5.3,6.5C61,52.1,60.8,52.2,60.6,52.3z M21.3,17.4
			c0,0.4,0,0.8,0,1.2c0,8.8,0,17.6,0,26.4c0,2.6,1.4,4,4,4c11.3,0,22.7,0,34,0c2.7,0,4-1.4,4-4c0-8.8,0-17.5,0-26.3
			c0-0.4,0-0.8-0.1-1.2C49.3,17.4,35.4,17.4,21.3,17.4z"/>
		<path class="st0" d="M51.8,2.9c1.5,0.6,2,1.7,1.9,3.3c-0.1,0.9,0,1.9,0,2.8c-0.1,1.5-1,2.4-2.4,2.4c-1.4,0-2.3-1-2.3-2.5
			c0-0.9,0.1-1.9,0-2.8c-0.1-1.6,0.5-2.7,2-3.2C51.3,2.9,51.5,2.9,51.8,2.9z"/>
		<path class="st0" d="M34.1,2.9c1.4,0.7,1.9,1.7,1.8,3.3c-0.1,1,0,2,0,3.1c0,1.3-1,2.2-2.3,2.2c-1.3,0-2.2-0.8-2.3-2.1
			c-0.1-1.4,0-2.8,0-4.2c0-1.2,0.9-1.7,1.8-2.3C33.3,2.9,33.7,2.9,34.1,2.9z"/>
		<path class="st0" d="M34.6,45.8c0-2,0-3.9,0-5.9c2,0,3.9,0,5.9,0c0,1.9,0,3.9,0,5.9C38.6,45.8,36.6,45.8,34.6,45.8z"/>
		<path class="st0" d="M50,45.8c-2,0-3.9,0-5.9,0c0-2,0-3.9,0-5.9c2,0,3.9,0,5.9,0C50,41.9,50,43.8,50,45.8z"/>
		<path class="st0" d="M34.6,36.2c0-2,0-3.8,0-5.8c2,0,3.9,0,5.9,0c0,1.9,0,3.8,0,5.8C38.6,36.2,36.6,36.2,34.6,36.2z"/>
		<path class="st0" d="M34.6,26.8c0-2,0-3.9,0-5.8c2,0,3.9,0,5.9,0c0,1.9,0,3.8,0,5.8C38.5,26.8,36.6,26.8,34.6,26.8z"/>
		<path class="st0" d="M50,21c0,1.9,0,3.8,0,5.8c-2,0-3.9,0-5.9,0c0-1.9,0-3.8,0-5.8C46,21,48,21,50,21z"/>
		<path class="st0" d="M30.9,45.8c-2,0-3.8,0-5.8,0c0-2,0-3.9,0-5.9c1.9,0,3.8,0,5.8,0C30.9,41.8,30.9,43.8,30.9,45.8z"/>
		<path class="st0" d="M25.1,36.3c0-2,0-3.8,0-5.8c1.9,0,3.8,0,5.8,0c0,1.9,0,3.8,0,5.8C29.1,36.3,27.2,36.3,25.1,36.3z"/>
		<path class="st0" d="M59.4,36.3c-2,0-3.9,0-5.8,0c0-2,0-3.9,0-5.9c1.9,0,3.8,0,5.8,0C59.4,32.4,59.4,34.3,59.4,36.3z"/>
		<path class="st0" d="M53.7,20.9c2,0,3.8,0,5.8,0c0,1.9,0,3.8,0,5.8c-1.9,0-3.8,0-5.8,0C53.7,24.9,53.7,22.9,53.7,20.9z"/>
		<path class="st0" d="M46.6,37.2c-1.3-1-2.5-2-3.7-3c0.5-0.6,0.9-1.1,1.4-1.7c0.7,0.5,1.3,1,2,1.6c1.1-1.4,2.2-2.8,3.3-4.2
			c0.6,0.4,1.1,0.9,1.7,1.3C49.7,33.2,48.2,35.2,46.6,37.2z"/>
	</g>
</g>
</svg>
