<?xml version="1.0" encoding="utf-8"?>
<!-- Generator: Adobe Illustrator 24.2.1, SVG Export Plug-In . SVG Version: 6.00 Build 0)  -->
<svg version="1.1" id="レイヤー_1" xmlns="http://www.w3.org/2000/svg" xmlns:xlink="http://www.w3.org/1999/xlink" x="0px"
	 y="0px" width="500px" height="500px" viewBox="0 0 500 500" style="enable-background:new 0 0 500 500;" xml:space="preserve">
<style type="text/css">
	.st0{fill:#018A8C;}
</style>
<g>
	<path class="st0" d="M235.5,99.5c47,0,91.2,18.3,124.5,51.5s51.5,77.4,51.5,124.5S393.2,366.7,360,400s-77.4,51.5-124.5,51.5
		S144.3,433.2,111,400s-51.5-77.4-51.5-124.5S77.8,184.3,111,151S188.5,99.5,235.5,99.5 M235.5,88.5c-103.3,0-187,83.7-187,187
		s83.7,187,187,187s187-83.7,187-187S338.8,88.5,235.5,88.5L235.5,88.5z"/>
	<path class="st0" d="M255,329.5c-2.7,0-5.3-1-7.3-2.9l-135-130c-4.2-4-4.3-10.7-0.3-14.8c4-4.2,10.7-4.3,14.8-0.3l126.1,121.4
		l179-260.8c3.3-4.8,9.8-6,14.6-2.7c4.8,3.3,6,9.8,2.7,14.6l-186,271c-1.7,2.5-4.5,4.2-7.6,4.5C255.7,329.5,255.4,329.5,255,329.5z"
		/>
</g>
</svg>
