<?xml version="1.0" encoding="utf-8"?>
<!-- Generator: Adobe Illustrator 24.2.1, SVG Export Plug-In . SVG Version: 6.00 Build 0)  -->
<svg version="1.1" id="レイヤー_1" xmlns="http://www.w3.org/2000/svg" xmlns:xlink="http://www.w3.org/1999/xlink" x="0px"
	 y="0px" width="84.6px" height="55.2px" viewBox="0 0 84.6 55.2" style="enable-background:new 0 0 84.6 55.2;"
	 xml:space="preserve">
<style type="text/css">
	.st0{fill:#467026;}
</style>
<g>
	<path class="st0" d="M16.4,1.5c17.4,0,34.5,0,51.8,0c0,17.4,0,34.7,0,52.1c-17.4,0-34.5,0-51.8,0C16.4,36.3,16.4,19,16.4,1.5z
		 M67,2.7c-8.1,0-15.8,0-23.8,0c4.2,4.1,8.2,8,12.3,12c3.6,0,7.4,0,11.4,0C67,10.7,67,6.8,67,2.7z M40.7,2.7c-8,0-15.5,0-23.3,0
		c0,4.1,0,7.9,0,12c3.9,0,7.8,0,11,0C32.7,10.5,36.6,6.7,40.7,2.7z M54.8,41.4c-3.6,3.5-7.4,7.1-11.5,11.1c8.3,0,15.9,0,23.7,0
		c0-3.8,0-7.3,0-11.1C62.9,41.4,59.1,41.4,54.8,41.4z M27.8,41.4c-3.3,0-6.8,0-10.3,0c0,3.8,0,7.4,0,11c7.3,0,14.3,0,22,0
		C35.3,48.5,31.7,45.1,27.8,41.4z M50.1,12c-2.6,2.5-5.2,5-7.8,7.5c2.4,2.3,5,4.8,7.3,7.1c2.5-2.4,5.1-5,7.7-7.6
		C54.8,16.6,52.2,14.1,50.1,12z M50.9,27.9c2.7,2.7,5.3,5.2,8.1,7.9c2.3-2.4,4.7-5.1,7.2-7.8c-2.6-2.4-5.3-5-7.9-7.4
		C56,23,53.4,25.5,50.9,27.9z M48.7,44.8c-2.3-2.3-4.9-4.8-7-7c-2.4,2.3-5.1,4.9-7.8,7.6c2.4,2.3,5,4.7,7.6,7.2
		C43.9,49.9,46.5,47.2,48.7,44.8z M32.7,43.4c2.5-2.4,5.1-5,7.6-7.6c-2.4-2.4-4.9-4.9-7.3-7.2c-2.5,2.5-5.1,5.1-7.9,7.8
		C27.7,38.8,30.3,41.2,32.7,43.4z M49.5,29.4c-2.2,2.2-4.4,4.4-6.5,6.5c2.6,2.5,5.2,5.1,7.8,7.7c2-2.1,4.2-4.4,6.4-6.7
		C54.8,34.5,52.2,32,49.5,29.4z M42,4.1c-2.4,2.4-5,4.9-7.5,7.3c2.2,2.1,4.5,4.3,6.4,6.1c2.4-2.3,5-4.8,7.7-7.4
		C46.3,8.1,44.1,6,42,4.1z M41.5,34.5c2.2-2,4.6-4.2,6.8-6.2c-2.7-2.6-5.3-5.1-7.6-7.4c-2,2-4.3,4.2-6.6,6.5
		C36.6,29.8,39.2,32.3,41.5,34.5z M17.4,28.4c2.3,2.2,4.6,4.3,6.6,6.2c2.6-2.4,5.2-4.9,8-7.5c-2.3-2.2-4.5-4.3-6.7-6.4
		C22.8,23.2,20.2,25.7,17.4,28.4z M26.4,19.6c2.2,2.1,4.4,4.2,6.4,6.1c2.2-2,4.6-4.2,7-6.5c-2.3-2.1-4.6-4.3-6.7-6.2
		C31.1,14.9,28.8,17.2,26.4,19.6z M57.2,16.1c3.2,3.2,6.6,6.6,9.7,9.6c0-2.8,0-6.2,0-9.6C63.3,16.1,60,16.1,57.2,16.1z M27.4,16.2
		c-3.4,0-6.6,0-9.9,0c0,3.4,0,6.6,0,9.4C20.6,22.6,23.9,19.5,27.4,16.2z M57.2,39.9c3.1,0,6.3,0,9.7,0c0-3.4,0-6.6,0-9.8
		c-0.2-0.1-0.3-0.2-0.5-0.3C63.3,33.2,60.2,36.6,57.2,39.9z M17.4,39.9c3.2,0,6.2,0,9.4,0c-3.3-3.1-6.4-6-9.4-8.8
		C17.4,33.6,17.4,36.6,17.4,39.9z"/>
</g>
</svg>
