<svg xmlns="http://www.w3.org/2000/svg" viewBox="0 0 358 92"><defs><style>.cls-1{fill:#467026;}.cls-2{fill:#fff;}.cls-3,.cls-4{fill:none;stroke:#467026;stroke-miterlimit:10;}.cls-4{stroke-width:4px;}</style></defs><g id="レイヤー_2" data-name="レイヤー 2"><g id="レイヤー_1-2" data-name="レイヤー 1"><rect class="cls-1" x="323.5" y="1" width="34" height="91"/><polygon class="cls-2" points="334.55 60.45 333.67 59.58 347.25 46 333.67 32.42 334.55 31.55 349 46 334.55 60.45"/><rect class="cls-3" x="0.5" y="0.5" width="357" height="91"/><circle class="cls-4" cx="54.5" cy="46.5" r="33.5"/><path class="cls-1" d="M124.43,34.7a6.62,6.62,0,0,1,1.49-.17c1.78,0,3.1.72,3.1,1.71a1.68,1.68,0,0,1-.15.62,20.16,20.16,0,0,0-.48,3.75,2.88,2.88,0,0,0,.65.07,3.66,3.66,0,0,0,2.69-1,1.6,1.6,0,0,1,1.15-.43c1.25,0,2.16.63,2.16,1.47,0,1.15-1.17,1.7-3.69,1.7a4.47,4.47,0,0,1-3-.84c0,.36,0,.62,0,1.06,0,1.6,0,2.78.26,5.57,4.25.76,6.74,2.28,6.74,4A1.49,1.49,0,0,1,134,53.9c-.48,0-.76-.14-1.51-.69a26.76,26.76,0,0,0-3.72-2.43c0,.68,0,.84,0,1.13,0,2-1.42,3.1-4.15,3.1-3.41,0-5.6-1.51-5.6-3.89,0-2,2.19-3.31,5.64-3.31.32,0,.46,0,1.13,0h.19c-.19-5.38-.35-9.25-.5-10.78-.1-.89-.48-1.23-1.46-1.35ZM123.3,49.54c-1.72,0-2.88.62-2.88,1.58s1.54,1.56,3.72,1.56c1.59,0,2-.38,2-1.92a8.92,8.92,0,0,0,0-.91A12.16,12.16,0,0,0,123.3,49.54Z"/><path class="cls-1" d="M155.71,34.29c1.63.87,2.66,2.09,2.66,3.2,0,.84-.38,1.12-2.78,2.2-4.06,1.81-6.77,3.56-6.77,4.4,0,.31.05.36.84.77,6,3,8.8,5.71,8.8,8.32a2.11,2.11,0,0,1-1.94,2.28c-.89,0-1.15-.24-1.77-1.51-1.56-3.19-3.39-5.25-7.09-8a1.68,1.68,0,0,1-.81-1.56c0-1.61,1.61-3.37,6.6-7.23,1.25-1,1.61-1.37,1.61-1.78a.92.92,0,0,0-.31-.6Z"/><path class="cls-1" d="M173.87,38A2.5,2.5,0,0,0,176.25,39a12.42,12.42,0,0,0,2.45-.31,11.72,11.72,0,0,0,.12-1.49c0-.93-.15-1.13-1-1.27l.31-1a3.32,3.32,0,0,1,1.44-.29c1.47,0,2.64.67,2.64,1.51a1.57,1.57,0,0,1-.33.94,2.6,2.6,0,0,0-.41.84,6.43,6.43,0,0,0,2.35-1.13,1.75,1.75,0,0,1,1.32-.43c1,0,1.68.5,1.68,1.22s-1.8,1.63-5.9,2.57c-.08.43-.12.62-.22,1.22a7.88,7.88,0,0,0-.12,1,13.07,13.07,0,0,1,3-.55,1.43,1.43,0,0,0-.31-.84l.53-.34a2.8,2.8,0,0,1,.91,1.15c4.37.08,7.46,2.69,7.46,6.32,0,4.34-3.67,6.91-10.17,7.13l-.29-.56a10.49,10.49,0,0,0,4.46-1.8,5.79,5.79,0,0,0,2.28-4.84c0-2.89-1.25-4.68-3.6-5.12,0,2-1.51,4.59-4.32,7.49a5.18,5.18,0,0,0,.24,1.11,3,3,0,0,1,.15.91A1.6,1.6,0,0,1,179.46,54c-.64,0-1.15-.57-1.34-1.53a6.69,6.69,0,0,1-3.67,1.39c-1.47,0-2.28-1-2.28-2.71,0-2.74,2.78-6.31,6.09-7.83,0-.67.05-1,.22-2.64a12.4,12.4,0,0,1-1.42.1,3.43,3.43,0,0,1-3.67-2.26Zm.94,12.29c0,.69.24,1.08.69,1.08A5.09,5.09,0,0,0,178,49.82c0-1.51,0-3.16.11-4.89C176.2,46.49,174.81,48.72,174.81,50.26Zm5.64-6.75a29.18,29.18,0,0,0-.22,3.34c0,.29,0,.45,0,.84,1.94-2.16,2.88-3.56,3.21-4.83A7.92,7.92,0,0,0,180.45,43.51Z"/><path class="cls-1" d="M204.16,35.93a1.32,1.32,0,0,0,1.3.72,21.4,21.4,0,0,0,3.79-.72,4,4,0,0,0,1.73-.68,1.15,1.15,0,0,1,.69-.21,3,3,0,0,1,2.69,2.47c0,.46-.29.77-1,1.1-1.42.63-4.32,2.89-8.79,6.82h.17A11.82,11.82,0,0,1,211.62,43c4.06,0,6.63,2,6.63,5.23a6.84,6.84,0,0,1-2.69,4.92,8.49,8.49,0,0,1-5.33,1.61c-3.67,0-6.19-1.75-6.19-4.32,0-1.2,1-2,2.54-2,2.29,0,4.78,1.88,4.78,3.6a1.8,1.8,0,0,1,0,.29c2.16-.79,3.41-2.37,3.41-4.29a3.81,3.81,0,0,0-4.13-3.85c-2.76,0-5.36,1.69-7.08,4.59-.46.77-1,1.25-1.54,1.25-.74,0-1.18-.65-1.18-1.73a3,3,0,0,1,1.18-2.5l3.7-3.45c4.12-3.84,4.25-3.94,5.76-5.31l-.05-.07c-2.26,1.08-3.29,1.59-4.27,2.16a2.16,2.16,0,0,1-1.08.36c-1.23,0-2.24-1.25-2.45-3Zm3.67,14.71a2.61,2.61,0,0,0-1.7-.89c-.41,0-.63.19-.63.6,0,1,1.49,2,3.27,2.14A4.57,4.57,0,0,0,207.83,50.64Z"/><path class="cls-1" d="M230.61,37.42v.16h3.91l1.27-1.15a10.87,10.87,0,0,1,2,1.66l-.41.69H235v3.46h-2.59V38.78h-1.9a7.39,7.39,0,0,1-3.86,5.62l-.41-.38a11.29,11.29,0,0,0,1.63-6.53V34.58c1,.24,1.25.29,2.86.79a20.9,20.9,0,0,0,4.37-1.65c1.44,1.13,2,1.7,2,2,0,.12-.15.19-.39.19a2.68,2.68,0,0,1-.69-.1,54.54,54.54,0,0,1-5.45.46Zm-4.2,18.48a18.56,18.56,0,0,0,7-4c2.33,1.51,3.07,2.11,3.07,2.47,0,.17-.26.26-.74.26-.17,0-.41,0-.65,0a29.64,29.64,0,0,1-8.4,1.82Zm6.43-3.82h-3.22v-10c1.16.24,1.9.41,3.34.81h8.59l1-.79V38.78h-2a5.57,5.57,0,0,1-4,3.89l-.36-.41a6.53,6.53,0,0,0,1.8-5V34.61a28,28,0,0,1,2.76.79,16.48,16.48,0,0,0,4.13-1.68c1.61,1.17,2.28,1.77,2.28,2.09,0,.09-.12.16-.36.16a3.3,3.3,0,0,1-.72-.09,43.93,43.93,0,0,1-5.4.41v1.29h4l1.49-1.22a16.58,16.58,0,0,1,2.26,1.73l-.39.69h-2.85v3.39h-1.95c1.9,1,2.64,1.58,2.64,1.94,0,.14-.07.24-.24.36L245,45v6.84h-3.21v-.26h-8.91Zm8.91-6.79V44.06h-8.91v1.23Zm0,2.49V46.49h-8.91v1.29Zm0,2.55V49h-8.91v1.35Zm-3.08,1.77a32.07,32.07,0,0,1,6.63.53c1.51.41,2.4,1.15,2.4,2a1.71,1.71,0,0,1-1.63,1.7c-.56,0-.72-.07-1.45-.65a19.66,19.66,0,0,0-6.14-3.09Z"/><path class="cls-1" d="M258,56H254.9V33.86A26.45,26.45,0,0,1,258,35h2.61L262,33.62c2.19,1.51,2.67,1.92,2.67,2.33,0,.14-.08.24-.29.43l-.63.53v6.17h-2.88V42H258Zm2.9-18.19V36.17H258V37.8Zm-2.9,3h2.9V39H258ZM263.06,51v1.51h-3V43.78a29.15,29.15,0,0,1,3.12,1.15h3l1.39-1.35c2,1.44,2.76,2.09,2.76,2.5a.3.3,0,0,1-.14.26l-.79.65v4.87h-3V51Zm3.38-4.82h-3.38v3.62h3.38Zm2.21-3.22h-2.88V33.84a20.18,20.18,0,0,1,3,1.13h2.81L273,33.48c2.23,1.58,2.81,2.09,2.81,2.47,0,.14-.05.24-.24.38l-.72.6V52.85c0,2.23-1,2.93-4.16,2.93,0-1.59-.55-2-2.92-2.6v-.72c1.29,0,1.89.08,2.64.08,1.22,0,1.36-.08,1.36-.7V42h-3.14Zm3.14-5.11V36.17h-3.14V37.8Zm-3.14,3h3.14V39h-3.14Z"/><path class="cls-1" d="M43,50.93c-7.27,0-11.67-5.06-11.67-12S35.85,27,43.12,27,55,31.94,55,38.91a11.37,11.37,0,0,1-5.55,10c.76,1.8,1.71,3,3.57,3A2.58,2.58,0,0,0,55.05,51l.46.61a5.82,5.82,0,0,1-4.67,2.72c-2.5,0-3.75-1.4-5-3.82A8.8,8.8,0,0,1,43,50.93Zm6.74-12c0-6.48-2.71-10.84-6.65-10.84s-6.69,4.36-6.69,10.84c0,4.12.61,6.53,1.5,8.12l.12-.07a5.88,5.88,0,0,1-.18-1.7,4.38,4.38,0,0,1,4.48-4.34c3.18,0,4.83,2.69,6,5.5C49.07,45.16,49.77,42.69,49.77,38.91Zm-8.61,5.43a2.17,2.17,0,0,0-2.29,2.44c0,1.77,2,3,3.85,3a4.92,4.92,0,0,0,2.66-.55C44.25,46.35,43.15,44.34,41.16,44.34Z"/><path class="cls-1" d="M77,62.6a3.86,3.86,0,0,0,2,.7v1H67.56v-1a5.8,5.8,0,0,0,2.2-.3,1.42,1.42,0,0,0,.8-1.38A6.57,6.57,0,0,0,70,59.49l-1.07-2.81h-8.4l-.33.88a10.76,10.76,0,0,0-1,3.39c0,1.44.76,2.2,3.48,2.35v1H53.43v-1A4.62,4.62,0,0,0,56,62c.74-.67,1.5-1.89,2.51-4.4L65,41.23h3L74.8,59C75.62,61.1,76.29,62.05,77,62.6Zm-8.61-7.36-3.6-9.49-3.76,9.49Z"/></g></g></svg>