<?xml version="1.0" encoding="utf-8"?>
<!-- Generator: Adobe Illustrator 24.2.1, SVG Export Plug-In . SVG Version: 6.00 Build 0)  -->
<svg version="1.1" id="レイヤー_1" xmlns="http://www.w3.org/2000/svg" xmlns:xlink="http://www.w3.org/1999/xlink" x="0px"
	 y="0px" width="250.6px" height="54px" viewBox="0 0 250.6 54" style="enable-background:new 0 0 250.6 54;" xml:space="preserve">
<style type="text/css">
	.st0{fill:#018A8C;}
	.st1{fill:#FFFFFF;}
</style>
<rect class="st0" width="54" height="54"/>
<g id="vuotaO_1_">
	<g>
		<path class="st1" d="M39.4,43.2c-8.1,0-16.2,0-24.3,0c-0.1,0-0.3-0.1-0.4-0.1c-1.6-0.3-2.7-1.3-3-2.8c-0.3-1.4-0.2-2.9-0.3-4.3
			c0.1,0,0.1-0.1,0.2-0.1c1.3,1,2.8,1.1,4.4,1.1c2.7-0.1,5.1-2.3,5.1-5c0-7,0-14,0-21c4.4,0,8.7,0,13.1,0c1.7,1.7,3.4,3.4,5.1,5.2
			c0.2,0.3,0.4,0.7,0.4,1c0,1.4,0,2.7,0,4.1c0,0.4,0.1,0.6,0.5,0.8c1.7,0.6,2.8,1.8,2.8,3.6c0.1,4.6,0.1,9.2,0,13.8
			c0,1.8-1.1,3-2.7,3.6C40,43,39.7,43.1,39.4,43.2z M33.5,12.6c-0.1-0.1-0.2-0.1-0.2-0.1c-3.4,0-6.8,0-10.2,0
			c-0.4,0-0.5,0.2-0.5,0.5c0,2.7,0,5.5,0,8.2c0,0.2,0.3,0.5,0.5,0.5c0.4,0.1,0.9,0,1.4,0c4.3,0,8.6,0,12.9,0c0.6,0,0.8-0.2,0.8-0.8
			c0-0.7,0-1.5,0-2.2c0-1.7,0-1.7-1.7-1.7c-0.9,0-1.9,0-2.9,0C33.5,15.5,33.5,14.1,33.5,12.6z M31.7,24.7c-1.8,0-3.7,0-5.5,0
			c-1,0-1.6,0.7-1.3,1.5c0.2,0.7,0.8,0.8,1.4,0.8c2.6,0,5.3,0,7.9,0c1,0,2,0,2.9,0c1,0,1.5-0.8,1.2-1.6c-0.2-0.6-0.8-0.8-1.4-0.8
			C35.3,24.7,33.5,24.7,31.7,24.7z M37.3,30.9c0.6,0,1.2-0.5,1.2-1.1s-0.5-1.1-1.1-1.1s-1.2,0.5-1.2,1.1
			C36.1,30.3,36.6,30.9,37.3,30.9z M38.4,36.9c0-0.6-0.5-1.1-1.2-1.1c-0.6,0-1.1,0.5-1.1,1.1s0.5,1.1,1.1,1.2
			C37.9,38,38.4,37.5,38.4,36.9z M26,30.9c0.6,0,1.1-0.5,1.1-1.2c0-0.6-0.5-1.1-1.1-1.1s-1.2,0.5-1.2,1.1
			C24.8,30.4,25.4,30.9,26,30.9z M37.3,32.2c-0.6,0-1.2,0.4-1.2,1.1c0,0.6,0.5,1.2,1.1,1.2s1.2-0.4,1.2-1.1
			C38.5,32.8,37.9,32.2,37.3,32.2z M27.1,33.3c0-0.6-0.5-1.1-1.1-1.1s-1.1,0.5-1.1,1.1s0.5,1.1,1.1,1.2C26.6,34.5,27.1,34,27.1,33.3
			z M32.7,29.8c0-0.6-0.5-1.1-1.1-1.2c-0.6,0-1.1,0.4-1.1,1.1s0.4,1.2,1.1,1.2C32.2,30.9,32.7,30.4,32.7,29.8z M32.7,33.4
			c0-0.6-0.5-1.1-1.1-1.2c-0.6,0-1.1,0.4-1.1,1c0,0.7,0.4,1.2,1.1,1.2C32.2,34.5,32.7,34,32.7,33.4z M26,35.8
			c-0.6,0-1.2,0.5-1.1,1.1c0,0.6,0.5,1.1,1.1,1.1s1.2-0.5,1.2-1.1C27.1,36.3,26.6,35.8,26,35.8z M31.6,38c0.7,0,1.1-0.5,1.2-1.1
			c0-0.6-0.5-1.1-1.1-1.1s-1.1,0.5-1.1,1.1C30.5,37.5,30.9,38,31.6,38z"/>
		<path class="st1" d="M19.3,27.9c0,1.3,0,2.6,0,3.9c0,1.9-1.4,3.3-3.3,3.3c-0.5,0-1.1,0-1.6,0c-1.6-0.3-2.8-1.5-2.8-3.1
			c-0.1-2.7-0.1-5.5,0-8.2c0-1.8,1.4-3,3.2-3.1c0.5,0,1,0,1.4,0c1.7,0.1,3.1,1.4,3.1,3.2C19.3,25.2,19.3,26.5,19.3,27.9L19.3,27.9z"
			/>
	</g>
</g>
<g>
	<path class="st0" d="M66,28.2c0-6,2.1-8.9,5.4-8.9s5.4,2.9,5.4,8.9s-2.1,9-5.4,9S66,34.2,66,28.2z M74.7,28.2c0-5-1.3-7.2-3.3-7.2
		s-3.3,2.1-3.3,7.2s1.3,7.3,3.3,7.3C73.4,35.5,74.7,33.3,74.7,28.2z"/>
	<path class="st0" d="M92.7,32.1h-2.3v4.8h-2.1v-4.8h-7.5v-1.4L88,19.6h2.4v10.8h2.3C92.7,30.4,92.7,32.1,92.7,32.1z M88.3,30.4
		v-5.3c0-0.8,0.1-2.2,0.1-3.1h-0.1c-0.4,0.8-0.9,1.7-1.4,2.5L83,30.4H88.3z"/>
	<path class="st0" d="M96.8,35.6c5.4-4.7,7.9-8.2,7.9-11.2c0-2-1-3.4-3.2-3.4c-1.4,0-2.6,0.9-3.6,2l-1.2-1.2
		c1.4-1.5,2.9-2.5,5.1-2.5c3.1,0,5,2,5,5.1c0,3.4-2.7,7-6.8,10.8c0.9-0.1,2-0.2,2.8-0.2h4.8v1.9H96.8V35.6z"/>
	<path class="st0" d="M112.3,29.5h6v1.7h-6V29.5z"/>
	<path class="st0" d="M134.1,32.1h-2.3v4.8h-2.1v-4.8h-7.5v-1.4l7.2-11.1h2.4v10.8h2.3L134.1,32.1L134.1,32.1z M129.8,30.4v-5.3
		c0-0.8,0.1-2.2,0.1-3.1h-0.1c-0.4,0.8-0.9,1.7-1.4,2.5l-3.9,5.9C124.5,30.4,129.8,30.4,129.8,30.4z"/>
	<path class="st0" d="M147.8,22.4c-0.7-0.8-1.7-1.3-2.8-1.3c-2.4,0-4.4,1.8-4.5,7.2c1.1-1.3,2.6-2.1,3.9-2.1c2.9,0,4.8,1.8,4.8,5.4
		c0,3.3-2.3,5.6-5,5.6c-3.3,0-5.8-2.9-5.8-8.6c0-6.8,3-9.4,6.4-9.4c1.8,0,3.1,0.8,4,1.8L147.8,22.4z M147.2,31.6
		c0-2.3-1-3.8-3.1-3.8c-1.1,0-2.4,0.6-3.5,2.2c0.3,3.6,1.6,5.5,3.7,5.5C146,35.5,147.2,34,147.2,31.6z"/>
	<path class="st0" d="M154.7,35.1h3.8V22.2h-3.1v-1.4c1.5-0.3,2.6-0.7,3.6-1.2h1.7v15.5h3.5v1.8h-9.5V35.1z"/>
	<path class="st0" d="M169.2,29.5h6v1.7h-6V29.5z"/>
	<path class="st0" d="M179.7,35.6c5.4-4.7,7.9-8.2,7.9-11.2c0-2-1-3.4-3.2-3.4c-1.4,0-2.6,0.9-3.6,2l-1.2-1.2
		c1.4-1.5,2.9-2.5,5.1-2.5c3.1,0,5,2,5,5.1c0,3.4-2.7,7-6.8,10.8c0.9-0.1,2-0.2,2.8-0.2h4.8v1.9h-10.9L179.7,35.6L179.7,35.6z"/>
	<path class="st0" d="M195.1,32.6c0-2.3,1.6-3.9,3.2-4.8v-0.1c-1.3-0.9-2.3-2.2-2.3-4c0-2.6,2-4.4,4.7-4.4c2.9,0,4.7,1.9,4.7,4.5
		c0,1.8-1.3,3.4-2.3,4.2v0.1c1.5,0.9,2.9,2.2,2.9,4.5c0,2.5-2.2,4.5-5.4,4.5C197.5,37.2,195.1,35.3,195.1,32.6z M204,32.7
		c0-2.3-2.1-3.2-4.6-4.2c-1.4,0.9-2.4,2.3-2.4,3.9c0,1.8,1.5,3.2,3.6,3.2C202.7,35.6,204,34.4,204,32.7z M203.6,24
		c0-1.7-1.1-3.1-2.9-3.1c-1.6,0-2.7,1.1-2.7,2.8c0,2.1,1.9,3,3.9,3.8C203,26.5,203.6,25.3,203.6,24z"/>
	<path class="st0" d="M210.6,32.6c0-2.3,1.6-3.9,3.2-4.8v-0.1c-1.3-0.9-2.3-2.2-2.3-4c0-2.6,2-4.4,4.7-4.4c2.9,0,4.7,1.9,4.7,4.5
		c0,1.8-1.3,3.4-2.3,4.2v0.1c1.5,0.9,2.9,2.2,2.9,4.5c0,2.5-2.2,4.5-5.4,4.5C212.9,37.2,210.6,35.3,210.6,32.6z M219.5,32.7
		c0-2.3-2.1-3.2-4.6-4.2c-1.4,0.9-2.4,2.3-2.4,3.9c0,1.8,1.5,3.2,3.6,3.2C218.1,35.6,219.5,34.4,219.5,32.7z M219.1,24
		c0-1.7-1.1-3.1-2.9-3.1c-1.6,0-2.7,1.1-2.7,2.8c0,2.1,1.9,3,3.9,3.8C218.5,26.5,219.1,25.3,219.1,24z"/>
	<path class="st0" d="M227.5,34.1c0.7,0.8,1.8,1.3,2.9,1.3c2.2,0,4.2-1.8,4.3-7.2c-1,1.3-2.5,2.1-4,2.1c-2.9,0-4.8-1.9-4.8-5.4
		c0-3.3,2.3-5.6,5-5.6c3.3,0,5.8,2.7,5.8,8.2c0,7-3,9.7-6.3,9.7c-1.9,0-3.2-0.8-4.1-1.8L227.5,34.1z M234.7,26.4
		c-0.2-3.6-1.6-5.4-3.8-5.4c-1.7,0-2.9,1.6-2.9,3.9s1,3.8,3.1,3.8C232.3,28.7,233.6,28.1,234.7,26.4z"/>
</g>
</svg>
