<svg xmlns="http://www.w3.org/2000/svg" viewBox="0 0 42.13 42.13"><defs><style>.cls-1{fill:#467026;}</style></defs><g id="レイヤー_2" data-name="レイヤー 2"><g id="レイヤー_1-2" data-name="レイヤー 1"><g id="rYN8D2.tif"><path class="cls-1" d="M21.06,42.13A21.07,21.07,0,1,1,42.13,21.22,21.06,21.06,0,0,1,21.06,42.13Zm-3.3-6.55H23V23h4l.66-5H23c0-1.39,0-2.74,0-4.09a1.6,1.6,0,0,1,1.4-1.69,2.34,2.34,0,0,1,.52-.08l2.84,0h.3V7.58c-.56,0-1.11-.11-1.66-.14a16,16,0,0,0-3.72.08,5.63,5.63,0,0,0-4.43,3.59,7.63,7.63,0,0,0-.48,2.79c0,1.26,0,2.51,0,3.77V18H13.54v5h4.22Z"/></g></g></g></svg>