<?xml version="1.0" encoding="utf-8"?>
<!-- Generator: Adobe Illustrator 25.1.0, SVG Export Plug-In . SVG Version: 6.00 Build 0)  -->
<svg version="1.1" id="レイヤー_1" xmlns="http://www.w3.org/2000/svg" xmlns:xlink="http://www.w3.org/1999/xlink" x="0px"
	 y="0px" width="32.8px" height="32.8px" viewBox="0 0 32.8 32.8" style="enable-background:new 0 0 32.8 32.8;"
	 xml:space="preserve">
<style type="text/css">
	.st0{fill-rule:evenodd;clip-rule:evenodd;fill:#696969;}
	.st1{fill:#696969;}
</style>
<path class="st0" d="M17.9,26.1h-4.1v-9.7h-2.1V13h2.1v-2c0-2.7,1.2-4.4,4.5-4.4H21V10h-1.7c-1.3,0-1.4,0.5-1.4,1.3V13H21l-0.4,3.4
	h-2.7V26.1L17.9,26.1z"/>
<g id="レイヤー_2_1_">
	<g id="レイヤー_1-2">
		<path class="st1" d="M16.4,32.8C7.4,32.8,0,25.5,0,16.4S7.4,0,16.4,0s16.3,7.3,16.3,16.3C32.8,25.5,25.5,32.8,16.4,32.8z
			 M16.4,0.7c-8.6,0-15.7,7-15.7,15.7S7.8,32,16.4,32s15.7-7,15.7-15.7l0,0C32.2,7.7,25.1,0.7,16.4,0.7z"/>
	</g>
</g>
</svg>
