<svg xmlns="http://www.w3.org/2000/svg" viewBox="0 0 660.01 549.61"><defs><style>.cls-1{fill:#543a2d;}</style></defs><g id="レイヤー_2" data-name="レイヤー 2"><g id="レイヤー_2-2" data-name="レイヤー 2"><path class="cls-1" d="M138.81,75.49c-7.22,5.26-11-1-8.94-5.28a20.65,20.65,0,0,0,1.17-4,4.32,4.32,0,0,0-1.41-4.08,9.85,9.85,0,0,0-9.31-1.36C110.85,64,105.67,73.1,113.6,81c5.22,5.2,17.39,5.9,23.31,1.42,8.7-6.56,8.05-18.22,7-27.81-2.74-24.27-22.68-44.51-49.06-37.13C67.93,25,55,58.1,66.33,82.08c.64,1.34,4.18.36,3.62-.84C61,62.42,67.52,36.91,84.68,24.73c22.83-16.25,47.58-.61,54.06,22.57a55.85,55.85,0,0,1,1.44,24.21c-3.25,18.1-33.87,11.48-25.74-4.21,3.47-5.15,14.13-6.67,12.52,1.16a59.08,59.08,0,0,0-1.57,6c-.31,2.54,2,4.2,3.92,5.3,3.95,2.28,9.52-1.09,12.4-3.43,1.64-1.34-1.89-1.65-2.9-.82Z"/><path class="cls-1" d="M73.68,35.9c9.08-10.58,26.46-7.1,37.86-2.31,9.77,4.1,18.54,11.88,29.22,13.86,19.68,3.67,40.6-5.7,44.63-25.71,1.4-6.91.07-17.44-7.9-20.21C170.14-1,162-.75,156.6,5.2c-4.16,4.56-2,12,3.12,14.5,9.27,4.61,14.52-14.45,23.05-4.53,1,1.2,3.79-.75,2.65-2.09-2.83-3.28-4.63-4.65-9.15-4-5.48.8-14.3,15.48-17.88,3.81C154.56.45,174.5,1,179.75,7.43c3.1,3.82,2.52,10,2,14.48-1.42,12.51-12.57,20.66-24.49,23.19C137,49.42,122.37,32.73,104,28.16,92.7,25.35,78.7,25.52,70.71,34.83c-1.45,1.69,1.94,2.27,3,1.07Z"/><path class="cls-1" d="M75.09,150.46c1.91-3.11,4.37-9.94-.38-12.2-1.86-.89-2.75-1.35-4.92-1.19-3,.23-8.29,4.69-11.16,2.21-6.09-5.3,4-20.63,14.55-11.75,4.73,4,6,12.37,3.62,17.68-4.31,9.73-21.57,9.66-30.72,9.38-22.18-.69-40.33-16.89-36.89-39C13,91.28,41.91,75.67,65.77,81.65c1.29.31,4.3-1.48,2.21-2-26-6.5-54.89,9-61.89,33.84-3.71,13.18,1.54,25.82,12.06,34.45,9.21,7.56,22,9.16,33.66,8.81,9.84-.29,20.76-2.07,27.4-9.71,6.31-7.32.34-24-9.94-24.67-8-.55-16.07,4.5-15.53,13.25.2,3.24,1.66,6.81,5.53,7.14a10.92,10.92,0,0,0,5.15-1.22c11.24-4.55,10.35,3.69,7.31,8.64-1,1.53,2.67,1.39,3.36.29Z"/><path class="cls-1" d="M19.05,93c-8.83,10.16-5.09,22.82.31,33.68,6.85,13.78,21.13,22.12,24.42,37.71A33.37,33.37,0,0,1,38,191c-8,10.84-29,15.79-33.8-.09a14.6,14.6,0,0,1-.23-6.17c7.32-11.17,15.4-4.27,12.54,1.66-1.19,2.67-3.42,4.91-4.8,7.51-2.54,4.72.53,7,4.36,9.12,1.33.75,5.48-.08,3.76-1-14-7.84,7.21-14.24.39-23C17,175,9.91,173.93,5.57,177.2c-6,4.57-7.2,12.46-3.35,19C7.38,205,17.05,204.56,26,202c19.88-5.57,25.73-28.29,19.38-45.36C42,147.49,33.5,140.56,27.59,132.89c-8-10.4-15.6-28.49-5.71-39.89,1.46-1.68-1.1-1.65-2.13-.46Z"/><path class="cls-1" d="M65.42,80.71C70.26,84.86,76.3,86.25,82.11,83a13,13,0,0,0,6.1-13.63C87,63.67,79.6,61.61,74.46,63.52c-2.82,1.06-3.46,3.2-3.34,6A42.15,42.15,0,0,0,72,74.81a7.49,7.49,0,0,1-.32,3.32c-.6,2-1.48,2.08-3.24,1-.87-.51-3.82.85-3.42,1.08,4.65,2.73,10.11.5,10.63-4.85.29-2.82-1-5.67-.86-8.55.25-4.06,5-2.5,7.29-.83,3.88,2.85,3.21,8.63,1.39,12.35a9.92,9.92,0,0,1-5.13,5c-3.24,1.15-7.25-1.89-9.47-3.78-.7-.62-3.89.65-3.4,1.07Z"/><path class="cls-1" d="M75.91,84.92c4.76,1.12,9.16,1.21,13.7-.7,4.74-2,11.56-14.51,15.37-5.06,5,12.5-20.36,9-25.87,4.6-.76-.59-3.9.71-3.42,1.07,7.13,5.64,25.16,7.13,31.88,0,3.41-3.59.65-11.64-4.76-11.29a12.46,12.46,0,0,0-6.34,2.2,28.82,28.82,0,0,0-4.35,3.82c-3.83,4-7.67,5.39-13.23,4.1-.81-.2-4,1-3,1.23Z"/><path class="cls-1" d="M67.24,82.48c4.72,2.7,8.43,7,6.55,12.48-1.48,4.31-6.75,8.68-11.55,6.72-2.5-1-3.9-3.56-4.79-5.87-1.66-4.39,3.64-4.89,6.77-5.29,5.1-.65,11.27-4.7,5.85-9.38-.71-.61-3.9.65-3.41,1.08,2.22,1.91,2.88,4,.56,6.13-1.51,1.38-4.87,1.31-6.86,1.69-2.44.46-5.44,1.37-6.58,3.7-1.29,2.68,1.58,6.51,3.61,8.18,1.81,1.48,4.36,1.75,6.63,1.59A16.39,16.39,0,0,0,76.6,96c3.61-5.93-.61-11.53-5.95-14.58-.87-.52-3.8.84-3.41,1.07Z"/><path class="cls-1" d="M74.37,90.54c3.6,5.79,4.09,10.32.39,16.25a16.32,16.32,0,0,0-2.93,8.45c0,5.25,8.63,4.82,12,3.35,11.17-4.94,1.39-24.4-5.92-29-.85-.53-3.85.8-3.42,1.07,6.8,4.29,12.6,17,10,24.66-1.34,3.89-7.57,3.56-8.88-.07-.83-2.29.75-5.25,1.77-7.27,1.31-2.64,3-4.81,3.75-7.72,1-3.72-1.21-7.5-3.11-10.55-.52-.85-3.86.43-3.61.84Z"/><path class="cls-1" d="M86.32,89.67c5.21,1.24,10.21,2.91,14,6.77a11.24,11.24,0,0,1,2.73,6.41c1,6.12-4.63,6.68-9.1,4.56-8.76-4.15-11.87-15.22-17.44-22.28-.7-.86-4.18.23-3.39,1.24,6.15,7.78,14,29.19,28.25,23.8,5.68-2.16,6.34-7.3,4-12.44-2.69-6.07-10.85-8.35-16.83-9.77-1-.25-4.25,1.24-2.27,1.71Z"/><path class="cls-1" d="M59.11,72.63C46.44,62.37,43,37.27,58.9,28.21l-3.17.33c1.15,9.18,3.36,15.31,0,24.62-2.42,6.63-2.85,13.44,0,20,.37.86,3.88-.22,3.61-.83-3.81-8.72-1-16.61,1.84-25.18,2.15-6.53-1-13-1.82-19.45-.1-.81-2.84.14-3.18.33-16.47,9.41-13.92,34.78-.47,45.7.76.6,3.93-.68,3.42-1.1Z"/><path class="cls-1" d="M60.39,73.47C47.66,61.56,19.17,61,11,78.43c-.16.34.37.41.59.41,5.93.08,11.56,1.46,17.48.7,10.11-1.31,14-9.28,26.86-5.73.83.24,4-1,3-1.26-20-6-25.2,7.26-39.22,5.28-5.41-.75-4.47-2.34-1.08-5.86,4.86-5,12.72-5.86,19.4-5.45a30.76,30.76,0,0,1,19,8c.69.65,4-.59,3.41-1.08Z"/><path class="cls-1" d="M56.56,69.47c-4.22-8-8-16.58-14-23.57-5.34-6.24-16.1-8.82-24.06-9.42-.7,0-2.62.33-2.55,1.29.67,9.53,3,18.85,12.32,23.72a110.29,110.29,0,0,0,25.32,9.23c1,.24,4.25-1.21,2.29-1.68a129.85,129.85,0,0,1-23.36-8.4c-9.81-4.46-12.29-14-13-23.7L17,38.23c9.07.69,18.71,4.21,24.24,11.42C46.06,55.92,49.31,63.36,53,70.3c.58,1.1,4.06,0,3.61-.83Z"/><path class="cls-1" d="M48.69,79.39C54,78,59.31,74,52.52,68.3c2,.3,7.35,2.39,9.38,2.09s.53-3.18,2.22-4c.23,3.35.86,7.21,2.58,10.15,1.14,2,2.12,3.37,2.12,5.83-2.29-2.95-14.22-5.45-17.34-3.09"/><line class="cls-1" x1="13.14" y1="201.08" x2="17.85" y2="201.08"/><line class="cls-1" x1="182.89" y1="9.51" x2="182.89" y2="14.06"/><rect class="cls-1" x="15.01" y="200.61" width="1" height="349"/><rect class="cls-1" x="183.01" y="11.61" width="477" height="1"/></g></g></svg>