<?xml version="1.0" encoding="utf-8"?>
<!-- Generator: Adobe Illustrator 24.1.2, SVG Export Plug-In . SVG Version: 6.00 Build 0)  -->
<svg version="1.1" id="レイヤー_1" xmlns="http://www.w3.org/2000/svg" xmlns:xlink="http://www.w3.org/1999/xlink" x="0px"
	 y="0px" width="968.5px" height="259.1px" viewBox="0 0 968.5 259.1" style="enable-background:new 0 0 968.5 259.1;"
	 xml:space="preserve">
<style type="text/css">
	.st0{fill:#BA8613;}
	.st1{fill:none;}
</style>
<g id="レイヤー_2_1_">
	<g id="レイヤー_2-2">
		<path class="st0" d="M33.1,18c-1.7,1.3-2.6-0.2-2.1-1.3c0.1-0.3,0.2-0.6,0.3-0.9c0.1-0.4,0-0.8-0.3-1c-0.6-0.5-1.5-0.6-2.2-0.3
			c-2.3,0.8-3.5,2.9-1.6,4.8c1.6,1.3,3.8,1.4,5.6,0.3c2.1-1.6,1.9-4.3,1.7-6.6c-0.7-5.8-5.4-10.6-11.7-8.9s-9.5,9.7-6.8,15.4
			c0.1,0.3,1,0.1,0.9-0.2c-2-4.8-0.6-10.3,3.5-13.5c5.5-3.9,11.4-0.1,12.9,5.4c0.5,1.9,0.7,3.8,0.3,5.8c-0.8,4.3-8.1,2.7-6.1-1
			c0.8-1.2,3.4-1.6,3,0.3c-0.2,0.5-0.3,0.9-0.4,1.4c-0.1,0.6,0.5,1,0.9,1.3c0.9,0.5,2.3-0.3,3-0.8C34.3,17.9,33.4,17.8,33.1,18
			L33.1,18z"/>
		<path class="st0" d="M17.6,8.6c2.2-2.5,6.3-1.7,9-0.6c2.3,1,4.4,2.8,7,3.3c4.7,0.9,9.7-1.4,10.7-6.1c0.3-1.7,0-4.2-1.9-4.8
			s-3.7-0.5-5,0.9c-0.8,1-0.6,2.4,0.3,3.2c0.1,0.1,0.3,0.2,0.4,0.3c2.2,1.1,3.5-3.5,5.5-1.1c0.2,0.3,0.9-0.2,0.6-0.5
			c-0.4-0.8-1.3-1.2-2.2-1c-1.3,0.2-3.4,3.7-4.3,0.9c-0.9-3,3.8-2.8,5.1-1.3c0.7,0.9,0.6,2.4,0.5,3.5c-0.3,3-3,4.9-5.8,5.5
			c-4.8,1-8.3-2.9-12.7-4c-2.7-0.7-6-0.6-7.9,1.6C16.5,8.7,17.3,8.8,17.6,8.6L17.6,8.6z"/>
		<path class="st0" d="M17.9,35.9c0.5-0.7,1-2.4-0.1-2.9c-0.4-0.2-0.8-0.3-1.2-0.3c-0.7,0-2,1.1-2.7,0.5c-1.4-1.3,1-4.9,3.5-2.8
			c1.1,1.1,1.4,2.8,0.9,4.2c-1,2.3-5.1,2.3-7.3,2.2c-5.3-0.2-9.6-4-8.8-9.3c0.9-5.8,7.8-9.5,13.5-8.1c0.3,0.1,1-0.4,0.5-0.5
			C10,17.4,3.1,21.1,1.5,27.1c-0.8,3.1,0.3,6.3,2.9,8.2c2.2,1.8,5.3,2.2,8,2.1c2.4-0.1,5-0.5,6.5-2.3s0.1-5.7-2.4-5.9
			c-1.9-0.1-3.8,1.1-3.7,3.2c0,0.8,0.4,1.6,1.3,1.7c0.4,0,0.9-0.1,1.2-0.3c2.7-1.1,2.5,0.9,1.8,2.1C16.9,36.2,17.7,36.2,17.9,35.9
			L17.9,35.9z"/>
		<path class="st0" d="M4.6,22.2c-2.1,2.4-1.2,5.4,0.1,8c1.6,3.3,5,5.3,5.8,9c0.5,2.2,0,4.5-1.4,6.3c-1.9,2.6-6.9,3.8-8.1,0
			c-0.1-0.5-0.1-1-0.1-1.5c1.7-2.7,3.7-1,3,0.4c-0.3,0.6-0.8,1.2-1.1,1.8c-0.6,1.1,0.1,1.7,1,2.2c0.3,0.2,1.3,0,0.9-0.2
			c-3.3-1.9,1.7-3.4,0.1-5.5c-0.9-1-2.4-1.2-3.5-0.4c-1.4,1.1-1.8,3-0.8,4.5c1.2,2.1,3.5,2,5.7,1.4c4.8-1.3,6.1-6.8,4.6-10.8
			C10,35.2,8,33.5,6.6,31.7c-1.9-2.5-3.7-6.8-1.4-9.5c0.3-0.4-0.3-0.4-0.5-0.1L4.6,22.2z"/>
		<path class="st0" d="M15.6,19.3c1.1,1.1,2.7,1.3,4,0.5c1.1-0.7,1.7-2,1.5-3.2c-0.3-1.4-2.1-1.9-3.3-1.4c-0.6,0.2-0.9,0.8-0.8,1.4
			c0,0.4,0.1,0.9,0.2,1.3c0,0.3,0,0.5-0.1,0.8c-0.1,0.5-0.4,0.5-0.8,0.2c-0.2-0.1-0.9,0.2-0.8,0.3c0.7,0.5,1.7,0.3,2.2-0.5
			c0.1-0.2,0.2-0.4,0.3-0.7c0.1-0.7-0.2-1.4-0.2-2c0.1-1,1.2-0.6,1.8-0.2c0.9,0.7,0.8,2,0.3,2.9c-0.2,0.5-0.7,1-1.2,1.2
			c-0.8,0.3-1.7-0.5-2.3-0.9C16.2,18.9,15.5,19.2,15.6,19.3L15.6,19.3z"/>
		<path class="st0" d="M18.1,20.3c1.1,0.3,2.2,0.3,3.3-0.2c1.1-0.5,2.8-3.5,3.7-1.2c1.2,3-4.9,2.1-6.2,1.1
			C18.7,19.8,18,20.2,18.1,20.3c1.7,1.3,6,1.7,7.6,0c0.8-0.9,0.2-2.8-1.1-2.7c-0.5,0-1.1,0.2-1.5,0.5s-0.7,0.6-1,0.9
			c-0.8,0.9-2,1.3-3.1,1C18.6,20,17.9,20.2,18.1,20.3L18.1,20.3z"/>
		<path class="st0" d="M16,19.7c1.1,0.6,2,1.7,1.6,3c-0.4,1-1.6,2.1-2.8,1.6c-0.6-0.3-1-0.8-1.1-1.4c-0.4-1,0.9-1.2,1.6-1.3
			c1.2-0.1,2.7-1.1,1.4-2.2C16.5,19.3,15.8,19.6,16,19.7c0.4,0.5,0.6,1,0,1.5c-0.4,0.3-1.2,0.3-1.6,0.4c-0.6,0-1.2,0.4-1.6,0.9
			c-0.3,0.6,0.4,1.5,0.9,2c0.5,0.3,1,0.5,1.6,0.4c1.2-0.1,2.3-0.8,3-1.8c0.9-1.4-0.1-2.8-1.4-3.5C16.6,19.3,15.9,19.6,16,19.7
			L16,19.7z"/>
		<path class="st0" d="M17.8,21.6c0.9,1.1,0.9,2.7,0.1,3.9c-0.4,0.6-0.7,1.3-0.7,2c0,1.2,2.1,1.1,2.9,0.8c2.7-1.2,0.3-5.8-1.4-6.9
			C18.4,21.2,17.7,21.5,17.8,21.6c1.6,1,3,4.1,2.4,5.9c-0.3,0.6-1,0.8-1.6,0.6c-0.2-0.1-0.4-0.3-0.6-0.6c-0.2-0.5,0.2-1.2,0.4-1.7
			c0.4-0.6,0.7-1.2,0.9-1.9c0.1-0.9-0.2-1.8-0.7-2.5C18.5,21.2,17.7,21.5,17.8,21.6z"/>
		<path class="st0" d="M20.6,21.4c1.2,0.2,2.4,0.8,3.3,1.6c0.4,0.4,0.6,1,0.6,1.5c0.2,1.5-1.1,1.6-2.2,1.1c-2.1-1-2.8-3.6-4.2-5.3
			c-0.2-0.2-1,0-0.8,0.3c1.5,1.9,3.3,7,6.7,5.7c1.4-0.5,1.5-1.7,1-3c-0.6-1.5-2.6-2-4-2.3C20.9,20.9,20.2,21.2,20.6,21.4L20.6,21.4z
			"/>
		<path class="st0" d="M14.1,17.3c-3-2.4-3.8-8.4,0-10.6l-0.8,0.1c0.3,2.2,0.8,3.6,0,5.9c-0.6,1.5-0.6,3.2,0,4.8
			C13.4,17.7,14.2,17.4,14.1,17.3c-0.8-2.1-0.1-4,0.5-6c0.5-1.6-0.2-3.1-0.4-4.6c0-0.2-0.7,0-0.8,0.1c-3.9,2.2-3.3,8.3-0.1,10.9
			C13.5,17.7,14.3,17.4,14.1,17.3L14.1,17.3z"/>
		<path class="st0" d="M14.4,17.5c-3-2.8-9.8-3-11.8,1.2c0,0.1,0.1,0.1,0.1,0.1C4.1,19,5.5,19,6.9,19c2.4-0.3,3.3-2.2,6.4-1.4
			c0.2,0.1,1-0.2,0.7-0.3c-4.8-1.4-6,1.7-9.4,1.3c-1.3-0.2-1.1-0.6-0.2-1.4c1.2-1.2,3-1.4,4.6-1.3c1.7,0.1,3.3,0.8,4.5,1.9
			C13.8,18,14.5,17.7,14.4,17.5L14.4,17.5z"/>
		<path class="st0" d="M13.5,16.6c-0.9-2-2-3.8-3.3-5.6C8.9,9.5,6.3,8.8,4.4,8.7C4.2,8.7,3.8,8.8,3.8,9c0.2,2.3,0.7,4.5,2.9,5.7
			c1.9,1,3.9,1.7,6,2.2c0.2,0,1-0.3,0.6-0.4c-1.9-0.5-3.8-1.2-5.6-2c-2.3-1.1-2.9-3.4-3.1-5.6L4,9.1c2.2,0.1,4.3,1.1,5.8,2.7
			c1.1,1.6,2,3.2,2.8,4.9C12.7,17,13.6,16.8,13.5,16.6L13.5,16.6z"/>
		<path class="st0" d="M11.6,18.9c1.3-0.3,2.5-1.3,0.9-2.6c0.7,0.2,1.5,0.4,2.2,0.5c0.5-0.1,0.1-0.8,0.5-1c0,0.8,0.2,1.7,0.6,2.4
			c0.3,0.4,0.5,0.9,0.5,1.4c-0.5-0.7-3.4-1.3-4.1-0.7"/>
		<line class="st1" x1="3.1" y1="48" x2="4.3" y2="48"/>
		<line class="st1" x1="43.6" y1="2.3" x2="43.6" y2="3.4"/>
		<rect x="3.6" y="47.9" class="st0" width="0.2" height="83.3"/>
		<rect x="43.7" y="2.8" class="st0" width="768.3" height="0.2"/>
		<path class="st0" d="M33.1,241.1c-1.7-1.2-2.6,0.2-2.1,1.3c0.1,0.3,0.2,0.6,0.3,0.9c0.1,0.4,0,0.8-0.3,1c-0.6,0.5-1.5,0.6-2.2,0.3
			c-2.3-0.8-3.5-2.9-1.6-4.8c1.6-1.3,3.8-1.4,5.6-0.3c2.1,1.6,1.9,4.4,1.7,6.6c-0.7,5.8-5.4,10.6-11.7,8.9s-9.5-9.7-6.8-15.4
			c0.1-0.3,1-0.1,0.9,0.2c-2.1,4.8-0.6,10.3,3.5,13.5c5.4,3.9,11.4,0.1,12.9-5.4c0.5-1.9,0.7-3.9,0.3-5.8c-0.8-4.3-8.1-2.7-6.1,1
			c0.8,1.2,3.4,1.6,3-0.3c-0.2-0.5-0.3-0.9-0.4-1.4c-0.1-0.6,0.5-1,0.9-1.3c0.9-0.6,2.3,0.3,3,0.8C34.3,241.3,33.4,241.4,33.1,241.1
			L33.1,241.1z"/>
		<path class="st0" d="M17.6,250.6c2.2,2.5,6.3,1.7,9,0.6c2.3-1,4.4-2.8,7-3.3c4.7-0.9,9.7,1.4,10.7,6.1c0.3,1.6,0,4.2-1.9,4.8
			c-1.7,0.8-3.7,0.4-5-0.9c-0.8-1-0.6-2.4,0.3-3.2c0.1-0.1,0.3-0.2,0.4-0.3c2.2-1.1,3.5,3.4,5.5,1.1c0.2-0.3,0.9,0.2,0.6,0.5
			c-0.4,0.8-1.3,1.2-2.2,1c-1.3-0.2-3.4-3.7-4.3-0.9c-0.9,3,3.8,2.9,5.1,1.3c0.7-0.9,0.6-2.4,0.5-3.4c-0.3-3-3-4.9-5.8-5.5
			c-4.8-1-8.3,3-12.7,4.1c-2.7,0.7-6,0.6-7.9-1.6C16.5,250.5,17.3,250.4,17.6,250.6L17.6,250.6z"/>
		<path class="st0" d="M17.9,223.2c0.5,0.7,1,2.4-0.1,2.9c-0.4,0.2-0.8,0.3-1.2,0.3c-0.7-0.1-2-1.1-2.7-0.5c-1.4,1.3,1,4.9,3.5,2.8
			c1.1-1.1,1.4-2.8,0.9-4.2c-1-2.3-5.1-2.3-7.3-2.2c-5.3,0.2-9.6,4-8.8,9.3c0.9,5.8,7.8,9.5,13.5,8.1c0.3-0.1,1,0.4,0.5,0.5
			c-6.2,1.6-13.1-2.1-14.8-8.1c-0.8-3.1,0.3-6.3,2.9-8.2c2.2-1.8,5.3-2.2,8-2.1c2.4,0.1,5,0.5,6.5,2.3s0.1,5.7-2.4,5.9
			c-1.9,0.1-3.8-1.1-3.7-3.2c0-0.8,0.4-1.6,1.3-1.7c0.4,0,0.8,0.1,1.2,0.3c2.7,1.1,2.5-0.9,1.8-2.1C16.9,223,17.7,223,17.9,223.2
			L17.9,223.2z"/>
		<path class="st0" d="M4.6,237c-2.1-2.4-1.2-5.4,0.1-8c1.6-3.3,5-5.3,5.8-9c0.5-2.2,0-4.5-1.4-6.4c-1.9-2.6-6.9-3.8-8.1,0
			c-0.1,0.5-0.1,1-0.1,1.5c1.7,2.7,3.7,1,3-0.4c-0.3-0.6-0.8-1.2-1.1-1.8c-0.6-1.1,0.1-1.7,1-2.2c0.3-0.2,1.3,0,0.9,0.2
			c-3.3,1.9,1.7,3.4,0.1,5.5c-0.9,1-2.4,1.2-3.5,0.4c-1.4-1.1-1.8-3-0.8-4.5c1.2-2.1,3.5-2,5.7-1.4c4.8,1.3,6.1,6.8,4.6,10.8
			c-0.9,2.2-2.9,3.8-4.3,5.6c-1.9,2.5-3.7,6.8-1.4,9.5C5.4,237.2,4.8,237.2,4.6,237L4.6,237z"/>
		<path class="st0" d="M15.6,239.9c1.1-1.1,2.7-1.3,4-0.6c1.1,0.7,1.7,2,1.5,3.2c-0.3,1.4-2.1,1.9-3.3,1.4c-0.6-0.2-0.9-0.8-0.8-1.4
			c0-0.4,0.1-0.9,0.2-1.3c0-0.3,0-0.5-0.1-0.8c-0.1-0.5-0.4-0.5-0.8-0.2C16.1,240.3,15.4,240,15.6,239.9c0.6-0.4,1.6-0.2,2.1,0.5
			c0.2,0.2,0.2,0.5,0.3,0.7c0.1,0.7-0.2,1.4-0.2,2c0.1,1,1.2,0.6,1.8,0.2c0.9-0.7,0.8-2.1,0.3-3c-0.2-0.5-0.7-1-1.2-1.2
			c-0.8-0.3-1.7,0.4-2.3,0.9C16.2,240.2,15.5,239.9,15.6,239.9L15.6,239.9z"/>
		<path class="st0" d="M18.1,238.9c1.1-0.3,2.2-0.3,3.3,0.2c1.1,0.5,2.8,3.5,3.7,1.2c1.2-3-4.9-2.1-6.2-1.1
			C18.7,239.3,18,239,18.1,238.9c1.7-1.3,6-1.7,7.6,0c0.8,0.9,0.2,2.8-1.1,2.7c-0.5,0-1.1-0.2-1.5-0.5s-0.7-0.6-1-0.9
			c-0.8-0.9-2-1.3-3.1-1C18.7,239.2,17.9,238.9,18.1,238.9L18.1,238.9z"/>
		<path class="st0" d="M16,239.5c1.1-0.6,2-1.7,1.6-3c-0.4-1-1.6-2.1-2.8-1.6c-0.6,0.3-1,0.8-1.1,1.4c-0.4,1.1,0.9,1.2,1.6,1.3
			c1.2,0.2,2.7,1.1,1.4,2.2C16.5,239.9,15.8,239.7,16,239.5c0.4-0.4,0.6-0.9,0-1.4c-0.4-0.3-1.2-0.3-1.6-0.4c-0.6,0-1.2-0.4-1.6-0.9
			c-0.3-0.6,0.4-1.6,0.9-2c0.5-0.3,1-0.4,1.6-0.4c1.2,0.1,2.3,0.8,3,1.8c0.9,1.4-0.1,2.8-1.4,3.5C16.6,239.8,15.9,239.5,16,239.5
			L16,239.5z"/>
		<path class="st0" d="M17.8,237.6c0.9-1.1,0.9-2.7,0.1-3.9c-0.4-0.6-0.7-1.3-0.7-2c0-1.3,2.1-1.2,2.9-0.8c2.7,1.2,0.3,5.8-1.4,6.9
			C18.4,237.9,17.7,237.6,17.8,237.6c1.6-1,3-4.1,2.4-5.9c-0.3-0.6-1-0.8-1.6-0.6c-0.2,0.1-0.4,0.3-0.6,0.6
			c-0.2,0.5,0.2,1.2,0.4,1.7c0.4,0.6,0.7,1.2,0.9,1.8c0.1,0.9-0.2,1.8-0.7,2.5C18.5,237.9,17.7,237.6,17.8,237.6L17.8,237.6z"/>
		<path class="st0" d="M20.6,237.8c1.2-0.2,2.4-0.8,3.3-1.6c0.4-0.4,0.6-1,0.6-1.5c0.2-1.5-1.1-1.6-2.2-1.1c-2.1,1-2.8,3.6-4.2,5.3
			c-0.2,0.2-1-0.1-0.8-0.3c1.5-1.9,3.3-7,6.7-5.7c1.4,0.5,1.5,1.8,1,3c-0.6,1.4-2.6,2-4,2.3C20.9,238.3,20.2,237.9,20.6,237.8
			L20.6,237.8z"/>
		<path class="st0" d="M14.1,241.8c-3,2.4-3.8,8.4,0,10.6l-0.8-0.1c0.3-2.2,0.8-3.6,0-5.9c-0.6-1.5-0.6-3.2,0-4.8
			C13.4,241.4,14.2,241.7,14.1,241.8c-0.8,2.1-0.1,4,0.5,6c0.5,1.6-0.2,3.1-0.4,4.6c0,0.2-0.7,0-0.8-0.1c-3.9-2.2-3.3-8.3-0.1-10.9
			C13.5,241.4,14.3,241.7,14.1,241.8L14.1,241.8z"/>
		<path class="st0" d="M14.4,241.6c-3,2.8-9.8,3-11.8-1.2c0-0.1,0.1-0.1,0.1-0.1c1.4-0.2,2.8-0.2,4.2-0.2c2.4,0.3,3.3,2.2,6.4,1.4
			c0.2,0,1,0.2,0.7,0.3c-4.8,1.4-6-1.7-9.4-1.3c-1.3,0.2-1.1,0.6-0.2,1.4c1.2,1.2,3,1.4,4.6,1.3c1.7-0.1,3.3-0.8,4.5-1.9
			C13.8,241.2,14.5,241.5,14.4,241.6z"/>
		<path class="st0" d="M13.5,242.6c-0.9,2-2,3.9-3.3,5.6c-1.3,1.5-3.8,2.1-5.7,2.2c-0.2,0-0.6-0.1-0.6-0.3c0.2-2.3,0.7-4.5,2.9-5.7
			c1.9-1,3.9-1.7,6-2.2C13,242.1,13.8,242.5,13.5,242.6c-2,0.5-3.9,1.2-5.7,2c-2.3,1.1-2.9,3.4-3.1,5.7L4.1,250
			c2.2-0.1,4.3-1,5.8-2.7c1.1-1.6,2-3.2,2.8-4.9C12.8,242.1,13.6,242.4,13.5,242.6L13.5,242.6z"/>
		<path class="st0" d="M11.6,240.2c1.3,0.3,2.5,1.3,0.9,2.6c0.7-0.2,1.5-0.4,2.2-0.5c0.5,0.1,0.1,0.8,0.5,1c0-0.8,0.2-1.7,0.6-2.4
			c0.3-0.4,0.5-0.9,0.5-1.4c-0.5,0.7-3.4,1.3-4.1,0.7"/>
		<line class="st1" x1="3.1" y1="211.2" x2="4.3" y2="211.2"/>
		<line class="st1" x1="43.6" y1="256.9" x2="43.6" y2="255.8"/>
		<rect x="3.6" y="128" class="st0" width="0.2" height="83.3"/>
		<rect x="43.7" y="256.1" class="st0" width="793.3" height="0.2"/>
		<path class="st0" d="M935.4,18c1.7,1.3,2.6-0.2,2.1-1.3c-0.1-0.3-0.2-0.6-0.3-0.9c-0.1-0.4,0-0.8,0.3-1c0.6-0.5,1.5-0.6,2.2-0.3
			c2.3,0.8,3.5,2.9,1.6,4.8c-1.6,1.3-3.8,1.4-5.6,0.3c-2.1-1.6-1.9-4.3-1.7-6.6c0.7-5.8,5.4-10.6,11.7-8.9s9.5,9.7,6.8,15.4
			c-0.2,0.3-1,0.1-0.9-0.2c2-4.8,0.6-10.3-3.5-13.5c-5.5-3.9-11.3-0.1-12.9,5.4c-0.5,1.9-0.7,3.8-0.3,5.8c0.8,4.3,8.1,2.7,6.1-1
			c-0.8-1.2-3.4-1.6-3,0.3c0.2,0.5,0.3,0.9,0.4,1.4c0.1,0.6-0.5,1-0.9,1.3c-0.9,0.5-2.3-0.3-3-0.8C934.2,17.9,935.1,17.8,935.4,18
			L935.4,18z"/>
		<path class="st0" d="M950.9,8.6c-2.2-2.5-6.3-1.7-9-0.6c-2.3,1-4.4,2.8-7,3.3c-4.7,0.9-9.7-1.4-10.7-6.1c-0.3-1.7,0-4.2,1.9-4.8
			s3.7-0.5,5,0.9c0.8,1,0.6,2.4-0.3,3.2c-0.1,0.1-0.3,0.2-0.4,0.3c-2.2,1.1-3.5-3.5-5.5-1.1c-0.2,0.3-0.9-0.2-0.6-0.5
			c0.4-0.8,1.3-1.2,2.2-1c1.3,0.2,3.4,3.7,4.3,0.9c0.9-3-3.8-2.8-5.1-1.3c-0.7,0.9-0.6,2.4-0.5,3.5c0.3,3,3,4.9,5.8,5.5
			c4.8,1,8.3-2.9,12.7-4c2.7-0.7,6-0.6,7.9,1.6C952,8.7,951.2,8.8,950.9,8.6L950.9,8.6z"/>
		<path class="st0" d="M950.6,35.9c-0.5-0.7-1-2.4,0.1-2.9c0.4-0.2,0.8-0.3,1.2-0.3c0.7,0,2,1.1,2.7,0.5c1.5-1.3-1-4.9-3.5-2.8
			c-1.1,1.1-1.4,2.8-0.9,4.2c1,2.3,5.2,2.3,7.3,2.2c5.3-0.2,9.6-4,8.8-9.3c-0.9-5.8-7.8-9.5-13.5-8.1c-0.3,0.1-1-0.4-0.5-0.5
			c6.2-1.5,13.1,2.1,14.8,8.1c0.8,3.1-0.3,6.3-2.9,8.2c-2.2,1.8-5.3,2.2-8,2.1c-2.3-0.1-5-0.5-6.5-2.3s-0.1-5.7,2.4-5.9
			c1.9-0.1,3.8,1.1,3.7,3.2c0,0.8-0.4,1.6-1.3,1.7c-0.4,0-0.9-0.1-1.2-0.3c-2.7-1.1-2.5,0.9-1.8,2.1
			C951.6,36.2,950.8,36.2,950.6,35.9L950.6,35.9z"/>
		<path class="st0" d="M964,22.2c2.1,2.4,1.2,5.4-0.1,8c-1.6,3.3-5,5.3-5.8,9c-0.5,2.2,0,4.5,1.4,6.3c1.9,2.6,6.9,3.8,8.1,0
			c0.1-0.5,0.1-1,0-1.5c-1.7-2.7-3.7-1-3,0.4c0.3,0.6,0.8,1.2,1.2,1.8c0.6,1.1-0.1,1.7-1,2.2c-0.3,0.2-1.3,0-0.9-0.2
			c3.3-1.9-1.7-3.4-0.1-5.5c0.9-1,2.4-1.2,3.5-0.4c1.4,1.1,1.8,3,0.8,4.5c-1.2,2.1-3.5,2-5.7,1.4c-4.8-1.3-6.1-6.8-4.6-10.8
			c0.8-2.2,2.8-3.8,4.3-5.7c1.9-2.5,3.7-6.8,1.4-9.5c-0.3-0.4,0.3-0.4,0.5-0.1L964,22.2z"/>
		<path class="st0" d="M952.9,19.3c-1.1,1.1-2.7,1.3-4,0.5c-1.1-0.7-1.7-2-1.5-3.2c0.3-1.4,2.1-1.9,3.3-1.4c0.6,0.2,0.9,0.8,0.8,1.4
			c0,0.4-0.1,0.9-0.2,1.3c0,0.3,0,0.5,0.1,0.8c0.1,0.5,0.3,0.5,0.8,0.2c0.2-0.1,0.9,0.2,0.8,0.3c-0.7,0.5-1.7,0.3-2.2-0.4
			c-0.2-0.2-0.3-0.5-0.3-0.7c-0.1-0.7,0.2-1.4,0.2-2c-0.1-1-1.2-0.6-1.8-0.2c-0.9,0.7-0.8,2-0.3,2.9c0.2,0.5,0.7,1,1.2,1.2
			c0.8,0.3,1.7-0.5,2.3-0.9C952.2,18.9,953,19.2,952.9,19.3L952.9,19.3z"/>
		<path class="st0" d="M950.4,20.3c-1.1,0.3-2.2,0.3-3.3-0.2s-2.8-3.5-3.7-1.2c-1.2,3,4.9,2.1,6.2,1.1
			C949.8,19.8,950.5,20.2,950.4,20.3c-1.7,1.3-6,1.7-7.6,0c-0.8-0.9-0.2-2.8,1.1-2.7c0.5,0,1.1,0.2,1.5,0.5s0.7,0.6,1,0.9
			c0.8,0.9,2,1.3,3.2,1C949.8,20,950.6,20.2,950.4,20.3L950.4,20.3z"/>
		<path class="st0" d="M952.5,19.7c-1.1,0.6-2,1.7-1.6,3c0.3,1,1.6,2.1,2.8,1.6c0.6-0.3,1-0.8,1.1-1.4c0.4-1-0.9-1.2-1.6-1.3
			c-1.2-0.1-2.7-1.1-1.4-2.2C952,19.3,952.7,19.6,952.5,19.7c-0.4,0.5-0.6,1,0,1.5c0.4,0.3,1.2,0.3,1.6,0.4c0.6,0,1.2,0.4,1.6,0.9
			c0.3,0.6-0.4,1.5-0.9,2c-0.5,0.3-1,0.5-1.6,0.4c-1.2-0.1-2.3-0.8-3-1.8c-0.9-1.4,0.2-2.8,1.4-3.5
			C951.9,19.3,952.5,19.6,952.5,19.7L952.5,19.7z"/>
		<path class="st0" d="M950.8,21.6c-0.9,1.1-0.9,2.7-0.1,3.9c0.4,0.6,0.7,1.3,0.7,2c0,1.2-2.1,1.1-2.9,0.8c-2.7-1.2-0.3-5.8,1.4-6.9
			C950.1,21.2,950.8,21.5,950.8,21.6c-1.6,1-3,4.1-2.4,5.9c0.3,0.6,1,0.8,1.6,0.6c0.2-0.1,0.4-0.3,0.6-0.6c0.2-0.5-0.2-1.2-0.4-1.7
			c-0.4-0.6-0.7-1.2-0.9-1.9c-0.1-0.9,0.2-1.8,0.7-2.5C950,21.2,950.8,21.5,950.8,21.6L950.8,21.6z"/>
		<path class="st0" d="M947.9,21.4c-1.2,0.2-2.4,0.8-3.3,1.6c-0.4,0.4-0.6,1-0.7,1.5c-0.2,1.5,1.1,1.6,2.2,1.1
			c2.1-1,2.8-3.6,4.2-5.3c0.2-0.2,1,0,0.8,0.3c-1.5,1.9-3.3,7-6.7,5.7c-1.4-0.5-1.5-1.7-1-3c0.6-1.5,2.6-2,4-2.3
			C947.6,20.9,948.3,21.2,947.9,21.4L947.9,21.4z"/>
		<path class="st0" d="M954.4,17.3c3-2.4,3.8-8.4,0-10.6l0.8,0.1c-0.3,2.2-0.8,3.6,0,5.9c0.6,1.5,0.6,3.2,0,4.8
			C955.1,17.7,954.3,17.4,954.4,17.3c0.8-2.2,0.2-4.1-0.5-6.1c-0.5-1.6,0.2-3.1,0.4-4.6c0-0.2,0.7,0,0.8,0.1
			c3.9,2.2,3.3,8.3,0.1,10.9C955,17.7,954.3,17.4,954.4,17.3L954.4,17.3z"/>
		<path class="st0" d="M954.1,17.5c3-2.8,9.8-3,11.8,1.2c0,0.1-0.1,0.1-0.1,0.1c-1.4,0.2-2.8,0.2-4.2,0.2c-2.4-0.3-3.3-2.2-6.4-1.4
			c-0.2,0.1-1-0.2-0.7-0.3c4.8-1.4,6,1.7,9.4,1.3c1.3-0.2,1.1-0.6,0.2-1.4c-1.2-1.2-3-1.4-4.6-1.3c-1.7,0.1-3.3,0.8-4.5,1.9
			C954.7,17.9,954,17.6,954.1,17.5L954.1,17.5z"/>
		<path class="st0" d="M955,16.6c0.9-2,2-3.8,3.3-5.6c1.3-1.5,3.8-2.1,5.7-2.2c0.2,0,0.6,0.1,0.6,0.3c-0.2,2.3-0.7,4.5-2.9,5.7
			c-1.9,1-3.9,1.7-6,2.2c-0.2,0-1-0.3-0.5-0.4c1.9-0.5,3.8-1.2,5.6-2c2.3-1.1,2.9-3.4,3.1-5.6l0.6,0.3c-2.2,0.1-4.3,1.1-5.8,2.7
			c-1.1,1.6-2,3.2-2.8,4.9C955.8,17.1,954.9,16.8,955,16.6L955,16.6z"/>
		<path class="st0" d="M956.9,18.9c-1.3-0.3-2.5-1.3-0.9-2.6c-0.7,0.2-1.5,0.4-2.2,0.5c-0.5-0.1-0.1-0.8-0.5-1
			c0,0.8-0.2,1.7-0.6,2.4c-0.3,0.4-0.5,0.9-0.5,1.4c0.5-0.7,3.4-1.3,4.1-0.7"/>
		<line class="st1" x1="965.4" y1="48" x2="964.2" y2="48"/>
		<line class="st1" x1="924.9" y1="2.3" x2="924.9" y2="3.4"/>
		<rect x="964.7" y="47.9" class="st0" width="0.2" height="83.3"/>
		<rect x="811" y="2.8" class="st0" width="113.8" height="0.2"/>
		<path class="st0" d="M935.4,241.1c1.7-1.2,2.6,0.2,2.1,1.3c-0.1,0.3-0.2,0.6-0.3,0.9c-0.1,0.4,0,0.8,0.3,1
			c0.6,0.5,1.5,0.6,2.2,0.3c2.3-0.8,3.5-2.9,1.6-4.8c-1.6-1.3-3.8-1.4-5.6-0.3c-2.1,1.6-1.9,4.4-1.7,6.6c0.7,5.8,5.4,10.6,11.7,8.9
			s9.5-9.7,6.8-15.4c-0.2-0.3-1-0.1-0.9,0.2c2.1,4.8,0.6,10.3-3.5,13.5c-5.5,3.9-11.3,0.1-12.9-5.4c-0.5-1.9-0.7-3.9-0.3-5.8
			c0.8-4.3,8.1-2.7,6.1,1c-0.8,1.2-3.4,1.6-3-0.3c0.2-0.5,0.3-0.9,0.4-1.4c0.1-0.6-0.5-1-0.9-1.3c-0.9-0.6-2.3,0.3-3,0.8
			C934.2,241.3,935.1,241.4,935.4,241.1L935.4,241.1z"/>
		<path class="st0" d="M950.9,250.6c-2.2,2.5-6.3,1.7-9,0.6c-2.3-1-4.4-2.8-7-3.3c-4.7-0.9-9.7,1.4-10.7,6.1c-0.3,1.6,0,4.2,1.9,4.8
			c1.7,0.8,3.7,0.4,5-0.9c0.8-1,0.6-2.4-0.3-3.2c-0.1-0.1-0.3-0.2-0.4-0.3c-2.2-1.1-3.5,3.4-5.5,1.1c-0.2-0.3-0.9,0.2-0.6,0.5
			c0.4,0.8,1.3,1.2,2.2,1c1.3-0.2,3.4-3.7,4.3-0.9c0.9,3-3.8,2.9-5.1,1.3c-0.7-0.9-0.6-2.4-0.5-3.4c0.3-3,3-4.9,5.8-5.5
			c4.8-1,8.3,3,12.7,4.1c2.7,0.7,6,0.6,7.9-1.6C952,250.5,951.2,250.4,950.9,250.6L950.9,250.6z"/>
		<path class="st0" d="M950.6,223.2c-0.5,0.7-1,2.4,0.1,2.9c0.4,0.2,0.8,0.3,1.2,0.3c0.7-0.1,2-1.1,2.7-0.5c1.5,1.3-1,4.9-3.5,2.8
			c-1.1-1.1-1.4-2.8-0.9-4.2c1-2.3,5.2-2.3,7.3-2.2c5.3,0.2,9.6,4,8.8,9.3c-0.9,5.8-7.8,9.5-13.5,8.1c-0.3-0.1-1,0.4-0.5,0.5
			c6.2,1.6,13.1-2.1,14.8-8.1c0.8-3.1-0.3-6.3-2.9-8.2c-2.2-1.8-5.3-2.2-8-2.1c-2.3,0.1-5,0.5-6.5,2.3s-0.1,5.7,2.4,5.9
			c1.9,0.1,3.8-1.1,3.7-3.2c0-0.8-0.4-1.6-1.3-1.7c-0.4,0-0.8,0.1-1.2,0.3c-2.7,1.1-2.5-0.9-1.8-2.1
			C951.6,222.9,950.8,223,950.6,223.2L950.6,223.2z"/>
		<path class="st0" d="M964,237c2.1-2.4,1.2-5.4-0.1-8c-1.6-3.3-5-5.3-5.8-9c-0.5-2.2,0-4.5,1.4-6.4c1.9-2.6,6.9-3.8,8.1,0
			c0.1,0.5,0.1,1,0,1.5c-1.7,2.7-3.7,1-3-0.4c0.3-0.6,0.8-1.2,1.2-1.8c0.6-1.1-0.1-1.7-1-2.2c-0.3-0.2-1.3,0-0.9,0.2
			c3.3,1.9-1.7,3.4-0.1,5.5c0.9,1,2.4,1.2,3.5,0.4c1.4-1.1,1.8-3,0.8-4.5c-1.2-2.1-3.5-2-5.7-1.4c-4.8,1.3-6.1,6.8-4.6,10.8
			c0.8,2.2,2.8,3.8,4.3,5.7c1.9,2.5,3.7,6.8,1.4,9.5C963.2,237.3,963.8,237.3,964,237L964,237z"/>
		<path class="st0" d="M952.9,239.9c-1.1-1.1-2.7-1.3-4-0.6c-1.1,0.7-1.7,2-1.5,3.2c0.3,1.4,2.1,1.9,3.3,1.4
			c0.6-0.2,0.9-0.8,0.8-1.4c0-0.4-0.1-0.9-0.2-1.3c0-0.3,0-0.5,0.1-0.8c0.1-0.5,0.3-0.5,0.8-0.2C952.4,240.3,953.1,240,952.9,239.9
			c-0.6-0.4-1.6-0.3-2.1,0.4c-0.2,0.2-0.3,0.5-0.3,0.8c-0.1,0.7,0.2,1.4,0.2,2c-0.1,1-1.2,0.6-1.8,0.2c-0.9-0.7-0.8-2.1-0.3-3
			c0.2-0.5,0.7-1,1.2-1.2c0.8-0.3,1.7,0.4,2.3,0.9C952.2,240.2,953,239.9,952.9,239.9L952.9,239.9z"/>
		<path class="st0" d="M950.4,238.9c-1.1-0.3-2.2-0.3-3.3,0.2s-2.8,3.5-3.7,1.2c-1.2-3,4.9-2.1,6.2-1.1
			C949.8,239.3,950.5,239,950.4,238.9c-1.7-1.3-6-1.7-7.6,0c-0.8,0.9-0.2,2.8,1.1,2.7c0.5,0,1.1-0.2,1.5-0.5s0.7-0.6,1-0.9
			c0.8-0.9,2-1.3,3.2-1C949.8,239.2,950.6,238.9,950.4,238.9L950.4,238.9z"/>
		<path class="st0" d="M952.5,239.5c-1.1-0.6-2-1.7-1.6-3c0.3-1,1.6-2.1,2.8-1.6c0.6,0.3,1,0.8,1.1,1.4c0.4,1.1-0.9,1.2-1.6,1.3
			c-1.2,0.2-2.7,1.1-1.4,2.2C952,239.9,952.7,239.7,952.5,239.5c-0.4-0.4-0.6-0.9,0-1.4c0.4-0.3,1.2-0.3,1.6-0.4
			c0.6,0,1.2-0.4,1.6-0.9c0.3-0.6-0.4-1.6-0.9-2c-0.5-0.3-1-0.4-1.6-0.4c-1.2,0.1-2.3,0.8-3,1.8c-0.9,1.4,0.2,2.8,1.4,3.5
			C951.9,239.8,952.5,239.5,952.5,239.5L952.5,239.5z"/>
		<path class="st0" d="M950.8,237.6c-0.9-1.1-0.9-2.7-0.1-3.9c0.4-0.6,0.7-1.3,0.7-2c0-1.3-2.1-1.2-2.9-0.8
			c-2.7,1.2-0.3,5.8,1.4,6.9C950.1,237.9,950.8,237.6,950.8,237.6c-1.6-1-3-4.1-2.4-5.9c0.3-0.6,1-0.8,1.6-0.6
			c0.2,0.1,0.4,0.3,0.6,0.6c0.2,0.5-0.2,1.2-0.4,1.7c-0.4,0.6-0.7,1.2-0.9,1.8c-0.1,0.9,0.2,1.8,0.7,2.5
			C950,237.9,950.8,237.6,950.8,237.6L950.8,237.6z"/>
		<path class="st0" d="M947.9,237.8c-1.2-0.2-2.4-0.8-3.3-1.6c-0.4-0.4-0.6-1-0.7-1.5c-0.2-1.5,1.1-1.6,2.2-1.1
			c2.1,1,2.8,3.6,4.2,5.3c0.2,0.2,1-0.1,0.8-0.3c-1.5-1.9-3.3-7-6.7-5.7c-1.4,0.5-1.5,1.8-1,3c0.6,1.4,2.6,2,4,2.3
			C947.6,238.3,948.3,237.9,947.9,237.8L947.9,237.8z"/>
		<path class="st0" d="M954.4,241.8c3,2.4,3.8,8.4,0,10.6l0.8-0.1c-0.3-2.2-0.8-3.6,0-5.9c0.6-1.5,0.6-3.2,0-4.8
			C955.1,241.5,954.3,241.8,954.4,241.8c0.8,2.2,0.2,4.1-0.5,6.1c-0.5,1.6,0.2,3.1,0.4,4.6c0,0.2,0.7,0,0.8-0.1
			c3.9-2.2,3.3-8.3,0.1-10.9C955,241.4,954.3,241.7,954.4,241.8L954.4,241.8z"/>
		<path class="st0" d="M954.1,241.6c3,2.8,9.8,3,11.8-1.2c0-0.1-0.1-0.1-0.1-0.1c-1.4-0.2-2.8-0.2-4.2-0.2c-2.4,0.3-3.3,2.2-6.4,1.4
			c-0.2,0-1,0.2-0.7,0.3c4.8,1.4,6-1.7,9.4-1.3c1.3,0.2,1.1,0.6,0.2,1.4c-1.2,1.2-3,1.4-4.6,1.3c-1.7-0.1-3.3-0.8-4.5-1.9
			C954.7,241.2,954,241.5,954.1,241.6L954.1,241.6z"/>
		<path class="st0" d="M955,242.6c0.9,2,2,3.9,3.3,5.6c1.3,1.5,3.8,2.1,5.7,2.2c0.2,0,0.6-0.1,0.6-0.3c-0.2-2.3-0.7-4.5-2.9-5.7
			c-1.9-1-3.9-1.7-6-2.2c-0.2-0.1-1,0.3-0.5,0.4c1.9,0.5,3.8,1.2,5.6,2c2.3,1.1,2.9,3.4,3.1,5.7l0.6-0.3c-2.2-0.1-4.3-1-5.8-2.7
			c-1.1-1.6-2-3.2-2.8-4.9C955.8,242.1,954.9,242.4,955,242.6L955,242.6z"/>
		<path class="st0" d="M956.9,240.2c-1.3,0.3-2.5,1.3-0.9,2.6c-0.7-0.2-1.5-0.4-2.2-0.5c-0.5,0.1-0.1,0.8-0.5,1
			c0-0.8-0.2-1.7-0.6-2.4c-0.3-0.4-0.5-0.9-0.5-1.4c0.5,0.7,3.4,1.3,4.1,0.7"/>
		<line class="st1" x1="965.4" y1="211.2" x2="964.2" y2="211.2"/>
		<line class="st1" x1="924.9" y1="256.9" x2="924.9" y2="255.8"/>
		<rect x="964.7" y="128" class="st0" width="0.2" height="83.3"/>
		<rect x="811" y="256.1" class="st0" width="113.8" height="0.2"/>
	</g>
</g>
<rect x="3.3" y="47.9" class="st0" width="1" height="163.4"/>
<rect x="43.7" y="2.5" class="st0" width="881.2" height="1"/>
<rect x="964.2" y="47.9" class="st0" width="1" height="163.4"/>
<rect x="43.7" y="255.6" class="st0" width="881.2" height="1"/>
</svg>
