<?xml version="1.0" encoding="utf-8"?>
<!-- Generator: Adobe Illustrator 23.1.1, SVG Export Plug-In . SVG Version: 6.00 Build 0)  -->
<svg version="1.1" id="レイヤー_1" xmlns="http://www.w3.org/2000/svg" xmlns:xlink="http://www.w3.org/1999/xlink" x="0px"
	 y="0px" width="214.2px" height="22.5px" viewBox="0 0 214.2 22.5" style="enable-background:new 0 0 214.2 22.5;"
	 xml:space="preserve">
<style type="text/css">
	.st0{fill:#FFFFFF;}
</style>
<title>detail</title>
<g>
	<path class="st0" d="M12.1,22.8c0.6,0,2.4-2,2.4-2.7c0-0.7-9.2-7.1-9.2-7.6c0-0.5,9.2-7.3,9.2-7.9c0-0.6-3-3.3-3.5-3.3
		C10.4,1.4,0.7,12,0.7,12.7C0.7,13.3,11.4,22.8,12.1,22.8z"/>
</g>
<g>
	<path class="st0" d="M30.5,11.1l0-1.3c0-0.3-0.1-0.5-0.2-0.7l-0.1-0.1l-0.1-0.1c-0.5-0.2-1.1-0.3-1.7-0.4c-0.5,0-1.1,0-1.6-0.1
		h-0.8c-0.3,0-0.5,0-0.8,0.1l-0.3,0l-0.1-0.1l-0.2,0c-0.3,0-0.6,0-0.8,0.1c-0.1,0.1-0.3,0.2-0.4,0.3c-0.2,0.2-0.3,0.4-0.4,0.6
		l-0.1,0.5l0.1,0.3c-0.1,1.7-0.2,3.4-0.4,5c-0.2,1.7-0.4,3.4-0.5,5.2l0,0.8l0,0.1c0.1,0.2,0.2,0.3,0.3,0.5c0.1,0.1,0.3,0.2,0.5,0.3
		l0.2,0c0.1,0,0.3,0,0.4,0c0.2,0,0.3-0.1,0.5-0.2l0.2-0.1l0-0.2c0.2-0.7,0.3-1.5,0.3-2.2c0-0.6,0.1-1.1,0.2-1.6l0.3-0.1l1.1,0l0.6,0
		c0.3,0,0.6,0,0.9,0c0.2,0,0.5,0,0.7,0.1v2.3l0,0C28.1,20,28,20,27.8,20l-0.5,0l-0.2,0c-0.2,0.1-0.3,0.2-0.5,0.3
		c-0.1,0.1-0.2,0.3-0.3,0.5l0,0.5c0,0.2,0,0.4,0.3,0.6l0.1,0.1c0.4,0.2,0.9,0.4,1.4,0.4c0.4,0.1,0.7,0.1,1.1,0.3l0.1,0l0.5-0.1
		c0.2-0.1,0.3-0.2,0.5-0.3s0.2-0.3,0.3-0.5l0-7.8l0,0l0-2L30.5,11.1z M28.3,14.5l0,1l-0.6-0.1l-2.8,0l0.1-1.2c0.5,0,0.9,0.1,1.4,0.1
		c0.6,0,1.2,0.1,1.8,0.1L28.3,14.5L28.3,14.5z M28.4,12.2c-0.5-0.1-1-0.1-1.5-0.1c-0.5,0-1,0-1.6-0.1c0-0.2,0-0.4,0.1-0.6
		c0-0.2,0.1-0.5,0.1-0.8l0.3,0l2.6,0.1l0.1,1.3V12.2z"/>
	<path class="st0" d="M33.9,16.6c0.1-1.1,0.3-2.2,0.3-3.2c0.1-1.1,0.2-2.2,0.2-3.3l-0.1-0.8l-0.7-0.6h-0.2c-0.1,0-0.3,0-0.4,0
		c-0.2,0-0.3,0.1-0.5,0.2L32.4,9l0,0.2c-0.2,1.1-0.3,2.2-0.4,3.3c-0.1,1.1-0.1,2.2-0.2,3.3l0,0.1l0.3,0.9l0.9,0.5l0.9-0.4L33.9,16.6
		z"/>
	<path class="st0" d="M40.4,6.6c-0.3-0.3-0.6-0.4-1.1-0.4c-0.2,0-0.4,0-0.6,0l-0.1,0l-2.1,0L34,6.1c0.1-0.2,0.1-0.3,0.2-0.5
		c0.2-0.3,0.4-0.7,0.6-1c0.2-0.3,0.4-0.7,0.7-0.9l0.1-0.1V2.8l-0.1-0.1c-0.1-0.2-0.2-0.3-0.3-0.4c-0.1-0.1-0.2-0.2-0.4-0.3l-0.1-0.1
		h-0.4c-0.2,0-0.4,0-0.7,0.3c-0.4,0.5-0.7,1-1.1,1.6c-0.3,0.5-0.6,1.1-0.9,1.6l-0.1,0.1V6h-0.1c-0.3,0-0.6,0-0.9,0.1L28.9,6
		c-0.2-0.5-0.4-1-0.7-1.5C28,4,27.7,3.4,27.6,2.8c-0.1-0.2-0.2-0.3-0.3-0.5S27,2.1,26.9,2l-0.2,0c-0.1,0-0.3,0-0.4,0
		c-0.2,0-0.3,0.1-0.5,0.2l-0.1,0.1L25.4,3l0,0.2c0.1,0.6,0.3,1.2,0.5,1.8c0.1,0.3,0.3,0.6,0.4,0.9l-3.2,0l-0.8,0l-0.1,0
		C22.1,6,22,6.1,21.8,6.2c-0.1,0.1-0.2,0.3-0.3,0.5l0,0.2c0,0.1,0,0.3,0,0.4c0,0.2,0.1,0.3,0.2,0.5l0.1,0.1l0.7,0.4l4.4-0.1l0.3,0.1
		l2.3,0l0.9,0.1l0.6-0.1l2.1,0c1,0.1,1.9,0.2,2.8,0.2c0.3,0,0.7,0,1,0c-0.2,0.3-0.4,0.6-0.4,1c0,0.3,0,0.5,0,0.9
		c0.1,0.7,0.1,1.4,0.1,2.1c0,0.7,0.1,1.5,0.1,2.1l0,1.3l0.1,0.7l0,3.2c-0.1,0-0.3-0.1-0.4-0.2c-0.4-0.2-0.7-0.3-1.1-0.5
		c-0.2-0.1-0.4,0-0.6,0c-0.1,0.1-0.3,0.1-0.4,0.2l-0.1,0.1L33.8,20v0.1c0,0.1,0,0.3,0,0.4c0,0.2,0.1,0.3,0.2,0.5l0.1,0.1l0.1,0.1
		c0.4,0.2,0.9,0.5,1.4,0.7c0.5,0.2,1,0.4,1.5,0.5l0.1,0c0.2,0,0.4,0,0.6,0c0.3,0,0.5-0.1,0.8-0.2c0.3-0.2,0.4-0.5,0.4-0.6
		c0-0.1,0-0.2,0.1-0.3l0-4.4l-0.1-0.4l0-0.4l-0.1-2.4c0-0.8-0.1-1.6-0.1-2.4c0-0.2,0-0.5,0-0.8c0-0.2,0-0.5,0.1-0.7l0-0.6l0-0.2
		c0-0.1-0.1-0.2-0.1-0.3l0,0l1.2-0.1l0.1,0c0.2-0.1,0.3-0.2,0.5-0.3c0.1-0.1,0.2-0.3,0.3-0.5l0-0.2c0-0.1,0-0.3,0-0.4
		C40.7,7,40.6,6.8,40.4,6.6z"/>
	<path class="st0" d="M59.4,8.2c-0.8-0.9-1.7-1.6-2.7-2c-1-0.4-2.1-0.7-3.2-0.8l-2.1,0c-1.1,0.1-2.2,0.4-3.1,0.9
		c-0.9,0.5-1.8,1.2-2.5,2c-0.9,0.8-1.5,1.7-1.9,2.7c-0.4,1-0.6,2-0.7,3.1c0,0.8,0,1.7,0.2,2.4c0.1,0.8,0.5,1.6,1.1,2.3
		c0.3,0.4,0.6,0.7,1,0.9c0.4,0.2,0.8,0.4,1.2,0.5l0.1,0c0.5,0,1-0.1,1.4-0.2c0.5-0.1,0.9-0.3,1.3-0.6l0.1-0.1
		c1.4-1.8,2.3-3.7,2.8-5.8c0.5-1.9,0.9-3.8,1.1-5.7C54,7.7,54.6,7.8,55.1,8c0.6,0.2,1.2,0.5,1.8,0.9c0.8,0.6,1.2,1.2,1.4,2
		c0.2,0.9,0.3,1.8,0.3,2.7c0.1,0.8,0,1.7-0.2,2.4c-0.2,0.8-0.4,1.6-0.8,2.3l0,0.7l0,0.2c0.1,0.2,0.2,0.3,0.3,0.5
		c0.1,0.1,0.3,0.2,0.5,0.3l0.2,0c0.1,0,0.3,0,0.4,0c0.2,0,0.3-0.1,0.5-0.2l0.1-0.1l0.1-0.1c0.4-0.7,0.6-1.4,0.9-2.2
		c0.2-0.8,0.3-1.6,0.4-2.4c0-1.2,0-2.3-0.1-3.4C60.6,10.3,60.2,9.2,59.4,8.2z M51.1,7.6c-0.2,1.7-0.5,3.3-0.9,5
		C49.8,14.3,49,16,48,17.5l-0.8,0.3c-0.1,0-0.2,0-0.3,0c-0.1-0.1-0.3-0.2-0.4-0.2c-0.4-0.3-0.6-0.7-0.8-1.1
		c-0.2-0.4-0.2-0.9-0.3-1.4c0-0.9,0.1-1.8,0.3-2.6c0.2-0.8,0.6-1.5,1.1-2.2C47.5,9.6,48.3,9,49,8.5C49.7,8,50.4,7.7,51.1,7.6z"/>
	<path class="st0" d="M78.6,11.8c-1.7-1.3-3.4-2.5-5.2-3.6c-0.2-0.1-0.4-0.2-0.6-0.4c-0.2-0.2-0.5-0.4-0.7-0.6l-0.1-0.1h-0.2
		c-0.1,0-0.3,0-0.4,0c-0.2,0-0.3,0.1-0.5,0.2c-1,1-2,2.1-3,3.2c-1,1.1-1.9,2.2-2.7,3.3L65,14v0.5l0,0.2c0.1,0.2,0.2,0.3,0.3,0.5
		c0.1,0.1,0.3,0.2,0.5,0.3l0.8,0l0.1-0.2c0.8-0.9,1.6-1.9,2.5-2.9c0.8-0.9,1.6-1.7,2.4-2.5c1.8,1.1,3.6,2.2,5.2,3.5
		c1.8,1.4,3.6,2.8,5.3,4.3l0.1,0.1h0.6l0.1,0c0.2-0.1,0.3-0.2,0.5-0.3c0.1-0.1,0.2-0.3,0.3-0.5l0-0.5c0-0.2,0-0.4-0.3-0.7
		C81.8,14.4,80.2,13.1,78.6,11.8z"/>
	<path class="st0" d="M77.3,9c0.3,0.4,0.7,0.6,1.1,0.7c0.4,0.1,0.8,0.2,1.2,0.2c0.4,0,0.8-0.1,1.1-0.3c0.3-0.2,0.5-0.3,0.8-0.6
		c0.2-0.2,0.4-0.5,0.5-0.8l0.2-0.8c0-0.4,0-0.9,0-1.3c-0.1-0.5-0.2-0.9-0.5-1.2c-0.3-0.3-0.6-0.6-0.9-0.7c-0.3-0.1-0.7-0.2-1-0.3
		c-0.4,0-0.8,0-1.1,0c-0.4,0.1-0.8,0.3-1.1,0.5c-0.3,0.3-0.5,0.6-0.7,0.9c-0.2,0.3-0.3,0.7-0.3,1.1c0,0.5,0.1,0.9,0.2,1.3
		C76.8,8.3,77,8.7,77.3,9z M78.7,6.8c0-0.1,0.1-0.2,0.1-0.3l0.3-0.2c0.1,0,0.3,0,0.4,0c0.1,0,0.2,0.1,0.3,0.1l0.1,0.2v0.6
		c0,0.1,0,0.2,0,0.3l-0.1,0c-0.1,0-0.3,0-0.4,0.1L79,7.5c-0.1-0.1-0.1-0.2-0.2-0.3C78.8,7.1,78.7,7,78.7,6.8z"/>
	<path class="st0" d="M106.3,12l-0.7-0.5h-1.9l-0.2,0c-0.1,0-0.4,0-0.5,0.1l-2.3-0.1l-5.2,0l-2.2,0.1l-1.7,0l-1.4-0.1h-3.1l-0.4,0.3
		c-0.2,0.1-0.3,0.3-0.4,0.6l0,0.5l0,0.2c0.1,0.2,0.2,0.3,0.3,0.5c0.1,0.1,0.3,0.2,0.5,0.3l0.1,0l3,0l1.4,0.1l1.8,0l2.2-0.1l5.2,0
		l2.3,0.2l0.1,0c0.1,0,0.3,0,0.4-0.1c0.2,0,0.4-0.1,0.5-0.1h1.6l0.2,0c0.2-0.1,0.3-0.2,0.5-0.3c0.1-0.1,0.2-0.3,0.3-0.5l0-0.2
		c0-0.1,0-0.3,0-0.4C106.5,12.3,106.4,12.1,106.3,12z"/>
	<path class="st0" d="M122.5,5.3c0.2,0.5,0.3,1,0.4,1.5l0,0.2l0.7,0.6h0.6l0.1,0c0.2-0.1,0.3-0.2,0.5-0.3c0.1-0.1,0.2-0.3,0.3-0.5
		l0-0.1l0-0.1c-0.1-0.5-0.2-1.1-0.4-1.6c-0.1-0.5-0.3-1-0.4-1.5c-0.1-0.2-0.2-0.3-0.3-0.5c-0.1-0.1-0.3-0.2-0.5-0.3l-0.5,0l-0.2,0
		c-0.2,0.1-0.3,0.2-0.5,0.3c-0.1,0.1-0.2,0.3-0.3,0.5l0,0.1l0,0.1C122.2,4.2,122.3,4.8,122.5,5.3z"/>
	<path class="st0" d="M112.7,5.9l2.2,1.4c0.7,0.4,1.4,0.8,2.2,1.1l0.6,0l0.1,0c0.2-0.1,0.3-0.2,0.5-0.3c0.1-0.1,0.2-0.3,0.3-0.5
		l0-0.2c0-0.1,0-0.3,0-0.4c0-0.2-0.1-0.3-0.2-0.5l-0.1-0.1l-0.1-0.1c-0.7-0.4-1.4-0.7-2-1.1c-0.7-0.4-1.3-0.8-2-1.2L114,4.1
		c-0.2,0-0.4,0-0.6,0c-0.2,0-0.4,0.1-0.6,0.3L112.5,5v0.1c0,0.1,0,0.3,0,0.4C112.6,5.6,112.6,5.8,112.7,5.9z"/>
	<path class="st0" d="M127.3,4.6c-0.1-0.4-0.2-0.9-0.3-1.5c-0.1-0.2-0.2-0.3-0.3-0.5c-0.1-0.1-0.3-0.2-0.5-0.3l-0.2,0
		c-0.1,0-0.3,0-0.4,0c-0.2,0-0.3,0.1-0.5,0.2l-0.1,0.1l-0.4,0.7l0.6,2.9c0.1,0.2,0.2,0.3,0.3,0.5c0.1,0.1,0.3,0.2,0.5,0.3l0.6,0
		l0.1,0c0.2-0.1,0.3-0.2,0.5-0.3c0.1-0.1,0.2-0.3,0.3-0.5l0-0.1l0-0.1C127.5,5.6,127.4,5.1,127.3,4.6z"/>
	<path class="st0" d="M115.5,13.1l0.6-0.1c0.2-0.1,0.3-0.2,0.5-0.3c0.1-0.1,0.2-0.3,0.3-0.5l0-0.2c0-0.1,0-0.3,0-0.4
		c0-0.2-0.1-0.3-0.2-0.4l-0.1-0.1l-0.1-0.1c-0.7-0.3-1.5-0.7-2.2-1.1c-0.7-0.4-1.4-0.9-2.2-1.3l-0.1-0.1h-0.6l-0.2,0
		c-0.2,0.1-0.3,0.2-0.5,0.3c-0.1,0.1-0.2,0.3-0.3,0.5l0,0.2c0,0.1,0,0.3,0,0.4c0,0.2,0.1,0.3,0.2,0.5l0.1,0.1
		c0.7,0.5,1.4,0.9,2.2,1.4c0.8,0.5,1.6,0.9,2.4,1.2L115.5,13.1z"/>
	<path class="st0" d="M126.8,9.1c-0.1-0.1-0.3-0.2-0.5-0.3l-0.7,0l-0.1,0.1c-1.8,1.7-3.7,3.5-5.5,5.2c-1.9,1.7-3.7,3.6-5.4,5.5
		l-0.1,0.1v0.2c0,0.1,0,0.3,0,0.4c0,0.2,0.1,0.3,0.2,0.5l0.1,0.1l0.7,0.4l0.5-0.1l0.1-0.1c1.7-1.8,3.5-3.6,5.4-5.3
		c1.8-1.7,3.7-3.5,5.4-5.3l0.1-0.1V9.7l0-0.2C127,9.3,126.9,9.2,126.8,9.1z"/>
	<path class="st0" d="M137.1,16.5c-0.1-0.1-0.3-0.2-0.5-0.3c-0.2,0-0.5,0-0.7,0c-0.2,0.1-0.3,0.2-0.5,0.3l-0.1,0.1
		c0,0.1-0.1,0.1-0.1,0.2v-1.3l-0.1-2.9l0-6c0-0.4,0.1-0.7,0.1-1l0-0.5l0-0.2c-0.1-0.2-0.2-0.3-0.3-0.5c-0.1-0.1-0.3-0.2-0.5-0.3
		l-0.5,0c-0.2,0-0.5,0.1-0.7,0.3c-0.2,0.3-0.4,0.6-0.4,1c0,0.3,0,0.5-0.1,0.9l0,6.3l0.1,2.9l0,4.4c0,0.2,0,0.4,0,0.6
		c0,0.3,0.1,0.6,0.3,0.9l0.6,0.4h0.1c0.1,0,0.3,0,0.4,0c0.2,0,0.3-0.1,0.5-0.2l0.1-0.1l0.1-0.1c0.3-0.6,0.7-1.2,1.1-1.8
		c0.4-0.6,0.8-1.2,1.2-1.9l0.1-0.1v-0.5l0-0.2C137.3,16.8,137.2,16.7,137.1,16.5z"/>
	<path class="st0" d="M147.9,7.2c-0.8-0.5-1.8-0.8-2.8-0.8c-0.9,0-1.8-0.1-2.7-0.2h-2.7l-0.1,0.1c-0.2,0.1-0.3,0.2-0.4,0.3
		c-0.1,0.1-0.2,0.3-0.3,0.5l0,0.6l0,0.2c0.1,0.2,0.2,0.3,0.3,0.5c0.1,0.1,0.3,0.2,0.5,0.3l0.1,0l0.5-0.1l2.2,0
		c0.6,0.1,1.3,0.1,1.9,0.2c0.3,0,0.7,0,1,0.1l-1.1,1.7V11l0,0.2c0.1,0.2,0.2,0.3,0.3,0.5c0.1,0.1,0.3,0.2,0.5,0.3l0.7,0l0.1-0.2
		c0.5-0.5,0.9-1,1.2-1.6c0.3-0.5,0.7-1,1.1-1.5l0.1-0.1V7.9C148.3,7.7,148.2,7.4,147.9,7.2L147.9,7.2z"/>
	<path class="st0" d="M148,18.9l-0.1-0.1l-0.1-0.1c-1.2-0.5-2.4-0.9-3.6-1.1c-1.2-0.3-2.4-0.6-3.6-0.8l-0.7,0l-0.2,0
		c-0.2,0.1-0.3,0.2-0.5,0.3c-0.1,0.1-0.2,0.3-0.3,0.5l0,0.2c0,0.1,0,0.3,0,0.4c0,0.2,0.1,0.3,0.2,0.5l0.1,0.2l0.2,0.1
		c1.2,0.4,2.5,0.7,3.7,1c1.2,0.3,2.5,0.6,3.7,1l0.1,0l0.5-0.1c0.2-0.1,0.3-0.2,0.5-0.3c0.1-0.1,0.2-0.3,0.3-0.5l0-0.2
		c0-0.1,0-0.3,0-0.4C148.1,19.2,148.1,19,148,18.9z"/>
	<path class="st0" d="M169.2,13.7c-0.1-0.2-0.2-0.3-0.3-0.4c-0.1-0.1-0.2-0.2-0.4-0.3l-0.1-0.1H168l-0.2,0c-0.2,0.1-0.3,0.2-0.5,0.3
		c-0.1,0.1-0.2,0.3-0.3,0.5l0,0.1l0,0.1c0.1,0.5,0.2,1,0.3,1.5c0.1,0.4,0.2,0.9,0.2,1.3c0,0.5-0.1,1-0.2,1.5
		c-0.1,0.4-0.3,0.9-0.7,1.2c-0.3,0.3-0.7,0.6-1.1,0.8c-0.4,0.2-0.9,0.3-1.3,0.4c-0.4,0-0.7-0.1-1.1-0.2c-0.3-0.1-0.7-0.3-1-0.4
		c-0.4-0.6-0.7-1.2-1-1.8c-0.3-0.7-0.4-1.4-0.4-2.1l0-0.9c0.4,0,0.8,0.1,1.3,0.1c0.6,0,1.2,0.1,1.8,0.2l1.5,0l0.1,0
		c0.2-0.1,0.3-0.2,0.5-0.3c0.1-0.1,0.2-0.3,0.3-0.5l0-0.6l-0.1-0.1c-0.1-0.2-0.2-0.3-0.3-0.4c-0.1-0.1-0.2-0.2-0.4-0.3l-0.1-0.1
		l-0.9,0.1c-1.2-0.2-2.4-0.1-3.6-0.2c0.1-0.6,0.2-1.2,0.3-1.8c0.1-0.6,0.2-1.3,0.3-1.9c0.2,0,0.3,0,0.5,0c0.2,0,0.4,0,0.5,0.1l0.1,0
		l0.3-0.1c0.4,0,0.7,0,1,0c0.3,0.1,0.6,0.1,1,0.2l0.1,0l0.5-0.1c0.2-0.1,0.3-0.2,0.5-0.3c0.1-0.1,0.2-0.3,0.3-0.5l0-0.2
		c0-0.1,0-0.3,0-0.4c0-0.2-0.1-0.3-0.2-0.4L166,7.7c-0.3-0.2-0.7-0.3-1-0.4l-1-0.2l-1,0c-0.2,0-0.5-0.1-0.7-0.1c-0.1,0-0.2,0-0.3,0
		c0.1-0.4,0.2-0.8,0.3-1.2c0.2-0.6,0.4-1.2,0.7-1.8l0-0.5l0-0.2c-0.1-0.2-0.2-0.3-0.3-0.5c-0.1-0.1-0.3-0.2-0.5-0.3l-0.5,0
		c-0.2,0-0.4,0-0.6,0.3L161,3c-0.3,0.7-0.6,1.4-0.9,2.1c-0.2,0.6-0.4,1.2-0.5,1.9L159,7l-0.9-0.2L157.4,7l-0.9-0.1h-0.4l-0.2,0
		c-0.2,0.1-0.3,0.2-0.5,0.3c-0.1,0.1-0.2,0.3-0.3,0.5l0,0.2c0,0.1,0,0.3,0,0.4c0,0.2,0.1,0.3,0.2,0.5c0.2,0.2,0.5,0.4,0.8,0.4
		l0.7,0.1l0.7-0.1l1,0.1l0.6,0c-0.1,0.6-0.1,1.1-0.2,1.7c-0.1,0.6-0.2,1.2-0.2,1.8l-1.2,0.1l-0.5-0.1h-0.9l-0.2,0
		c-0.2,0.1-0.3,0.2-0.5,0.3c-0.1,0.1-0.2,0.3-0.3,0.5l0,0.2c0,0.1,0,0.3,0,0.4c0,0.2,0.1,0.3,0.2,0.5c0.3,0.3,0.7,0.4,1.1,0.4
		c0.2,0,0.4,0,0.5,0.1l0.1,0l1-0.1l0.3,0l0,0.1c0,1.2,0.1,2.3,0.4,3.4c0.3,1.1,0.8,2.1,1.7,3.1c0.5,0.4,1,0.7,1.6,0.9
		c0.6,0.2,1.2,0.3,1.8,0.4l0,0l0,0c0.7,0,1.4-0.2,2-0.4c0.6-0.2,1.2-0.6,1.8-1.1c0.6-0.6,1.1-1.2,1.4-2c0.3-0.7,0.4-1.5,0.5-2.3
		c0-0.6-0.1-1.2-0.2-1.7C169.6,14.9,169.4,14.3,169.2,13.7z"/>
	<path class="st0" d="M190.7,6.2L190,4.9c-0.1-0.2-0.2-0.3-0.3-0.5c-0.1-0.1-0.3-0.2-0.5-0.3l-0.6,0l-0.2,0
		c-0.2,0.1-0.3,0.2-0.5,0.3c-0.1,0.1-0.2,0.3-0.3,0.5l0,0.1l0,0.1c0.2,0.5,0.4,1.1,0.6,1.6c0.2,0.5,0.5,0.9,0.7,1.4l0.1,0.1l0.1,0.1
		c-1.1,0.2-2.1,0.5-3.1,1c-0.9,0.4-1.8,0.9-2.7,1.5c-0.5-0.9-0.8-1.9-1.2-2.8c-0.4-1.1-0.8-2.2-1.3-3.4c-0.1-0.1-0.1-0.3-0.2-0.4
		c-0.1-0.2-0.3-0.4-0.6-0.5l-0.5,0l-0.2,0c-0.2,0.1-0.3,0.2-0.5,0.3c-0.1,0.1-0.2,0.3-0.3,0.5l-0.1,0.2l0.1,0.2
		c0.4,1.3,0.9,2.6,1.3,3.9c0.4,1.2,0.9,2.4,1.5,3.6l-0.4,0.4c-0.6,0.6-1.2,1.2-1.5,1.9c-0.4,0.7-0.6,1.5-0.7,2.4
		c0,0.6,0,1.2,0.2,1.8c0.2,0.6,0.5,1.1,0.9,1.6c0.5,0.5,1.2,0.9,1.9,1.1c0.7,0.2,1.3,0.3,2,0.3l0,0l2.8-0.1c0.9,0,1.9-0.1,2.8-0.2
		l0.1,0c0.2-0.1,0.3-0.2,0.4-0.2c0.2-0.1,0.3-0.3,0.4-0.6l0-0.5l0-0.2c-0.1-0.2-0.2-0.3-0.3-0.5c-0.1-0.1-0.3-0.2-0.5-0.3l-0.1,0
		l-0.1,0c-0.7,0.1-1.4,0.1-2.1,0.2c-0.7,0-1.4,0.1-2.1,0.1c-0.7,0-1.3,0-1.9-0.1c-0.5-0.1-1.1-0.3-1.5-0.5c-0.2-0.2-0.3-0.4-0.4-0.6
		c-0.1-0.2-0.2-0.5-0.3-0.8c0-0.6,0.1-1.1,0.3-1.6c0.2-0.5,0.5-1,0.9-1.4c1-1,2.1-1.9,3.3-2.5c1.3-0.7,2.6-1.2,4-1.6
		c0.2-0.1,0.3-0.2,0.5-0.3c0.1-0.1,0.2-0.3,0.3-0.5l0-0.5l0-0.2c0-0.1-0.1-0.2-0.2-0.3l0.1,0c0.2-0.1,0.3-0.2,0.5-0.3
		c0.1-0.1,0.2-0.3,0.3-0.5l0-0.1l0-0.1C191.1,7.3,190.9,6.7,190.7,6.2z"/>
	<path class="st0" d="M193.2,5.4c-0.2-0.5-0.3-1-0.4-1.6c-0.1-0.2-0.2-0.3-0.3-0.5c-0.1-0.1-0.3-0.2-0.5-0.3l-0.5,0l-0.2,0
		c-0.2,0.1-0.3,0.2-0.5,0.3c-0.1,0.1-0.2,0.3-0.3,0.5l0,0.1l0,0.1c0.1,0.6,0.2,1.2,0.4,1.7c0.2,0.5,0.3,1.1,0.4,1.6l0,0.2l0.7,0.6
		h0.6l0.1,0c0.2-0.1,0.3-0.2,0.5-0.3c0.1-0.1,0.2-0.3,0.3-0.5l0-0.1l0-0.1C193.5,6.5,193.4,5.9,193.2,5.4z"/>
	<path class="st0" d="M213.6,14.8c-0.3-0.7-0.7-1.4-1.2-2c-0.5-0.5-1.1-1-1.6-1.4c-0.6-0.4-1.2-0.7-1.9-0.9l-0.1,0
		c-0.6,0-1.2,0-1.8,0.1c-0.1,0-0.3,0-0.4,0.1c0.4-0.5,0.9-1,1.3-1.5c0.7-0.9,1.5-1.7,2.3-2.6c0.1-0.1,0.2-0.1,0.2-0.2l0.1,0
		c0.2-0.1,0.3-0.2,0.5-0.3c0.1-0.1,0.2-0.3,0.3-0.5l0-0.5c0-0.2,0-0.4-0.3-0.6l-0.1-0.1l-0.2,0c-1.2-0.2-2.5-0.3-3.8-0.4
		c-1.3-0.1-2.5-0.2-3.8-0.2h-0.6l-0.2,0c-0.2,0.1-0.3,0.2-0.5,0.3c-0.1,0.1-0.2,0.3-0.3,0.5c-0.1,0.2,0,0.4,0,0.6
		c0.1,0.2,0.1,0.3,0.2,0.4l0.1,0.2l0.2,0c1,0.2,2.1,0.3,3.1,0.4c0.7,0,1.4,0.1,2.1,0.1c-1.1,1.4-2.3,2.7-3.4,4.1
		c-1.4,1.6-2.6,3.4-3.7,5.1l-0.1,0.2l0.1,0.5c0.1,0.2,0.2,0.3,0.3,0.5c0.1,0.1,0.3,0.2,0.5,0.3l0.7,0l0.1-0.1
		c0.4-0.2,0.6-0.6,0.8-0.9c0.1-0.3,0.3-0.5,0.4-0.7c0.7-0.7,1.5-1.2,2.3-1.7c0.8-0.4,1.6-0.7,2.5-0.7c0.5,0,1,0.1,1.4,0.4
		c0.5,0.3,0.9,0.6,1.3,1c0.3,0.3,0.5,0.5,0.7,0.8c0,0,0.1,0.1,0.1,0.1c-0.2-0.1-0.4-0.1-0.6-0.1c-0.5-0.1-1-0.1-1.6-0.2
		c-0.8,0-1.5,0-2.2,0.2c-0.7,0.2-1.3,0.5-2,0.9c-0.4,0.3-0.7,0.7-0.9,1.1c-0.2,0.4-0.4,0.9-0.6,1.4c0,0.5,0,1.1,0.2,1.5
		c0.2,0.5,0.4,0.9,0.8,1.3c0.4,0.5,0.9,0.8,1.4,0.9c0.5,0.1,1,0.2,1.5,0.2l0,0c1,0,1.9-0.2,2.7-0.7c0.7-0.4,1.4-0.9,2.2-1.4l0.1-0.1
		c0.4-0.4,0.8-0.9,1-1.4c0.3-0.5,0.5-1.1,0.5-1.7C213.9,16.3,213.8,15.5,213.6,14.8z M211.4,17.5c-0.2,0.6-0.6,1-1.1,1.3
		c-0.6,0.4-1.2,0.7-1.7,1l-0.8,0.3c-0.4,0-0.7,0-1.1-0.1c-0.2,0-0.4-0.1-0.6-0.3l-0.4-0.8c0-0.2,0-0.4,0.1-0.5
		c0.1-0.2,0.3-0.5,0.4-0.7c0.3-0.2,0.6-0.4,0.9-0.6c0.4-0.1,0.7-0.2,1.1-0.3c0.7,0,1.3,0,1.9,0.1C210.5,17.2,211,17.4,211.4,17.5z"
		/>
</g>
</svg>
