<?xml version="1.0" encoding="utf-8"?>
<!-- Generator: Adobe Illustrator 25.1.0, SVG Export Plug-In . SVG Version: 6.00 Build 0)  -->
<svg version="1.1" id="レイヤー_1" xmlns="http://www.w3.org/2000/svg" xmlns:xlink="http://www.w3.org/1999/xlink" x="0px"
	 y="0px" width="32.8px" height="32.8px" viewBox="0 0 32.8 32.8" style="enable-background:new 0 0 32.8 32.8;"
	 xml:space="preserve">
<style type="text/css">
	.st0{fill-rule:evenodd;clip-rule:evenodd;fill:#696969;}
	.st1{fill:#696969;}
</style>
<path class="st0" d="M16.4,8.7c2.5,0,2.8,0,3.8,0.1c0.6,0,1.2,0.1,1.7,0.3c0.4,0.1,0.8,0.4,1.1,0.7c0.3,0.3,0.5,0.7,0.7,1.1
	c0.2,0.6,0.3,1.1,0.4,1.7c0,1,0.1,1.3,0.1,3.8s0,2.8-0.1,3.8c0,0.6-0.1,1.2-0.3,1.7c-0.3,0.8-0.9,1.5-1.8,1.8
	c-0.6,0.2-1.1,0.3-1.7,0.3c-1,0-1.3,0.1-3.8,0.1s-2.8,0-3.8-0.1c-0.6,0-1.2-0.1-1.7-0.3c-0.4-0.2-0.8-0.4-1.1-0.7
	c-0.3-0.3-0.5-0.7-0.7-1.1c-0.2-0.6-0.3-1.1-0.3-1.7c-0.1-1-0.1-1.3-0.1-3.8s0-2.8,0.1-3.8c0-0.6,0.1-1.2,0.3-1.7
	c0.3-0.8,0.9-1.5,1.8-1.8c0.6-0.2,1.1-0.3,1.7-0.3C13.7,8.7,13.9,8.7,16.4,8.7 M16.4,7.1c-2.5,0-2.8,0-3.8,0.1
	c-0.8,0-1.5,0.2-2.3,0.4C9.1,8,8.1,9,7.6,10.3c-0.3,0.7-0.4,1.5-0.4,2.3c0,1-0.1,1.3-0.1,3.8s0,2.9,0.1,3.8c0,0.8,0.2,1.5,0.4,2.3
	c0.2,0.6,0.6,1.2,1.1,1.6c0.5,0.5,1,0.8,1.6,1.1c0.7,0.3,1.5,0.4,2.3,0.4c1,0,1.3,0,3.8,0s2.9,0,3.8,0c0.8,0,1.5-0.2,2.3-0.4
	c1.3-0.5,2.2-1.5,2.7-2.7c0.3-0.7,0.4-1.5,0.4-2.3c0-1,0-1.3,0-3.8s0-2.8,0-3.8c0-0.8-0.2-1.5-0.4-2.3c-0.2-0.6-0.6-1.2-1.1-1.6
	c-0.5-0.5-1-0.8-1.6-1.1c-0.7-0.3-1.5-0.4-2.3-0.4C19.3,7.1,19,7.1,16.4,7.1z M16.4,11.6c-2.6,0-4.8,2.1-4.8,4.8s2.1,4.8,4.8,4.8
	s4.8-2.1,4.8-4.8l0,0C21.2,13.8,19.1,11.6,16.4,11.6L16.4,11.6z M16.4,19.5c-1.7,0-3.1-1.4-3.1-3.1s1.4-3.1,3.1-3.1s3.1,1.4,3.1,3.1
	S18.2,19.5,16.4,19.5L16.4,19.5z M22.4,11.4c0,0.6-0.5,1.1-1.1,1.1s-1.1-0.5-1.1-1.1s0.5-1.1,1.1-1.1l0,0
	C21.9,10.3,22.4,10.8,22.4,11.4L22.4,11.4z"/>
<g id="レイヤー_2_1_">
	<g id="レイヤー_1-2">
		<path class="st1" d="M16.4,32.8C7.4,32.8,0,25.5,0,16.4S7.4,0,16.4,0s16.3,7.3,16.3,16.3C32.8,25.5,25.5,32.8,16.4,32.8z
			 M16.4,0.7c-8.6,0-15.7,7-15.7,15.7S7.8,32,16.4,32s15.7-7,15.7-15.7l0,0C32.2,7.7,25.1,0.7,16.4,0.7z"/>
	</g>
</g>
</svg>
