<?xml version="1.0" encoding="utf-8"?>
<!-- Generator: Adobe Illustrator 24.0.3, SVG Export Plug-In . SVG Version: 6.00 Build 0)  -->
<svg version="1.1" id="レイヤー_1" xmlns="http://www.w3.org/2000/svg" xmlns:xlink="http://www.w3.org/1999/xlink" x="0px"
	 y="0px" width="169.3px" height="193.2px" viewBox="0 0 169.3 193.2" style="enable-background:new 0 0 169.3 193.2;"
	 xml:space="preserve">
<style type="text/css">
	.st0{fill:#FFFFFF;}
</style>
<g>
	<path class="st0" d="M38.7,55.2c-0.3-0.6-0.4-1.2-0.7-1.5c-5-4.8-9.9-9.7-15-14.4c-0.5-0.5-1.8-0.1-2.7-0.1c0,1-0.4,2.4,0.1,3
		c1.7,2,3.6,3.8,5.5,5.7c2.8,2.8,5.7,5.5,8.7,8.1c0.7,0.6,2.1,0.6,3.1,0.6C38.1,56.6,38.4,55.6,38.7,55.2z"/>
	<path class="st0" d="M137.7,43.3c-0.7-0.6-1.2-1.4-1.6-1.3c-1.2,0.2-2.7,0.4-3.5,1.1c-4.3,4.1-8.4,8.4-12.5,12.7
		c-0.8,0.8-0.7,2.5-1,3.7c1.4-0.3,3.3-0.2,4.2-1.1c4.3-4.1,8.4-8.5,12.5-12.7C136.5,45,137,44.2,137.7,43.3z M135.4,87.4
		c6.9-2,13.3-3.8,19.6-5.8c0.9-0.3,1.4-1.6,2.1-2.4c-1.1-0.5-2.4-1.5-3.4-1.3c-6.3,1.5-12.5,3.2-18.7,5.1c-0.8,0.2-1.7,1.7-1.7,2.5
		C133.4,86.2,134.8,86.8,135.4,87.4z M92.4,41.3c0.4,0.6,0.9,1.5,1.5,2.4c1-0.6,2.6-1.1,2.8-1.9c1.8-6.1,3.4-12.3,4.9-18.4
		c0.2-0.9-1-2.1-1.6-3.1c-0.8,0.7-2.1,1.2-2.3,2C95.8,28.3,94.2,34.6,92.4,41.3z"/>
	<path class="st0" d="M65.7,48.7c14.9-2.7,28.7,0.4,40.6,9.6c11,8.5,17.6,19.8,18.4,33.9c1.2,20.5-6.8,36.1-25.3,45.8
		c-6.5,3.4-11,8.7-14,15.3c-1.3,3-3.7,2.1-6,1.8c-6.6-0.9-13.1-1.8-19.7-2.6c-0.6-0.1-1.3,0.1-2,0.7c6.9,1.1,13.9,2.2,20.8,3.4
		c2.4,0.4,5.2,0.5,5.3,4c-1.6,1.7-5.3,2.6-2.2,6c-1,1-2,2.7-3.2,2.8c-2.2,0.2-4.6-0.4-6.8-0.7c-0.3,0-0.7,0-1-0.1
		c-1.3-0.3-2.6-0.6-4-0.9c-5.3-0.7-10.6-1.4-15.9-2.1c-2.8-0.7-5.8-1.1-8.5-2.3c-2.2-0.9-3.1-3.2-0.5-4.5c2.4-1.1,1.9-2,1-3.7
		c-0.4-0.7-0.3-2.4,0.1-2.7c2.5-1.5,1.1-3.5,1.3-5.5c0.9-8.8-2.5-15.7-8-22.2c-2.8-3.3-5-7.3-6.2-11.4c-1.7-5.9-3.4-12.1-3.1-18.1
		C27.6,84,31.8,73.9,39.4,65C46.6,56.6,55.5,51.8,65.7,48.7z M55.8,97.5c1.3,0.8,2.5,1.6,3.9,2.5c4.1-3,4-3,5.9,2.1
		c0.2,0.5,0.5,1,0.7,1.3c2.1-1.4,3.7-2.5,5.4-3.6c0.9,1.8,1.8,3.6,2.7,5.5c1.9-1.3,3.5-2.5,5.2-3.7c1,1.7,2,3.5,3.1,5.3
		c1.6-1.1,3.1-2.3,4.6-3.4c1.1,1.6,2.2,3.2,3.4,4.9c0.2-0.1,0.5-0.2,0.8-0.3c1-0.6,2-1.2,3-1.8c0,1.2,0,2.4-0.2,3.6
		c-0.1,0.8-0.7,1.5-1,2.3c-4.3,10.4-8.7,20.7-12.9,31.1c-0.5,1.3-0.2,2.9-0.3,4.4c1.4-0.7,2.8-1.5,4.3-2.2c0.3-0.1,0.4-0.5,0.6-0.8
		c3.8-6,9.7-9.2,15.3-13.1c4.8-3.3,9.7-7.3,12.9-12.1c15-23,5.7-58.2-28.8-65.7c-12.7-2.8-24.4,0.5-34.8,8.3
		c-0.8,0.4-1.8,0.7-2.5,1.3c-6,5.5-10,12.4-12.4,20.1c-4.1,13.3-2,25.9,5.8,37.5c3.6,5.4,7.5,10.5,8.3,17.3c0.2,1.5,1.5,3,2.3,4.4
		c1.2-1.3,1.6-2.4,1.7-3.5c0.8-11.9,1.5-23.8,2.3-35.7C55.2,101.4,55.5,99.5,55.8,97.5z M61.2,103.5c-0.8,1.7-2.2,3.2-2.4,5
		c-1.2,11.2-2,22.4-3.1,33.6c-0.3,2.6,0.5,3.7,3,4c3.8,0.5,7.7,0.7,11.3,1.6c3.9,1,5.4-0.2,6.7-3.9c3.1-9.1,6.7-18,10.4-26.8
		c1.2-2.9,0.8-5.3-0.7-7.8c-1.9,1.4-3.6,2.5-5.3,3.7c-1-1.8-2-3.6-3-5.4c-5.2,4.2-5.2,4.2-7.9-2.3C64.7,110.2,64.7,110.2,61.2,103.5
		z M48.3,157.2c-0.1,0.6-0.2,1.2-0.3,1.7c5.1,0.9,10.2,1.7,15.3,2.6c0.1-0.5,0.2-1.1,0.2-1.6C58.5,159,53.4,158.1,48.3,157.2z"/>
	<path class="st0" d="M72.7,171.5c-2.8,5.8-7,8.4-12.8,8c-4.7-0.3-9.2-3.8-10.7-8.2c-0.6-1.8-1.4-3.6,1.5-4
		C58.1,168.7,65.4,170.1,72.7,171.5z"/>
	<path class="st0" d="M38.7,55.2c-0.3,0.5-0.6,1.4-1,1.4c-1.1,0-2.4,0-3.1-0.6c-3-2.6-5.8-5.4-8.7-8.1c-1.9-1.8-3.9-3.6-5.5-5.7
		c-0.5-0.6-0.1-2-0.1-3c0.9,0,2.2-0.4,2.7,0.1c5.1,4.7,10,9.6,15,14.4C38.3,54,38.4,54.5,38.7,55.2z"/>
	<path class="st0" d="M60.4,20.9c1.6,5.7,3.1,11.5,4.8,17.2c0.6,2.1,0.9,3.9-1.5,5c-1-1.5-2.3-2.8-2.8-4.4c-1.6-5.2-3-10.5-4.3-15.7
		c-0.3-1.1,0.3-2.3,0.5-3.5C58.2,20,59.3,20.5,60.4,20.9z"/>
	<path class="st0" d="M137.7,43.3c-0.7,0.9-1.2,1.7-1.9,2.4c-4.1,4.3-8.2,8.6-12.5,12.7c-0.9,0.9-2.7,0.8-4.2,1.1
		c0.3-1.3,0.2-2.9,1-3.7c4-4.4,8.2-8.6,12.5-12.7c0.8-0.8,2.3-1,3.5-1.1C136.5,41.9,137,42.7,137.7,43.3z"/>
	<path class="st0" d="M135.4,87.4c-0.7-0.6-2-1.2-2-1.9c0-0.8,0.9-2.3,1.7-2.5c6.2-1.9,12.4-3.6,18.7-5.1c1-0.2,2.3,0.8,3.4,1.3
		c-0.7,0.8-1.3,2.1-2.1,2.4C148.7,83.6,142.3,85.3,135.4,87.4z"/>
	<path class="st0" d="M92.4,41.3c1.8-6.8,3.4-13,5.2-19.2c0.2-0.8,1.5-1.3,2.3-2c0.6,1.1,1.8,2.3,1.6,3.1c-1.4,6.2-3,12.4-4.9,18.4
		c-0.3,0.9-1.9,1.3-2.8,1.9C93.3,42.8,92.8,42,92.4,41.3z"/>
</g>
</svg>
