<?xml version="1.0" encoding="utf-8"?>
<!-- Generator: Adobe Illustrator 24.2.3, SVG Export Plug-In . SVG Version: 6.00 Build 0)  -->
<svg version="1.1" id="レイヤー_1" xmlns="http://www.w3.org/2000/svg" xmlns:xlink="http://www.w3.org/1999/xlink" x="0px"
	 y="0px" width="154px" height="38px" viewBox="0 0 154 38" style="enable-background:new 0 0 154 38;" xml:space="preserve">
<style type="text/css">
	.st0{fill:#4D4D4D;}
</style>
<g>
	<path class="st0" d="M25,30.8c-1.4,0.5-4.3,1.2-7.1,1.2c-3.8,0-6.6-1-8.7-3c-2.1-2.1-3.4-5.5-3.4-9.4c0-8.4,5.6-12.9,12.7-12.9
		c2.5,0,4.6,0.5,5.8,1l-1,3.9c-1.1-0.5-2.5-0.9-4.7-0.9c-4.4,0-7.8,2.7-7.8,8.7c0,5.7,3.1,8.6,7.2,8.6c1.2,0,2-0.2,2.4-0.4v-6.1
		h-3.6V18H25V30.8z"/>
	<path class="st0" d="M44.3,31.8h-4.8V21.4c0-2.3-0.7-4.1-2.8-4.1c-1.2,0-3,0.8-3,3.5v10.9h-4.8V5.9h4.8V16h0.1
		c1.3-1.9,3.3-2.5,4.8-2.5c3.2,0,5.7,2.3,5.7,7.6V31.8z"/>
	<path class="st0" d="M62.1,31.1c-1.5,0.6-3.6,1-5.8,1c-5.5,0-8.7-3.5-8.7-9.1c0-5.2,3-9.6,8.2-9.6c4.3,0,7.2,3.1,7.2,8.9
		c0,0.7,0,1.4-0.1,1.9H52.1c0.1,3.1,2.3,4.3,4.9,4.3c1.8,0,3.2-0.3,4.4-0.7L62.1,31.1z M58.5,20.9c0-1.9-0.7-4.2-3.1-4.2
		c-2.3,0-3.3,2.4-3.4,4.2H58.5z"/>
	<path class="st0" d="M79.8,31.1c-1.5,0.6-3.6,1-5.8,1c-5.5,0-8.7-3.5-8.7-9.1c0-5.2,3-9.6,8.2-9.6c4.3,0,7.2,3.1,7.2,8.9
		c0,0.7,0,1.4-0.1,1.9H69.9c0.1,3.1,2.3,4.3,4.9,4.3c1.8,0,3.2-0.3,4.4-0.7L79.8,31.1z M76.3,20.9c0-1.9-0.7-4.2-3.1-4.2
		c-2.3,0-3.3,2.4-3.4,4.2H76.3z"/>
	<path class="st0" d="M91.2,7H96v24.8h-4.8V7z"/>
	<path class="st0" d="M118.9,31.8h-4.8l-5.3-10.2c-1.3-2.5-2.8-5.6-3.8-8.3h-0.1c0.2,3.1,0.3,6.5,0.3,11v7.6h-4.3V7h5.2l5.2,10
		c1.3,2.5,2.7,5.5,3.7,8.1h0.1c-0.3-3.2-0.4-6.7-0.4-10.7V7h4.3V31.8z"/>
	<path class="st0" d="M139.5,31.2c-0.9,0.5-2.9,0.9-5.5,0.9c-7.4,0-11.6-5.1-11.6-12.4c0-8.7,5.6-13,12.1-13c2.7,0,4.4,0.5,5.1,0.9
		l-0.9,3.9c-1-0.4-2.3-0.8-4-0.8c-4.1,0-7.4,2.8-7.4,8.8c0,5.6,2.9,8.6,7.3,8.6c1.5,0,3.1-0.3,4-0.7L139.5,31.2z"/>
	<path class="st0" d="M142.4,29.1c0-1.8,1.2-3.1,2.9-3.1c1.7,0,2.9,1.2,2.9,3.1c0,1.8-1.1,3.1-2.9,3.1S142.4,30.8,142.4,29.1z"/>
</g>
</svg>
