<?xml version="1.0" encoding="utf-8"?>
<!-- Generator: Adobe Illustrator 25.1.0, SVG Export Plug-In . SVG Version: 6.00 Build 0)  -->
<svg version="1.1" id="レイヤー_1" xmlns="http://www.w3.org/2000/svg" xmlns:xlink="http://www.w3.org/1999/xlink" x="0px"
	 y="0px" width="33.1px" height="33.1px" viewBox="0 0 33.1 33.1" style="enable-background:new 0 0 33.1 33.1;"
	 xml:space="preserve">
<style type="text/css">
	.st0{fill:#696969;}
</style>
<g id="レイヤー_2_1_">
	<g id="レイヤー_1-2">
		<path class="st0" d="M16.5,32.9c-9.1,0-16.4-7.3-16.4-16.4S7.5,0.2,16.5,0.2s16.4,7.3,16.4,16.4C32.9,25.6,25.6,32.9,16.5,32.9z
			 M16.5,0.9c-8.7,0-15.7,7-15.7,15.7s7,15.7,15.7,15.7s15.7-7,15.7-15.7l0,0C32.2,7.9,25.2,0.9,16.5,0.9z"/>
		<path class="st0" d="M24.1,14.8v6c0,0.8-0.6,1.4-1.4,1.4l0,0H10.4c-0.8,0-1.4-0.6-1.4-1.4v-6c0-0.1,0.1-0.2,0.2-0.2h0.1
			c0.7,0.5,1.5,1.2,4.5,3.3c0.6,0.5,1.7,1.4,2.7,1.4s2.1-1,2.7-1.4c3-2.2,3.9-2.8,4.5-3.3C23.9,14.6,24,14.6,24.1,14.8
			C24.1,14.7,24.1,14.8,24.1,14.8z M14.4,17.2c-3.9-2.8-4.2-3.1-5.1-3.8c-0.2-0.1-0.2-0.3-0.2-0.6v-0.6c0-0.8,0.6-1.4,1.4-1.4h12.2
			c0.8,0,1.4,0.6,1.4,1.4v0.6c0,0.2-0.1,0.4-0.3,0.6c-0.9,0.7-1.2,1-5.1,3.8c-0.5,0.4-1.5,1.2-2.2,1.2S14.9,17.6,14.4,17.2z"/>
	</g>
</g>
</svg>
