<svg xmlns="http://www.w3.org/2000/svg" viewBox="0 0 275 58"><defs><style>.cls-1{fill:none;stroke:#195354;stroke-miterlimit:10;}.cls-2{fill:#195354;}</style></defs><g id="レイヤー_2" data-name="レイヤー 2"><g id="レイヤー_1-2" data-name="レイヤー 1"><rect class="cls-1" x="12.46" y="8.21" width="40.84" height="40.84" rx="20.42"/><path class="cls-2" d="M42.45,26.37V34a1.8,1.8,0,0,1-1.79,1.8H25.11a1.81,1.81,0,0,1-1.8-1.8V26.37a.23.23,0,0,1,.37-.17c.83.65,1.94,1.47,5.76,4.24.78.58,2.11,1.79,3.44,1.78s2.69-1.22,3.45-1.78c3.81-2.77,4.92-3.6,5.76-4.25A.23.23,0,0,1,42.45,26.37Zm-12.31,3.1c-5-3.59-5.34-3.91-6.48-4.81a.89.89,0,0,1-.35-.7v-.71a1.81,1.81,0,0,1,1.8-1.8H40.66a1.8,1.8,0,0,1,1.79,1.8V24a.88.88,0,0,1-.34.7c-1.15.9-1.53,1.22-6.49,4.81C35,29.93,33.75,31,32.88,31S30.77,29.93,30.14,29.47Z"/><path class="cls-2" d="M74.68,22.1a15.7,15.7,0,0,0-.75,1.62,25.85,25.85,0,0,1-2.46,5,46.5,46.5,0,0,1,4.34,4l-1.88,2.09a37,37,0,0,0-4-4,22.72,22.72,0,0,1-6.77,5.62L61,34.52A19.79,19.79,0,0,0,68,29.15a46.48,46.48,0,0,0-4.88-3.44l1.57-1.88c1.45.91,3.33,2.19,4.8,3.28a20.27,20.27,0,0,0,2-4.31,14.27,14.27,0,0,0,.43-1.68Z"/><path class="cls-2" d="M80.62,27c.66.05,2,.11,2.93.11h9.78c.84,0,1.66-.08,2.13-.11V29.9c-.44,0-1.37-.1-2.13-.1H83.55c-1,0-2.25,0-2.93.1Z"/><path class="cls-2" d="M99.33,34.79a8.58,8.58,0,0,0,3.09-4.35c.51-1.56.53-5,.53-7.21a6.53,6.53,0,0,0-.16-1.65h2.67a13.65,13.65,0,0,0-.12,1.63,40.3,40.3,0,0,1-.55,7.83,10.57,10.57,0,0,1-3.24,5.23Zm8.43.28a7.28,7.28,0,0,0,.14-1.35V23.11a8.16,8.16,0,0,0-.14-1.57h2.71a8.78,8.78,0,0,0-.13,1.58v9.52a11.4,11.4,0,0,0,4.5-3.84l1.4,2a20.14,20.14,0,0,1-6.17,5,4.57,4.57,0,0,0-.8.54Z"/><path class="cls-2" d="M121.35,22.92c1.51-.12,4.49-.4,7.79-.69,1.86-.14,3.82-.25,5.1-.31v2.33a18.42,18.42,0,0,0-3.47.24,5.46,5.46,0,0,0-3.81,5c0,3,2.77,4,5.83,4.19L132,36.21c-3.79-.23-7.35-2.27-7.35-6.19a7.14,7.14,0,0,1,2.65-5.55c-1.56.16-5.35.57-7.44,1L119.58,23C120.31,23,121,23,121.35,22.92Zm11.83,5.56-1.38.61a14.58,14.58,0,0,0-1.42-2.53l1.34-.56A24.44,24.44,0,0,1,133.18,28.48Zm2.11-.9-1.36.66a15.47,15.47,0,0,0-1.5-2.46l1.33-.62A26,26,0,0,1,135.29,27.58Z"/><path class="cls-2" d="M145.55,28a14.65,14.65,0,0,1,3.46-.47c2.77,0,5,1.47,5,3.95,0,2.13-1.11,3.73-4,4.44a14,14,0,0,1-2.36.29l-.84-2.31a13.67,13.67,0,0,0,2.22-.13c1.46-.25,2.62-1,2.62-2.31s-1.09-1.93-2.66-1.93a12.73,12.73,0,0,0-3.38.49c0,1.44.09,2.82.09,3.44,0,2.24-.82,2.83-2,2.83-1.76,0-4.26-1.52-4.26-3.43,0-1.58,1.84-3.2,4-4.17,0-.41,0-.83,0-1.25V25.93l-1,0c-.82,0-1.73,0-2.51-.09l0-2.18a19.19,19.19,0,0,0,2.5.14l1,0c0-.64,0-1.17,0-1.48a15.6,15.6,0,0,0-.12-1.58h2.47c0,.33-.11,1.11-.14,1.56s0,.84-.06,1.3a24.53,24.53,0,0,0,3.32-.68l0,2.26c-1,.24-2.26.42-3.44.57,0,.54,0,1.09,0,1.62Zm-2,5.06c0-.45,0-1.27-.06-2.22-1.11.57-1.84,1.31-1.84,1.95s.84,1.06,1.31,1.06S143.57,33.68,143.57,33.06ZM151,22.69a38.16,38.16,0,0,1,4.43,2.53l-1.09,1.85A28.39,28.39,0,0,0,150,24.45Z"/><path class="cls-2" d="M161.2,27.51v9.54h-2.15V20.74H166v6.77Zm0-5.11v1H164v-1ZM164,25.87v-1H161.2v1Zm1.11,8.61v1h-2V28.77h7.05v5.71Zm0-3.93V32.7h3V30.55Zm9.31,3.91c0,1.21-.26,1.83-1,2.17a8.86,8.86,0,0,1-3.57.42,7.61,7.61,0,0,0-.73-2.22c1.06.07,2.3.05,2.64,0s.47-.11.47-.44v-6.9h-4.93V20.74h7.14Zm-5.08-12.08v1h2.87v-1Zm2.87,3.51V24.83h-2.87v1.06Z"/><path class="cls-2" d="M181.76,24.69c0,1.16,0,2.53.11,3.82.25,2.61.8,4.37,1.93,4.37.86,0,1.57-2.11,1.91-3.53l1.82,2.18c-1.2,3.14-2.33,4.25-3.78,4.25-2,0-3.7-1.79-4.21-6.63-.16-1.66-.2-3.75-.2-4.86a10.33,10.33,0,0,0-.13-1.82l2.77,0A14.1,14.1,0,0,0,181.76,24.69Zm12.53,7.41L191.9,33c-.27-2.9-1.24-7.14-3.2-9.36l2.29-.76C192.7,25,194.09,29.33,194.29,32.1Z"/><path class="cls-2" d="M206.93,20.07a18.39,18.39,0,0,0,7.79,6.26,10,10,0,0,0-1.4,2,23.2,23.2,0,0,1-2.79-1.73V27.8h-9.06V26.53a26.73,26.73,0,0,1-2.82,1.78,8.36,8.36,0,0,0-1.37-1.76,19.24,19.24,0,0,0,7.41-6.48Zm-6.66,9.53h11.54v7.47h-2.22v-.68H202.4v.68h-2.13Zm9.37-3.71a19.77,19.77,0,0,1-3.73-3.69,18.67,18.67,0,0,1-3.62,3.69Zm-7.24,5.63v3h7.19v-3Z"/><path class="cls-2" d="M224.34,24.27c-.23.31-.62.89-.92,1.37,0,.18,0,.34,0,.52a8.83,8.83,0,0,1,5.3-1.87,4.76,4.76,0,0,1,5,4.86c0,3.64-2.28,5.82-6.76,6.72l-1.07-2.19c3.17-.49,5.42-1.76,5.42-4.59a2.74,2.74,0,0,0-2.93-2.67,7.54,7.54,0,0,0-5.11,2.31c0,.51,0,1,0,1.49,0,1.48,0,3,.11,4.68,0,.33.09,1,.13,1.39h-2.48c0-.39.06-1,.06-1.33,0-1.41,0-2.44.07-4-.77,1.14-1.66,2.46-2.28,3.33l-1.42-2c1-1.24,2.84-3.64,3.86-5.15l.08-1.26-3.28.42L217.79,24c.51,0,.93,0,1.57,0s1.31-.13,2.07-.24c0-.67.07-1.18.07-1.38a9.66,9.66,0,0,0-.07-1.6l2.64.07c-.11.51-.25,1.44-.4,2.57Z"/><path class="cls-2" d="M250.06,21.25A14.17,14.17,0,0,0,250,22.8c0,.71,0,1.34-.06,1.94l1.37-.09,1.73-.12v2.22c-.31,0-1.26,0-1.75,0l-1.38.08a31.44,31.44,0,0,1-.28,3.6c-.18.95-.63,1.18-1.56,1.18a22.4,22.4,0,0,1-2.71-.27l.05-2a11.21,11.21,0,0,0,1.66.22c.36,0,.51-.08.56-.42a21.53,21.53,0,0,0,.13-2.17c-1.59.13-3.35.29-4.9.46,0,1.65,0,3.31,0,4.07.06,1.77.2,2.17,2.91,2.17a34,34,0,0,0,5.39-.47L251,35.7a49.39,49.39,0,0,1-5.13.29c-4.68,0-5.24-1-5.32-4.09,0-.77,0-2.51,0-4.21l-1.21.13c-.57.07-1.7.26-2.17.33l-.24-2.31c.51,0,1.35,0,2.26-.11l1.36-.13V23.78a13.64,13.64,0,0,0-.14-2H243a13.07,13.07,0,0,0-.11,1.87c0,.42,0,1,0,1.73l4.92-.45v-2a15,15,0,0,0-.13-1.64Z"/><rect class="cls-1" x="0.5" y="0.5" width="274" height="57" rx="28.5"/></g></g></svg>