<svg xmlns="http://www.w3.org/2000/svg" viewBox="0 0 31 23.25"><defs><style>.cls-1{fill:#fff;}</style></defs><title>mail_icon</title><g id="レイヤー_2" data-name="レイヤー 2"><g id="レイヤー_1-2" data-name="レイヤー 1"><path class="cls-1" d="M31,8V20.34a2.91,2.91,0,0,1-2.91,2.91H2.91A2.91,2.91,0,0,1,0,20.34V8a.37.37,0,0,1,.59-.29c1.35,1.06,3.15,2.39,9.33,6.88,1.27.93,3.43,2.9,5.58,2.88s4.36-2,5.59-2.88c6.17-4.48,8-5.83,9.32-6.88A.37.37,0,0,1,31,8ZM11.06,13C3,7.16,2.41,6.65.56,5.2A1.47,1.47,0,0,1,0,4.06V2.91A2.91,2.91,0,0,1,2.91,0H28.09A2.91,2.91,0,0,1,31,2.91V4.06a1.44,1.44,0,0,1-.56,1.14C28.59,6.65,28,7.16,19.94,13c-1,.74-3,2.53-4.44,2.51S12.07,13.73,11.06,13Z"/></g></g></svg>