<?xml version="1.0" encoding="utf-8"?>
<!-- Generator: Adobe Illustrator 24.1.2, SVG Export Plug-In . SVG Version: 6.00 Build 0)  -->
<svg version="1.1" id="レイヤー_1" xmlns="http://www.w3.org/2000/svg" xmlns:xlink="http://www.w3.org/1999/xlink" x="0px"
	 y="0px" width="479.1px" height="154px" viewBox="0 0 479.1 154" style="enable-background:new 0 0 479.1 154;"
	 xml:space="preserve">
<style type="text/css">
	.st0{fill:#FFFFFF;}
</style>
<path class="st0" d="M56.8,68.7c0.2,0,0.3,0,0.5,0l2.3-4.7l-0.2-0.2c-0.2-0.2-0.4-0.4-0.5-0.6c0-0.2,0-0.3,0-0.4l3.2-4.1
	c0.1-0.1,0.3-0.1,0.4,0c0.2,0.1,0.4,0.2,0.6,0.4c0.2,0.2,0.3,0.3,0.4,0.5c0.1,0.1,0.1,0.3,0,0.5l-4,8.3c0.7-0.1,1.4-0.1,2.2-0.2
	c2.9-0.2,5.9-0.1,8.7,0.3c2.7-1.1,5.1-2.8,7.1-4.8c1.1-1.1,1.9-2.4,2.4-3.9c0.5-1.5,0.3-3.2-0.4-4.6c-0.9-1.5-2.1-2.7-3.7-3.5
	c-2.6-1.5-6.4-2.4-11.3-2.8c-4.5-0.1-9.1,0.6-13.3,2.1c-4.9,1.7-9.4,4.1-13.5,7.3c-3.5,2.6-6.5,5.7-8.9,9.3
	c-2.4,3.5-3.8,7.5-4.2,11.6c0,0.1-0.1,0.2-0.2,0.3c-0.2,0-0.4-0.1-0.6-0.2c-0.2-0.2-0.4-0.3-0.5-0.6c-0.1-0.2-0.2-0.3-0.2-0.5
	c0.4-4.2,1.9-8.3,4.2-11.9c2.4-3.6,5.5-6.8,9-9.4c4.2-3.2,8.8-5.6,13.7-7.3c4.4-1.6,9-2.3,13.6-2.1c5.2,0.4,9.3,1.4,12.1,3.1
	c2.2,1.1,4,2.9,5.2,5.1c0.8,1.7,1,3.7,0.4,5.5c-0.5,1.5-1.4,2.9-2.5,4.1c-1.6,1.7-3.5,3-5.6,4.1c1.9,0.5,3.7,1.4,5.3,2.6
	c1.5,1.1,2.6,2.7,3.2,4.5c0.4,1.3,0.4,2.7,0.1,4c-0.8,2.7-2.8,5.2-6.1,7.6c-3.7,2.5-7.7,4.5-11.9,5.8c-4.1,1.3-8.3,2.1-12.6,2.4
	c-4.1,0.3-8.2,0-12.2-1.1c-4.1-1.2-6.4-3.2-6.8-5.9c-0.3-2.5,0.8-5,3.1-7.5c2.5-2.6,5.7-4.4,9.2-5.4c2.9-0.8,6-0.8,8.9-0.1l1.6-3.2
	c-0.8-0.1-1.5-0.5-2.1-1c-0.2-0.2-0.4-0.5-0.5-0.8l0,0c-0.1-0.5,0.2-0.9,1-1.3C54.6,69.2,55.7,68.9,56.8,68.7z M59.4,72.9
	c-0.7,0.1-1.4,0.1-2.1,0l-1.7,3.6c3.4,1.5,6.3,3.9,8.4,7c0.2,0.2,0.3,0.4,0.2,0.5c0,0.1-0.1,0.2-0.3,0.3c-0.2,0-0.4-0.1-0.6-0.2
	c-0.2-0.1-0.4-0.3-0.6-0.5c-1.8-2.8-4.5-4.9-7.7-6l-2.3,4.7c-0.1,0.1-0.2,0.1-0.4,0.1c-0.2,0-0.4-0.2-0.6-0.3
	c-0.2-0.1-0.4-0.3-0.5-0.6c-0.1-0.1-0.1-0.3,0-0.5l1.9-3.9c-2.4-0.4-4.8-0.3-7.1,0.4c-3.4,0.9-6.5,2.7-9,5.2
	c-2.3,2.3-3.3,4.6-2.9,6.9c0.2,1.6,1.7,2.8,4.6,3.6c3.9,1,7.9,1.3,11.8,0.9c4.2-0.3,8.3-1.1,12.3-2.4c4.2-1.3,8.1-3.2,11.7-5.7
	c3.2-2.3,5.2-4.7,6-7.3c0.3-1.1,0.3-2.3,0-3.4c-0.6-1.6-1.7-3-3.2-3.8c-1.7-1-3.6-1.6-5.5-1.9c-0.9,0.4-1.7,0.7-2.6,1
	C66,71.9,62.7,72.6,59.4,72.9z M58.4,71.3c3.2-0.2,6.4-0.9,9.4-2c-1.6-0.1-3.3,0-4.9,0.1c-1.7,0.1-3.3,0.3-4.9,0.7
	c-1.1,0.2-2.2,0.5-3.2,0.9c-0.2,0.1-0.4,0.2-0.5,0.3C55.7,71.5,57,71.5,58.4,71.3L58.4,71.3z"/>
<path class="st0" d="M91.6,77.3c-1.4,0.8-3,1.4-4.6,1.7c-2.6,6.9,9.3,0.3,10.5-2.4c0.1-0.3,0.5-0.5,0.8-0.4c0.1,0,0.1,0.1,0.2,0.1
	c0.4,0.3,0.4,0.5,0.3,0.8c-1.1,2.3-7.8,7.8-11.1,6.3C86,82.7,85,81,85.1,79.2c0.2-1.3,0.7-2.5,1.6-3.5c0.8-1.1,1.8-2,2.8-2.9
	c0.8-0.8,1.8-1.4,2.9-1.6c0.4,0.1,0.8,0.3,1.2,0.6c0.5,0.4,0.7,1,0.7,1.6c0,0.5-0.2,0.9-0.3,1.3C93.4,75.8,92.6,76.7,91.6,77.3z
	 M88.3,76.9c0.7-0.3,1.3-0.6,2-0.9c0.9-0.6,1.6-1.5,2.1-2.5c0.1-0.2,0.1-0.3,0.2-0.5c-0.6,0.4-1.2,0.8-1.7,1.3
	C89.9,75,89,75.9,88.3,76.9z"/>
<path class="st0" d="M97.8,78c-0.3,0.4-0.8,0.5-1.1,0.2c0,0,0,0,0,0c-0.4-0.4,0.5-1.3,0.7-1.5l3.1-4.4c0.3-0.4,0.6-0.8,1-1.1
	c0.2-0.2,0.6-0.1,1,0.3c0.3,0.4,0.6,0.8,0.5,1l-1.1,1.1c-0.9,1.2-2,3.2-1.3,5.3c0.3,1,0.4,2.1,0,3.2c-0.2,0.4-0.5,0.8-0.8,1.1
	c-0.3,0.3-0.6,0.5-1,0.6c-0.6,0.2-1.2,0.2-1.8-0.1c-1.4-0.6-2.1-2.2-1.5-3.6c0-0.1,0.1-0.1,0.1-0.2c0.1-0.2,0.5-0.2,1,0.2
	c0.4,0.2,0.6,0.6,0.6,1c0,0-0.5,1.2-0.4,1.3c0.3,0.1,0.6,0,0.9-0.1c0.3-0.1,0.6-0.2,0.9-0.5c0.3-0.2,0.5-0.5,0.6-0.9
	c0.3-0.8,0.3-1.7,0-2.5c0-0.6-0.5-0.6,0.5-2.7L97.8,78z"/>
<path class="st0" d="M116.1,54.4c0.1-0.2,0.6-0.1,1,0.2c0.4,0.4,0.6,0.8,0.5,1c-0.1,0.2-3,4.9-6.1,10.5l11.6-0.9
	c0.5,0.1,0.9,0.3,1.1,0.7c0.3,0.4,0.3,0.8,0,0.8l-13.6,1.1c-0.8,1.5-1.7,3.1-2.5,4.7l0,0c0,0.2-0.1,0.3-0.2,0.3
	c-2.4,4.7-3.7,7.5-3.1,8.4c0.9,1.5,9.6-6.6,9.6-6.7c0.2-0.2,0.4-0.3,0.8,0.1c0.2,0.1,0.3,0.4,0.1,0.6c0,0.1-0.1,0.1-0.1,0.1
	c0,0-9.6,11.1-12.2,7.2c-0.8-1.2,1-5.8,3.5-10.8l0.2-0.5c-0.2-3.5-11.8-2.1-11.8-2.1c-0.5-0.1-0.9-0.3-1.1-0.7
	c-0.3-0.4-0.3-0.8,0-0.8l15.4-1.2C112.6,60.1,116,54.4,116.1,54.4z M107.2,70.3l1.2-2.3l-5.8,0.2C104.1,68.7,106.4,69.4,107.2,70.3z
	"/>
<path class="st0" d="M165.9,58.8c-0.2-0.3-0.3-0.6-0.2-0.7l2.1-3.1c0.1-0.2,0.6,0,1,0.2s0.6,0.8,0.5,1s-0.9,1.9-2.3,4.7
	c0.6,0.6,1.1,1.2,1.5,1.9c0.3,0.4,0.2,0.8-0.1,0.8c-0.4,0-0.8-0.4-1.1-0.7c-0.3-0.4-0.5-0.7-0.8-1.1c-1.5,2.8-3.4,6.5-5.5,10.1
	c6.2-1.2,11.9-4.2,16.4-8.6c1.6-1.6,2.9-3.4,3.8-5.5c0.8-1.7,1-3.6,0.7-5.4c-0.3-1.5-1-2.9-2.2-4c-3.3-3.2-11.1-4.2-19.7-3.2
	c-8.6,1-17.7,4.1-24.2,8.9c-2.9,2.1-5.2,5-6.6,8.4c-0.5,1.3-0.7,2.6-0.6,4c0.1,1.2,0.5,2.3,1.2,3.3c1.1,1.4,2.6,2.4,4.3,2.9
	c0.4,0.2,0.8,0.5,1,1c0.1,0.4-0.1,0.6-0.6,0.5c-2.3-0.8-4.4-2.2-5.9-4.1c-0.9-1.3-1.5-2.8-1.6-4.3c-0.1-1.5,0.2-2.9,0.7-4.3
	c1.4-3.4,3.8-6.3,6.8-8.5c6.6-4.9,15.9-8,24.5-9c9.1-1.1,17.5,0.2,21.5,4.1c1.5,1.4,2.6,3.3,3,5.4c0.3,2,0,4-0.8,5.9
	c-0.9,2.1-2.3,4-3.9,5.6c-4.7,4.6-10.7,7.6-17.2,8.8c-0.6,0.1-1.1,0.2-1.7,0.3c-4.5,7.8-9.5,15.3-12.3,15.9
	c-1.4,0.2-2.1-0.5-2.4-2.1c-0.4-2.3,1.1-8,3.7-13.7c0.1-0.2,0.2-0.5,0.3-0.7l-0.5-0.2c-1.4-0.6-2.6-1.5-3.5-2.6l0,0
	c-0.7-0.9-1.2-2-1.4-3.1c-0.2-1.1-0.1-2.2,0.4-3.2c0.1-0.2,0.5-0.2,1,0.2c0.4,0.3,0.7,0.8,0.5,1.1c-0.4,0.9-0.5,1.8-0.3,2.7
	c0.1,0.7,0.4,1.4,0.9,2l0,0c0.6,0.7,1.3,1.3,2.1,1.6c0.4,0.2,0.9,0.4,1.3,0.5c2.5-5.1,5.8-10,9.1-12.1c2.1-1.3,4.4-1.7,6.4-0.4
	L165.9,58.8z M157.6,74.1c-2.1,0.2-4.3,0.1-6.4-0.4c-0.2,0.5-0.4,0.9-0.6,1.4c-2.5,5.4-4,10.8-3.7,13.1
	C149.3,87.4,153.5,81.1,157.6,74.1z M151.8,72.6c2.3,0.3,4.5,0.2,6.8-0.2c2.4-4.2,4.7-8.5,6.3-11.7c-1.6-0.5-3.3-0.2-4.6,0.8
	C157.3,63.5,154.3,67.8,151.8,72.6L151.8,72.6z"/>
<path class="st0" d="M186.9,68.6c0.2,0.4,0.1,0.7-0.3,0.7c-0.5-0.1-0.8-0.4-1.1-0.8c-1-0.8-3.1,0.4-3.9,1.2
	c-1.5,1.4-2.5,3.3-2.7,5.4c1.6-0.6,5.3-5.8,5.3-5.8c0.2-0.2,0.6,0,1,0.3c0.4,0.3,0.6,0.7,0.4,1c-0.3,0.9-0.4,1.8-0.1,2.7
	c0.3,1.1,5.8-4.4,5.9-4.4c0.2-0.3,0.6-0.3,0.8-0.1c0,0,0.1,0,0.1,0.1c0.4,0.4,0.4,0.7,0.2,0.9c-1.7,2-3.6,3.8-5.6,5.4
	c-2,1.3-3.7,0.8-3.8-1.5c-1.5,1.7-3.1,3.2-4.1,2.9c-0.4-0.1-0.7-0.3-1-0.6c-0.5-0.5-0.7-1.2-0.7-1.9c0-0.6,0.1-1.2,0.4-1.8
	c0.6-1.5,1.4-2.8,2.5-3.9C182.2,66.4,185.9,66,186.9,68.6z"/>
<path class="st0" d="M193.7,63.9c0.1-0.2,0.6-0.1,1,0.2c0.4,0.3,0.7,0.8,0.5,1.1l-1.5,2.8c1.5-0.9,3.7-1.8,4.7-0.7
	c0.5,0.4,0.4,1.5,1,1.5c1.1-0.1,2.3-0.3,3.3-0.8c0.3-0.1,0.5-0.4,0.8,0s0.2,0.6-0.1,0.6c-1.4,0.6-2.9,1-4.4,1.1
	c-1.2,0-1.6-0.3-2.7-1.4c-0.7-0.8-4.5,3.2-4.5,3.2s-2.1,4.3-2.3,4.7c-0.1,0.2-0.6,0.1-1-0.2c-0.4-0.3-0.7-0.8-0.5-1.1L193.7,63.9z"
	/>
<path class="st0" d="M214.1,46.6c0.1-0.2,0.6-0.1,1,0.2s0.6,0.8,0.5,1c-0.1,0.2-3,4.9-6.1,10.5l11.7-0.9c0.5,0.1,0.9,0.3,1.1,0.7
	c0.3,0.4,0.3,0.8,0,0.8l-13.6,1.1c-0.8,1.5-1.7,3.1-2.5,4.7l0,0c0,0.2-0.1,0.3-0.2,0.3c-2.4,4.7-3.7,7.5-3.1,8.4
	c0.9,1.5,9.6-6.6,9.6-6.7c0.2-0.2,0.4-0.3,0.8,0.1c0.4,0.4,0.1,0.6,0,0.8c-0.2,0.1-9.6,11.1-12.2,7.2c-0.8-1.2,1-5.8,3.5-10.8
	l0.2-0.5c-0.2-3.5-11.8-2.1-11.8-2.1c-0.5-0.1-0.9-0.3-1.1-0.7c-0.3-0.4-0.3-0.8,0-0.8l15.4-1.2C210.6,52.3,214,46.7,214.1,46.6z
	 M205.2,62.6l1.2-2.3l-5.7,0.3C202.1,60.9,204.4,61.7,205.2,62.6z"/>
<path class="st0" d="M213.4,64.7c0.1-0.2,0.6-0.2,1,0.2c0.4,0.3,0.7,0.8,0.6,1.1l-1,2.1c2.3-2.2,4.8-4.5,5.9-4.3l0.1,0
	c0.9,0.1,1.6,0.9,1.6,1.8c0,0.2,0,0.3-0.1,0.5c-0.2,0.6-0.4,1.3-0.6,1.9c-0.5,1.2-1.1,2.6-1.1,2.6c1.5,0.8,6.1-3.9,6.2-3.9
	c0.1-0.2,0.6-0.8,1-0.4s0.2,0.4,0.1,0.7c0,0-4.5,6.3-7,4.9c-2.2-1.2-1.3-3.3-0.6-5.1c0.2-0.4,0.3-0.8,0.4-1.2
	c-2.5,1.6-8.1,7.9-8.3,8.1c-0.2,0.2-0.6,0-0.9-0.2s-0.7-0.8-0.6-1.1L213.4,64.7z"/>
<path class="st0" d="M230.9,66.3c-1.4,0.8-3,1.4-4.6,1.7c-2.6,6.9,9.3,0.3,10.5-2.4c0.1-0.3,0.5-0.5,0.8-0.4c0.1,0,0.1,0.1,0.2,0.1
	c0.4,0.3,0.4,0.5,0.3,0.8c-1.1,2.3-7.8,7.8-11.1,6.3c-1.7-0.8-2.7-2.5-2.5-4.3c0.2-1.3,0.7-2.5,1.6-3.5c0.8-1.1,1.7-2,2.8-2.9
	c0.8-0.8,1.8-1.4,3-1.6c0.4,0.1,0.8,0.3,1.2,0.6c0.5,0.4,0.7,1,0.7,1.6c0,0.5-0.2,0.9-0.4,1.3C232.8,64.7,232,65.7,230.9,66.3z
	 M227.6,65.8c0.7-0.3,1.3-0.6,2-0.9c0.9-0.6,1.6-1.5,2.1-2.5c0.1-0.2,0.1-0.3,0.2-0.5c-0.6,0.4-1.2,0.8-1.7,1.3
	C229.3,64,228.4,64.9,227.6,65.8z"/>
<path class="st0" d="M239.3,60.3c0.1-0.2,0.6-0.1,1,0.2c0.4,0.3,0.7,0.8,0.5,1.1l-1.5,2.8c1.5-0.9,3.7-1.8,4.7-0.7
	c0.5,0.4,0.4,1.5,1,1.5c1.1-0.1,2.3-0.3,3.3-0.8c0.3-0.1,0.5-0.4,0.8,0s0.2,0.6-0.1,0.6c-1.4,0.6-2.9,1-4.4,1.1
	c-1.2,0-1.6-0.3-2.7-1.4c-0.7-0.8-4.5,3.2-4.5,3.2s-2.1,4.3-2.3,4.7c-0.1,0.2-0.6,0.1-1-0.2c-0.4-0.3-0.7-0.8-0.5-1.1L239.3,60.3z"
	/>
<path class="st0" d="M264.8,60.9c0.2-0.2,0.6-0.1,1,0.4c0.4,0.4,0.5,0.8,0.4,1c-0.1,0.1-0.2,0.2-0.3,0.3c-0.9,1.1-1.6,2.5-1.9,3.9
	c-0.3,0.9-0.3,1.8-0.1,2.8c0.3,0.1,0.6,0,0.9-0.1c0.5-0.2,0.9-0.6,1.3-1c0.7-0.7,1.2-1.6,1.6-2.6c0.3-0.6,0.5-1.3,0.6-1.9
	c-0.8-0.6-1.5-1.3-2-2.2c-0.4-0.7-0.6-1.4-0.6-2.2c0-0.6,0.3-1.1,0.8-1.2c0.4-0.1,0.8,0,1.2,0.1c0.7,0.3,1.2,0.8,1.5,1.4
	c0.3,0.5,0.5,1,0.6,1.6c0.1,0.6,0.2,1.3,0.2,2c1.4,0.2,2.9-0.1,4.1-0.9c0.2-0.2,0.4-0.4,0.8,0c0.4,0.4,0.3,0.7,0.1,0.9
	c-2,1.3-3.6,1.7-5.1,1.3c-0.1,0.8-0.3,1.6-0.7,2.4c-0.4,1-1,1.9-1.7,2.7c-0.4,0.5-0.9,0.8-1.5,1.1c-0.6,0.2-1.2,0.2-1.8,0
	c-0.4-0.2-0.7-0.4-1-0.7l-0.3-0.3c-0.8-1.3-1-2.9-0.5-4.3c0.3-1.5,1.1-2.9,2.1-4.1C264.5,61.2,264.7,61,264.8,60.9z M268.3,62.6
	c0-0.7,0-1.4-0.2-2.1c-0.1-0.3-0.2-0.7-0.3-1l0,0c-0.1,0-0.2,0-0.3,0c-0.3,0-0.4,0.3-0.4,0.7c0,0.5,0.1,1,0.4,1.4
	C267.7,62.1,267.9,62.4,268.3,62.6z"/>
<path class="st0" d="M278.2,54.7c-0.2-0.1-0.3-0.2-0.4-0.4c-0.3-0.4-0.3-0.8,0-0.8s1.6-1.4,2.7-3l0.3-0.4c0.7-1.3,1.3-2.4,1.7-3.3
	c0.3-0.7,0.7-1.4,1.1-2c0-0.2,0.2-0.2,0.4-0.2l0,0c0.9,0.2,1.3,0.7,1.1,1.5c-0.8,1.8-1.7,3.6-2.9,5.2c-0.8,1.4-1.7,3-2.7,4.7
	c-1.2,2-3.1,5.3-5.1,8.7c3,0.1,5.9-1,8.2-2.9c0.2-0.2,0.4-0.5,0.7-0.1c0.3,0.4,0.6,0.8,0.4,1c-2.7,2.6-6.4,3.9-10.1,3.5l-0.3,0.4
	c0.2,1.9,0.2,3.9-0.1,5.8c-0.2,1.9-1,3.7-2.2,5.1c-1,1.4-2.5,2.3-4.2,2.7l0,0c-0.1,0-0.1,0-0.2,0l-0.1,0c-1.1-0.4-1.3-1.4-0.8-2.7
	c0.4-0.9,0.9-2,1.6-3.4c1.2-2.4,2.8-5.4,4.5-8.4c0-0.2-0.1-0.3-0.1-0.5c-0.2-0.4-0.1-0.7,0.4-0.6l0,0c0.1,0,0.2,0.1,0.3,0.1
	c2.2-3.9,4.4-7.5,5.7-9.7L278.2,54.7z M272,69.2c-1.2,2.2-2.3,4.2-3.2,5.9c-0.6,1.2-1.1,2.2-1.4,3c0.8-0.5,1.6-1.1,2.2-1.9
	c1.1-1.4,1.8-3,2.1-4.8C271.9,70.6,272,69.9,272,69.2z"/>
<path class="st0" d="M303,46.4c-0.2,0.2-1.5-0.3-1.9-0.6s-0.7-0.8-0.5-1c4-6.7,17.7-11.1,25.4-11.1c2.3,0,4.2,0.4,5.2,1.3
	c0.5,0.4,0.9,1,0.9,1.7c0,1.9-1.9,5.4-3.9,9.2c-2.3,4.4-4.8,9.1-4.8,11.8c0.1,0.8,0.3,1.9,1.6,1.8c5.3-0.1,13.8-9.9,19.4-16.2
	c3.1-3.5,5.4-6.1,6.4-5.9c1.2,0.3,1.6,1,1.3,2.5c-0.3,1.2-0.9,3.4-1.9,6.3c-0.6,1.8-1.4,3.9-2.2,6.1c0.6-0.3,1.2-0.6,1.8-0.8
	c0.2-0.1,0.8,0.1,1.1,0.5c0.3,0.4,0.4,0.8,0.2,1c-1.4,0.6-2.7,1.2-4.1,1.9c-2.6,6.9-5.7,13.6-9.2,20.1c-5.3,9.7-11.4,17.3-16.8,16
	l-0.6-0.1l0,0c-1.5-0.5-2.8-1.4-3.9-2.6c-3.8-4.8,0.6-12.3,3.6-16c5.7-6.7,15.7-13.7,25.4-18.7c1.3-3.1,2.3-6.1,3.1-8.5
	c0.7-2.1,1.3-3.8,1.6-5c-1,1-2.5,2.7-4.3,4.7c-5.7,6.4-14.1,15.8-19.7,15.9c-3.1,0.1-4.3-1.5-4.4-3.8c0-2.9,2.5-7.7,4.8-12.1
	c1.9-3.7,3.8-7.2,3.8-8.9c0-0.1,0.1,0,0-0.1c-0.4-0.4-1.7-0.6-3.5-0.5C319.1,35.2,307.1,39.3,303,46.4z M336.3,73.6
	c3.1-5.6,5.8-11.5,8.2-17.4c-8.3,4.5-15.8,10.5-22.1,17.6c-2.3,2.8-7.9,10.3-4.9,14c0.6,0.7,1.4,1.2,2.3,1.4l0,0
	c0.1,0,0.3,0.1,0.4,0.1C325.2,90.5,331,83.1,336.3,73.6z M351.6,38.9C351.6,38.9,351.6,38.9,351.6,38.9
	C351.7,39,351.8,39,351.6,38.9z"/>
<path class="st0" d="M354.3,53.8c0.2-0.2,0.6-0.1,1,0.4s0.5,0.8,0.3,1c-0.1,0.1-0.2,0.2-0.3,0.3c-0.9,1.1-1.6,2.5-1.9,3.9
	c-0.3,0.9-0.3,1.8-0.1,2.8c0.3,0.1,0.6,0,0.9-0.1c0.5-0.2,0.9-0.6,1.3-1c0.7-0.7,1.2-1.6,1.6-2.6c0.3-0.6,0.5-1.3,0.6-1.9
	c-0.8-0.6-1.5-1.3-2-2.2c-0.4-0.7-0.6-1.4-0.6-2.2c0-0.6,0.3-1.1,0.8-1.2c0.4-0.1,0.8,0,1.2,0.1c0.7,0.3,1.2,0.8,1.5,1.4
	c0.3,0.5,0.5,1,0.6,1.6c0.1,0.6,0.2,1.3,0.2,2c1.4,0.2,2.9-0.1,4.1-0.9c0.2-0.2,0.4-0.4,0.8,0c0.4,0.4,0.3,0.7,0.1,0.9
	c-2.1,1.3-3.6,1.7-5.1,1.3c-0.1,0.8-0.3,1.6-0.7,2.4c-0.4,1-1,1.9-1.7,2.6c-0.4,0.5-0.9,0.8-1.5,1.1c-0.6,0.2-1.2,0.2-1.8,0
	c-0.4-0.2-0.7-0.4-1-0.7l-0.3-0.3c-0.8-1.3-1-2.9-0.5-4.3c0.4-1.5,1.1-2.9,2.1-4.1C354,54.1,354.1,53.9,354.3,53.8z M357.8,55.5
	c0-0.7,0-1.4-0.2-2.1c-0.1-0.3-0.2-0.7-0.3-1l0,0c-0.1,0-0.2,0-0.3,0c-0.3,0-0.4,0.3-0.4,0.7c0,0.5,0.1,1,0.4,1.4
	C357.1,55,357.4,55.3,357.8,55.5z"/>
<path class="st0" d="M365.7,51.2c0.2-0.2,0.6-0.1,1,0.3c0.4,0.3,0.6,0.8,0.5,1.1c-3.1,4.2-3.2,7-2.9,7.2c0.6,0.4,3.9-2.1,6.1-6.4
	l0.1-0.2c0.2-0.2,0.6-0.1,1,0.3c0.4,0.3,0.6,0.8,0.4,1c-0.1,0.1-0.2,0.2-0.3,0.3c-0.5,0.8-3.6,5.9-0.3,4c1.9-1.2,3.5-2.7,4.7-4.5
	c0.2-0.2,0.3-0.7,0.8-0.3c0.2,0.1,0.3,0.5,0.2,0.7c0,0-0.1,0.1-0.1,0.1c-1.1,1.7-2.7,4-4.4,5c-1.5,0.9-3.6,0.7-4-1.3
	c-4.2,4.2-8,3.8-6-2C363.3,54.7,364.3,52.8,365.7,51.2z"/>
<path class="st0" d="M378.4,49.3c0.1-0.2,0.6-0.1,1,0.2c0.4,0.3,0.7,0.8,0.5,1.1l-1.5,2.8c1.5-0.9,3.7-1.8,4.7-0.7
	c0.4,0.4,0.4,1.5,1,1.5c1.1-0.1,2.3-0.3,3.3-0.8c0.3-0.1,0.5-0.4,0.8,0c0.3,0.4,0.2,0.6-0.1,0.6c-1.4,0.6-2.9,1-4.4,1.1
	c-1.2,0-1.6-0.3-2.7-1.4c-0.8-0.8-4.5,3.2-4.5,3.2s-2.1,4.3-2.3,4.7c-0.1,0.2-0.6,0.1-1-0.2c-0.4-0.3-0.7-0.8-0.6-1.1L378.4,49.3z"
	/>
<path class="st0" d="M415.3,51.4c0.1-0.2,0.3-0.3,0.5-0.3c0.1,0,0.1,0,0.1,0.1c0.4,0.2,0.6,0.5,0.6,0.7c-1,2.1-9.6,10.2-12.2,11.8
	c-1.6,1-4.3,2-5.5,0.3c-3-3.6,12.6-30,13-30.2c1-1.9,2.6-3.4,4.5-4.3c0.5-0.2,1-0.2,1.5-0.1c0.7,0.1,1.4,0.7,1.7,1.4
	c0.2,1.2,0,2.4-0.6,3.4c-2.5,6.1-13.9,16.3-14,16.3s-0.1,0-0.2,0c-2.9,6-4.8,11.5-4.1,12.8c0.5,0.6,2.4-0.3,2.8-0.6
	C405.9,61.2,414.3,53.4,415.3,51.4z M413.1,34.7c0,0-3.3,5.7-6.5,12c3.5-3.5,9.2-9.3,10.8-13.4c0.5-0.9,0.7-2,0.5-3
	c-0.2,0-0.4,0.1-0.6,0.1C415.6,31.4,414.1,32.9,413.1,34.7z"/>
<path class="st0" d="M417.8,47.5c0.2-0.2,0.7-0.1,1.1,0.3c0.4,0.4,0.6,0.8,0.4,1c-1.4,1.5-2.5,3.2-3.3,5.1c-0.5,1.3-0.4,2.1,0,2.2
	c1.9,0.1,6.6-5.2,6.6-5.2c0.2-0.2,0.5-0.6,0.9-0.2c0.4,0.4,0.3,0.5,0.1,0.7c0,0-7,8.8-9.2,5.5c-0.7-1.1-0.5-2.7,0.1-4.3
	C415.2,50.8,416.3,49,417.8,47.5z M420.5,45.9c-0.2,0.2-0.6,0.1-1-0.2c-0.4-0.3-0.6-0.8-0.4-1.1l2.4-3.1c0.2-0.2,0.6,0,1,0.2
	c0.4,0.3,0.6,0.8,0.5,1.1L420.5,45.9z"/>
<path class="st0" d="M426.9,42.9c-0.2-0.1-0.3-0.2-0.4-0.4c-0.3-0.4-0.3-0.8,0-0.8s1.6-1.4,2.7-3l0.3-0.4c0.7-1.3,1.3-2.4,1.7-3.3
	c0.3-0.7,0.7-1.4,1.1-2c0-0.2,0.2-0.2,0.4-0.2l0,0c0.9,0.2,1.3,0.7,1.1,1.5c-0.8,1.8-1.8,3.6-2.9,5.2c-0.8,1.4-1.7,3-2.7,4.7
	c-1.2,2-3.1,5.3-5.1,8.7c3,0.1,5.9-1,8.2-2.9c0.2-0.2,0.4-0.5,0.7-0.2s0.6,0.8,0.3,1c-2.7,2.6-6.4,3.9-10.1,3.5l-0.3,0.4
	c0.2,1.9,0.2,3.9-0.1,5.8c-0.2,1.9-1,3.7-2.2,5.2c-1,1.4-2.5,2.3-4.2,2.7l0,0c-0.1,0-0.2,0-0.2,0l-0.1,0c-1.1-0.4-1.3-1.4-0.8-2.7
	c0.3-0.9,0.9-2,1.6-3.4c1.2-2.4,2.8-5.4,4.5-8.4c0-0.2-0.1-0.3-0.1-0.5c-0.2-0.4-0.1-0.7,0.4-0.6l0,0c0.1,0,0.2,0.1,0.3,0.1
	c2.2-3.9,4.4-7.5,5.7-9.7L426.9,42.9z M420.7,57.4c-1.2,2.2-2.3,4.2-3.2,5.9c-0.6,1.2-1.1,2.2-1.4,3c0.8-0.5,1.6-1.1,2.2-1.9
	c1.1-1.4,1.8-3,2.1-4.8C420.6,58.8,420.7,58.1,420.7,57.4z"/>
<path class="st0" d="M436.4,50c-1.4,0.8-3,1.4-4.6,1.7c-2.6,6.9,9.3,0.3,10.5-2.4c0.1-0.3,0.5-0.5,0.8-0.4c0.1,0,0.1,0.1,0.2,0.1
	c0.4,0.3,0.4,0.5,0.3,0.8c-1.1,2.3-7.8,7.8-11.1,6.3c-1.7-0.8-2.7-2.5-2.5-4.3c0.2-1.3,0.7-2.5,1.6-3.5c0.8-1.1,1.7-2,2.8-2.9
	c0.8-0.8,1.8-1.4,2.9-1.6c0.5,0.1,0.9,0.3,1.2,0.6c0.5,0.4,0.7,1,0.7,1.6c0,0.5-0.2,0.9-0.4,1.3C438.3,48.4,437.5,49.4,436.4,50z
	 M433.1,49.6c0.7-0.3,1.3-0.6,2-0.9c0.9-0.6,1.6-1.5,2.1-2.5c0.1-0.2,0.1-0.3,0.2-0.5c-0.6,0.4-1.2,0.8-1.7,1.3
	C434.8,47.7,433.9,48.6,433.1,49.6L433.1,49.6z"/>
<path class="st0" d="M164.1,128.8c0-3.3,1.9-5.3,4.5-5.3c1.1,0,2.1,0.5,2.8,1.3l-0.6,0.8c-0.5-0.6-1.3-1-2.1-1c-2,0-3.3,1.6-3.3,4.3
	c0,2.6,1.3,4.3,3.3,4.3c1,0,1.9-0.4,2.4-1.2l0.6,0.7c-0.8,0.9-1.9,1.5-3.1,1.5C166,134.1,164.1,132.1,164.1,128.8z"/>
<path class="st0" d="M173.1,128.8c0-3.3,1.8-5.3,4.4-5.3s4.4,2,4.4,5.3c0,3.3-1.8,5.4-4.4,5.4S173.1,132.1,173.1,128.8z
	 M180.6,128.8c0-2.6-1.2-4.3-3.2-4.3s-3.2,1.6-3.2,4.3c0,2.6,1.2,4.4,3.2,4.4S180.6,131.4,180.6,128.8z"/>
<path class="st0" d="M184.1,123.6h1.4l2,5.6c0.2,0.7,0.5,1.5,0.8,2.2h0.1c0.2-0.7,0.5-1.5,0.7-2.2l2-5.6h1.4v10.3h-1.1v-6
	c0-0.9,0.1-2.1,0.1-3h-0.1l-0.8,2.3l-2,5.6h-0.8l-2-5.6l-0.8-2.3l0,0c0,0.9,0.1,2.1,0.1,3v6h-1.1L184.1,123.6z"/>
<path class="st0" d="M195.4,123.6h1.4l2,5.6c0.2,0.7,0.5,1.5,0.7,2.2h0.1c0.3-0.7,0.5-1.5,0.7-2.2l2-5.6h1.4v10.3h-1.1v-6
	c0-0.9,0.1-2.1,0.1-3h-0.1l-0.8,2.3l-2,5.6h-0.8l-2-5.6l-0.8-2.3h-0.1c0.1,0.9,0.1,2.1,0.1,3v6h-1.1L195.4,123.6z"/>
<path class="st0" d="M206.1,128.8c0-3.3,1.8-5.3,4.4-5.3s4.4,2,4.4,5.3c0,3.3-1.8,5.4-4.4,5.4S206.1,132.1,206.1,128.8z
	 M213.7,128.8c0-2.6-1.3-4.3-3.2-4.3s-3.1,1.6-3.1,4.3c0,2.6,1.2,4.4,3.1,4.4S213.7,131.4,213.7,128.8z"/>
<path class="st0" d="M217.1,123.6h1.2l3.9,6.7l1.1,2.1h0.1c-0.1-1-0.1-2.1-0.1-3.2v-5.6h1.1v10.3h-1.2l-3.9-6.7l-1.1-2.1h-0.1
	c0.1,1,0.1,2.1,0.1,3.1v5.7h-1.1L217.1,123.6z"/>
<path class="st0" d="M226.5,132.6l0.7-0.8c0.7,0.8,1.8,1.3,2.9,1.3c1.4,0,2.3-0.7,2.3-1.8s-0.8-1.5-1.8-1.9l-1.5-0.7
	c-1.2-0.3-2-1.4-2.1-2.6c0-1.6,1.4-2.7,3.2-2.7c1.1,0,2.2,0.5,3,1.3l-0.6,0.8c-0.6-0.6-1.5-1-2.4-1c-1.2,0-2,0.6-2,1.6
	s0.9,1.4,1.7,1.8l1.5,0.6c1.2,0.5,2.1,1.2,2.1,2.8s-1.3,2.9-3.5,2.9C228.7,134.1,227.4,133.6,226.5,132.6z"/>
<path class="st0" d="M238.8,123.6h1.2v9.3h4.6v1h-5.7V123.6z"/>
<path class="st0" d="M251,130.7h-3.9l-1.1,3.3h-1.2l3.6-10.4h1.3l3.5,10.3H252L251,130.7z M250.7,129.8l-0.5-1.7
	c-0.4-1.2-0.7-2.3-1.1-3.5H249c-0.3,1.2-0.7,2.3-1.1,3.5l-0.5,1.7H250.7z"/>
<path class="st0" d="M253.7,123.6h1.2l1.2,5.7c0.2,1.1,0.4,2.2,0.6,3.3h0.1c0.2-1.1,0.5-2.2,0.7-3.3l1.5-5.7h1.1l1.5,5.7
	c0.2,1.1,0.5,2.2,0.8,3.3h0.1c0.2-1.1,0.4-2.2,0.6-3.3l1.1-5.7h1.1l-2.2,10.3h-1.4l-1.7-6.4c-0.2-0.8-0.3-1.5-0.5-2.3h-0.1
	c-0.1,0.8-0.4,1.5-0.5,2.3l-1.6,6.4H256L253.7,123.6z"/>
<path class="st0" d="M269.6,128.8c0-3.3,1.8-5.3,4.4-5.3s4.4,2,4.4,5.3c0,3.3-1.8,5.4-4.4,5.4S269.6,132.1,269.6,128.8z
	 M277.1,128.8c0-2.6-1.3-4.3-3.2-4.3s-3.1,1.6-3.1,4.3c0,2.6,1.2,4.4,3.1,4.4S277.1,131.4,277.1,128.8z"/>
<path class="st0" d="M280.6,123.6h5.9v1h-4.7v3.6h4v1h-4v4.7h-1.2L280.6,123.6z"/>
<path class="st0" d="M288.3,123.6h5.9v1h-4.7v3.6h4v1h-4v4.7h-1.2L288.3,123.6z"/>
<path class="st0" d="M296,123.6h1.2v10.3H296V123.6z"/>
<path class="st0" d="M299.5,128.8c0-3.3,1.9-5.3,4.5-5.3c1.1,0,2.1,0.5,2.8,1.3l-0.6,0.8c-0.5-0.6-1.3-1-2.1-1c-2,0-3.4,1.6-3.4,4.3
	c0,2.6,1.3,4.3,3.3,4.3c1,0,1.9-0.4,2.4-1.2l0.6,0.7c-0.8,1-1.9,1.5-3.1,1.5C301.3,134.1,299.5,132.1,299.5,128.8z"/>
<path class="st0" d="M309,123.6h5.9v1h-4.7v3.4h4v1h-4v4h4.8v1h-6V123.6z"/>
</svg>
