<svg xmlns="http://www.w3.org/2000/svg" viewBox="0 0 378.36 296"><defs><style>.cls-1,.cls-3{fill:#fe7573;}.cls-2{fill:#018a8c;}.cls-3{opacity:0.78;}.cls-4{fill:#fff;}</style></defs><g id="レイヤー_2" data-name="レイヤー 2"><g id="レイヤー_1-2" data-name="レイヤー 1"><rect class="cls-1" x="230.2" width="144" height="31"/><g id="NqMYaz.tif"><path class="cls-2" d="M200.2,296c-2.4-2.48-4.6-5.23-7.28-7.36-2.12-1.68-5-2.4-7.25-3.9a30.09,30.09,0,0,1-4.25-4.13,41.59,41.59,0,0,1,5.3-1.84c2.73-.56,5.68-.35,8.25-1.26,4.73-1.68,5.25-5.17,1.67-8.7-4.25-4.19-4.46-6.15-1.37-11.2a5,5,0,0,0,1-2.69c-.61-5.41-1.29-10.82-2.15-16.2-.61-3.73.12-6.81,2.91-9.53,5.53-5.37,5.78-8.2,1.68-14.71-.44-.7-.89-1.41-1.37-2.08-5.6-7.74-5.71-7.82.5-15.31,1.06-1.28,3.32-1.94,5.12-2.18,5.31-.68,6.39-1.9,5.41-7-1.09-5.71-.28-7.64,5.54-9,7-1.58,11.11-6,14.81-11.6a62.22,62.22,0,0,1,9.28-11c3.79-3.6,4.77-7.13.92-11.06-5.57-5.67-11.64-10.87-17.74-16-2.74-2.3-6.34.27-7.13,4.78-1,5.89-2.93,7.14-10.62,5.87,2.44-4.47,4.5-8.71,7-12.67,1.57-2.48,2.56-4.54.57-7.22a33.41,33.41,0,0,1-2.53-4.82c-3.47-6.81-.71-13.91,0-20.57.94-8.64-2.41-14.9-6.41-21.74-3.19-5.44-5-11.68-7.47-17.55-1.1-2.64-2.18-5.3-3.43-7.87-1.38-2.83-3-5.57-4.44-8.35l1.59-.88c.6,1,1.18,2,1.82,2.88,2.24,3.27,4.46,6.56,6.79,9.76s4.6,6,6.88,9c.6.79.93,2.06,1.7,2.41,6.66,3.07,8.79,11.47,15.13,14,7.51,3,13.46,9.46,22.19,9.87,1.9.09,4.25,1.94,5.45,3.64,2.65,3.75,5.61,4,9.54,2.48,2.17-.82,4.68-.72,7-1.13,6.15-1,12.09-3.36,18.51-2.87.85.06,2-1.19,2.68-2.08A16.31,16.31,0,0,1,298,80c4.18-.41,8-4.56,12.53-1.12,1-1.32,2.49-2.53,2.8-4,.85-4,2.61-4.69,5.82-2.33,5.76,4.24,11.72,8.15,15,15.06.86,1.83,3.7,3.26,5.9,3.84,5.29,1.4,8.58,4.37,11.79,9,4,5.69,9.66,10.32,15.12,14.78,1.65,1.34,5,.58,7.58.77,1.29.1,2.58.18,3.87.27-.24,2-.12,4.21-.88,6-.34.8-3.05,1.61-3.68,1.12-4.46-3.49-8.47-.57-12.74.31-3.39.69-7,.43-10.43.86-2.73.35-5.83.44-8.06,1.8-20.19,12.33-37,27.91-45,50.88-3,8.64-4.56,17.76-.26,26.72a6.65,6.65,0,0,1,.86,3.33c-.75,6.89-1.36,13.81-2.62,20.6-.75,4-2.34,8.11-7.5,8.8-.59.08-1.53.57-1.62,1-1.58,8-9.13,6.19-14.06,8.66a22,22,0,0,0-4,2c-3.29,2.63-6.78,3-10.78,1.89-8.19-2.26-10-1.13-14.49,6.21a15.9,15.9,0,0,1-6.87,6c-9.87,4.17-16.47,10.19-16.43,21.9,0,4.48-2.91,8-7.36,9.83A32.16,32.16,0,0,0,209.2,296Z"/><path class="cls-2" d="M76.2,0C83.65,3.09,90,9.38,99.11,7.63a3.08,3.08,0,0,1,2.22.73c3.92,3.28,7.32,2.22,10.75-1.59,3,2.19,6.26,4,8.66,6.54,7.91,8.52,17.36,6.8,26.82,4.34,3.18-.82,5.59-1.76,8.64.68s6.61,1.16,11.08-2.64c.6.48,1.56.84,1.8,1.48,2.47,6.6,4.66,13.3,7.31,19.82.79,2,2.76,4.89,4.19,4.89,4.58,0,5.9,3.1,7.48,6.11A81.32,81.32,0,0,1,192,56.72c2,5.07,2.61,11.12,5.83,15.15,6.08,7.62,9.9,15.19,7.46,25.1-.46,1.87-.06,3.94-.06,7.34-4.07-1.87-7.21-3.68-10.58-4.74-2.53-.79-5.49-.2-8-.94-4-1.17-4.9,1-5.9,4-.21.66-2.77,1-4.1.74-2.08-.41-4-1.78-6.05-2.16-5.81-1.06-10.57.4-12.94,7-4-4.19-6.65-1.49-10.16,2.39-.16-2.69-.15-4.26-.37-5.8-.18-1.23-.27-3-1-3.46a3.72,3.72,0,0,0-3.52.48c-6,5.8-14.07,5.13-21.37,6.82a2.08,2.08,0,0,1-1.47-.07c-4.33-3.45-9.09-6.53-12.76-10.59-2.76-3.06-5.15-5.31-9.48-5.24C90.07,92.86,83,92,76.17,88.56c-3.62-1.83-8-2.22-12-3.3-1.28-.34-3-.43-3.71-1.29-5.16-5.87-10.65-1.49-15.91-.5-1.46.28-2.95,2.14-3.79,3.63-3.5,6.2-8.65,7.71-14.72,4.29-2-1.11-4.31-1.58-6.46-2.41-1.67-.64-3.92-.91-4.83-2.15-2.5-3.39-5.29-5.77-9.66-6.28-.88-.1-2.44-2.17-2.21-2.78,1.43-3.83-1-6.11-2.63-9-.72-1.25.07-3.93,1-5.43a52.65,52.65,0,0,1,6.5-8c.94-1,2.78-2.11,3.85-1.83,5.28,1.4,9.31-.48,12.27-4.49A18.84,18.84,0,0,1,38.16,41c1.13-.1,2.69-.3,3.26-1,4.06-5.4,10.38-5.71,15.94-8,2.48-1,3.83-5.26,5.25-8.26,1.58-3.34,2.38-7,4-10.36,2.27-4.58,5-8.94,7.56-13.39Z"/><path class="cls-2" d="M162.21,174.13c3.44,3.83,7.18,6.13,7.82,9.1,1.15,5.39-4.59,3.58-7.23,4.81-.22.47-.56.9-.47,1C166,194.3,165.84,199.92,165,206c-.66,4.92,4.38,9.4,10.24,10.39s5.47,1.17,3.67,6.92c-1.36,4.37-4,5.76-7.74,7.17-5.39,2-6.1,5.08-2.78,9.74,1.57,2.21,1.32,3.7-1.29,4.49a30.7,30.7,0,0,1-5.79,1.32c-3.57.35-4.58-1.48-4.25-4.91.26-2.81-.42-5.69-.34-8.53a15.47,15.47,0,0,1,.88-3.9c-3.22-5.67-5.77-10.86-9-15.55-1.24-1.78-4.05-2.65-6.3-3.48-1.48-.55-3.39.1-4.86-.44-8.06-3-16.34-3.14-24.58-1.56-10.75,2.06-21.45,4.14-30.42,11.49-5.73,4.69-7.89,10-6.49,17,.38,1.93.62,3.9.92,5.75-6.58,3.78-13.18,2-19.77.78-.48-.09-1.16-.18-1.36-.51-3.1-5.09-6.69-10-9-15.42-2.05-4.78-1-9.64,2.66-13.95,1.58-1.84,2.33-4.76,2.57-7.27.25-2.75-.41-5.61-.9-8.38-1.67-9.45-2.21-8.7-10.59-8.48-5.06.14-5.67-1.11-4.14-6,1.42-4.52,4.32-7,8.55-9,4.69-2.21,8.92-5.41,13.37-8.16a8.43,8.43,0,0,1,2.59-1.34c7.55-1.42,10.39-6.93,11-13.59.57-5.85.12-11.79.12-19.46,2.9,1.53,4.66,2.39,6.36,3.36,1,.56,2,2,2.71,1.85,4.84-1.37,6,2.34,8.13,5.19,2.29,3.06,4.72,5,9.63,3.82,10.6-2.6,25,6,30,16.47,1,2.09,3.21,3.61,4.86,5.4.6-2.69,1.53-5.36,1.69-8.08.1-1.69-1-3.45-1.38-4.78l5.28-4.16-7.3-7.51c5,3.25,7.64-.11,10.59-3.2a3.89,3.89,0,0,1,3.4-.43c3.87,1.37,8.15,2.35,11.33,4.74a78.44,78.44,0,0,1,13.82,13.18c2,2.51,3.35,3.77,6.37,2.7a4.06,4.06,0,0,1,2.42-.42c2.36.89,4.63,2,6.94,3.08-1.21,2-1.95,4.87-3.71,5.77-3.75,1.9-8,2.84-12.1,4C168.4,172.84,165.75,173.32,162.21,174.13Z"/><path class="cls-2" d="M143.18,105.82l3.3,7.12,7.34-3.78c3.11,2,5.89,2,7.83-2.92,1.31-3.32,7.64-3.54,12.7-1.07,6.06,3,7.66,2.34,10.08-4.57,5.34,1.56,10.77,3,16.07,4.8,1.08.37,1.9,2,2.47,3.23,2,4.22,4,8.46,5.55,12.84.44,1.24-.42,3.1-1,4.52-1,2.29-2.67,4.35-3.4,6.72-.91,3-2.12,4.44-5.57,4.16-10-.8-13.15,3.16-10.7,12.85.7,2.8,1.26,5.62,1.84,8.21-5-.38-9.58,0-13.62-1.31-2.54-.83-4-4.49-6.44-6.28-5-3.67-10.19-7-15.38-10.33-.93-.6-2.4-.41-3.27-1-4.54-3.39-8.68-4.81-12.66.94-.57.82-2.93.34-4.44.58s-3.13.64-4.69,1c.67,1.65,1.06,3.51,2.09,4.89.81,1.09,2.41,1.58,4,2.56-9.64,3.67.21,9.84-2.1,13.6-4.22-4.6-8.27-10-13.27-14.22-6.49-5.52-14.75-6.12-22.92-5.39-3.92.35-5.41-2-6.74-4.69-1.6-3.19-3.13-6-7.49-4.46a1.59,1.59,0,0,1-1.42-.2c-4.63-6.06-12.33-5.48-18.39-8.45a30.87,30.87,0,0,1-15.65-17.28C45.44,103,43.42,98.32,42,93.42c-.46-1.6.44-3.83,1.26-5.51,1.06-2.17,10.88-4.19,13.06-3.09a38.58,38.58,0,0,0,6.35,2.73c8.53,2.53,17.07,5,25.67,7.29a19.35,19.35,0,0,0,6.45.33c5.06-.43,8.8,1.08,10.64,6.16a4,4,0,0,0,1.81,2.3c4.08,1.46,7.15,4.23,10.56,6.69,2.41,1.74,7.38.51,11-.24C133.79,109.06,138.56,107.23,143.18,105.82Z"/></g><circle class="cls-3" cx="187.2" cy="145" r="101"/><path class="cls-4" d="M108.91,127.73a17.1,17.1,0,0,0,5.61,3.16,11.3,11.3,0,0,0-1.94,2.37,17.94,17.94,0,0,1-5.69-4.07v4.2h-2.83V129.3a17.13,17.13,0,0,1-5.58,3.92,12.68,12.68,0,0,0-1.87-2.28,16.88,16.88,0,0,0,5.5-3.21H98.74v-7.35h5.32v-.78H97.21v-2.52h6.85v-1.42h2.83v1.42h7v2.52h-7v.78h5.56v7.35Zm-7.52-4.61h2.67v-.74h-2.67Zm0,2.62h2.67V125h-2.67Zm5.5-3.36v.74h2.78v-.74Zm2.78,2.59h-2.78v.77h2.78Z"/><path class="cls-4" d="M121,128.57a18.35,18.35,0,0,1-3.59,4.18,16.39,16.39,0,0,0-2.22-1.58,11.21,11.21,0,0,0,3-3.47Zm11.49-8.73H115.86v-2.59h6.83v-1.59h2.91v1.59h6.9Zm-6.9,7.33v3.47c0,1.29-.25,2-1.18,2.36a9.67,9.67,0,0,1-3.49.39,9.76,9.76,0,0,0-.84-2.6c.77,0,2,.06,2.24,0s.41-.05.41-.28v-3.38h-4.85V120.9h12.73v6.27Zm-5-2.31h7.12v-1.64H120.6Zm9.08,2.8A30.9,30.9,0,0,1,133,131.6l-2.71,1.34a25.8,25.8,0,0,0-3.1-4.09Z"/><path class="cls-4" d="M151.88,117.81c-.6,1.81-1.35,3.91-2,5.52a6.34,6.34,0,0,1,1.59,4.27c0,1.53-.34,2.48-1.1,3a2.91,2.91,0,0,1-1.37.52,7.57,7.57,0,0,1-1.54,0,6.75,6.75,0,0,0-.64-2.5v4.7h-2.67V118.14a24.06,24.06,0,0,1-1.38,2.84h.9v2.33h-2.45c-.3.39-.61.77-.95,1.14h2.87v8.66h-2.55v-.64h-2.37v.9h-2.45v-5.24c-.2.13-.41.24-.61.35a14.51,14.51,0,0,0-1.51-2.28,15.26,15.26,0,0,0,4.23-2.89h-3.71V121h3v-1.14H135v-2.31h2.22v-1.72h2.5v1.72h1.68v.85a16.67,16.67,0,0,0,.71-1.79l2.09.58v-.48h5.36l.39-.1Zm-11.29,8.77h-2.37v.82h2.37Zm0,3.75v-.92h-2.37v.92Zm-.71-9.35.73-1.14h-.94V121Zm6.94,7.57a7.81,7.81,0,0,0,.91,0,1.41,1.41,0,0,0,.71-.15c.3-.17.43-.54.43-1.15a5.27,5.27,0,0,0-1.6-3.62c.43-1.24.93-3,1.3-4.45h-1.75Z"/><path class="cls-4" d="M94,175.83v10.1H91.45v-.62H90.19v5.06H87.6v-5.06H86.35V186H83.91v-2.69l-1,1.38a17.5,17.5,0,0,0-1.12-1.43v7.13H79.13v-5.77a13,13,0,0,1-1.55,1.23,10.67,10.67,0,0,0-1.23-2.61,12.21,12.21,0,0,0,4.42-4.74H77.06v-2.43h2.07v-3.41h2.65v3.41h.35l.45-.09,1.33.84v-1H87.6v-3.1h2.59v3.1Zm-10.11,1.59a18.75,18.75,0,0,1-1.63,3.3c.45.34,1.12.9,1.63,1.33Zm2.44.82v1.18H87.6v-1.18Zm1.25,4.67v-1.22H86.35v1.22Zm2.59-4.67v1.18h1.26v-1.18Zm1.26,4.67v-1.22H90.19v1.22Z"/><path class="cls-4" d="M108.34,177.08a12.65,12.65,0,0,0,4.89,3.14,11.67,11.67,0,0,0-1.85,2.24,12.62,12.62,0,0,1-3.6-2.43v1.35h-7.32v-1.2a16.25,16.25,0,0,1-3.58,2.37A7.33,7.33,0,0,0,95,180.44a12.49,12.49,0,0,0,4.76-3.36H96v-2.42h5.41a13.46,13.46,0,0,0,.71-2l3,.39c-.19.56-.39,1.1-.62,1.63h8v2.42Zm-7,9A13.77,13.77,0,0,1,97.82,190a17.17,17.17,0,0,0-2.17-1.68,9,9,0,0,0,3.06-3Zm4.3-1.28v3.06c0,1.17-.26,1.75-1.12,2.1a8.57,8.57,0,0,1-3.21.38,9.41,9.41,0,0,0-.94-2.33c.75.05,1.87.05,2.13,0s.39-.05.39-.28v-3H97.5v-2.34H111v2.34Zm-2.47-7.77a15,15,0,0,1-1.53,2h5.27a14.7,14.7,0,0,1-1.5-2Zm5.68,8.18a26,26,0,0,1,3.36,3.36L109.8,190a22.73,22.73,0,0,0-3.2-3.51Z"/><path class="cls-4" d="M119.06,173.56v6.53c0,3.67-.26,7.61-2.8,10.48a12.1,12.1,0,0,0-2.35-2c2.11-2.37,2.35-5.51,2.35-8.53v-6.51Zm5.58.82v14.1h-2.78v-14.1Zm5.47-.84v16.79h-2.88V173.54Z"/><path class="cls-4" d="M139.5,186.71a19.35,19.35,0,0,1-4.52,3.62,18,18,0,0,0-2.22-1.83,12.14,12.14,0,0,0,3.88-2.85Zm3.53-1.45v5.13h-2.9v-5.13h-3.6v.31h-2.72V174.49h2.72v8.4h13.53v2.37Zm5.09-3.1H137.5v-8.87h10.62Zm-2.65-7.07H140v.63h5.43Zm0,2.31H140v.65h5.43Zm0,2.31H140v.66h5.43Zm.58,5.73a49.61,49.61,0,0,1,4.35,3.21l-2.56,1.68a37,37,0,0,0-4.16-3.41Z"/><path class="cls-4" d="M104.43,57H103.2v5.88c0,1.18-.21,1.79-1,2.17a7.26,7.26,0,0,1-3,.41A9.67,9.67,0,0,0,98.35,63c.71,0,1.62,0,1.88,0s.36-.06.36-.28V57h-8V54.62h-1.3v3.84l1.64-.55.52,2.5c-2,.82-4.24,1.66-6,2.33L86.5,60c.63-.17,1.42-.41,2.26-.68V54.62H87V52.06h1.81V48h2.52v4.08h1.56v2.52h1.33A6.75,6.75,0,0,0,93.09,53c2-.35,3.06-.87,3.63-1.66H93.35V49.12h4c0-.41,0-.86.05-1.37H100c0,.49,0,.94-.06,1.37h4v2.25h-3.66c1.33.56,2.88,1.25,3.77,1.74l-1.21,1.47h1.51Zm-8.28,5.32v1.16H93.89V57.62h5.65v4.65Zm0-2.82v1h1.12v-1Zm5.33-4.87c-.84-.45-1.92-1-2.89-1.43a5.86,5.86,0,0,1-2.31,1.43Z"/><path class="cls-4" d="M122.8,62.16v2.65H105.65V62.16h6.89V57.57h-5.15V54.92h5.15V51.37h-6.09V48.71H122v2.66h-6.48v3.55h5.56v2.65h-2.55c.93.91,2.27,2.14,2.93,3l-1.87,1.64Zm-7.28,0h3.73c-.67-.88-1.94-2.18-2.81-3.14l1.75-1.45h-2.67Z"/><path class="cls-4" d="M130.83,61.71a19.35,19.35,0,0,1-4.52,3.62,17.24,17.24,0,0,0-2.22-1.83A12.31,12.31,0,0,0,128,60.65Zm3.53-1.45v5.13h-2.9V60.26h-3.6v.31h-2.72V49.49h2.72v8.4h13.53v2.37Zm5.09-3.1H128.83V48.29h10.62Zm-2.65-7.07h-5.43v.63h5.43Zm0,2.31h-5.43v.65h5.43Zm0,2.31h-5.43v.66h5.43Zm.58,5.73a48.16,48.16,0,0,1,4.35,3.21l-2.56,1.68A37,37,0,0,0,135,61.92Z"/><path class="cls-4" d="M255.13,172.57h-7.2v7.8H245v-7.8h-7v-2.65h7v-3.34c-1.77.2-3.56.35-5.26.46a8.91,8.91,0,0,0-.73-2.4,64.16,64.16,0,0,0,12.41-1.91l2.05,2.3a47.72,47.72,0,0,1-5.54,1.16v3.73h7.2Z"/><path class="cls-4" d="M268.84,176.71a19.11,19.11,0,0,0,5.37,1.33,10.4,10.4,0,0,0-1.73,2.35,14.8,14.8,0,0,1-6-2.6v2.6h-2.67v-2.45a19,19,0,0,1-6,2.39,12.33,12.33,0,0,0-1.68-2.18,23.88,23.88,0,0,0,5.6-1.44h-5.11v-2h7.18V174h-5V169.4h-2v-2h2v-1h1.83v-.76h-3.85v-2h3.85v-.93h2.68v.93h3.77v-.93h2.71v.93h3.88v2h-3.88v.8h1.34v.93h2.48v2h-2.48v2.09h-7.5V169.4h-2.15V172h11.61v2H266.5v.67h7.3v2Zm-7.36-9.35h2.15V166.3h2.54v1.06h2.29v-.67h-1.38v-1.06h-3.77v1h-1.83Zm7,2h-2.29V170h2.29Z"/><path class="cls-4" d="M281.83,176.71a19.35,19.35,0,0,1-4.52,3.62,17.24,17.24,0,0,0-2.22-1.83,12.31,12.31,0,0,0,3.89-2.85Zm3.53-1.45v5.13h-2.9v-5.13h-3.6v.31h-2.72V164.49h2.72v8.4h13.53v2.37Zm5.09-3.1H279.83v-8.87h10.62Zm-2.65-7.07h-5.43v.63h5.43Zm0,2.31h-5.43v.65h5.43Zm0,2.31h-5.43v.66h5.43Zm.58,5.73a48.16,48.16,0,0,1,4.35,3.21l-2.56,1.68a37,37,0,0,0-4.16-3.41Z"/><path class="cls-4" d="M250.65,12.41a8.5,8.5,0,0,0,1.69-.11v2.24c-.39,0-.88,0-1.68,0h-.76V15c0,3.32-.85,5.55-4.34,7.07l-1.82-1.71c2.8-.92,3.94-2.14,3.94-5.31v-.5h-3v1.7c0,.68.05,1.23.07,1.58h-2.36a14.39,14.39,0,0,0,.08-1.58V14.5h-1c-.75,0-1.17,0-1.58.06v-2.3a8.05,8.05,0,0,0,1.58.15h1V11.25a11.51,11.51,0,0,0-.1-1.4h2.41a11.23,11.23,0,0,0-.1,1.41v1.15h3V11.1a8.54,8.54,0,0,0-.09-1.39H250a11.48,11.48,0,0,0-.1,1.39v1.31Z"/><path class="cls-4" d="M254.41,14.28c.56,0,1.73.09,2.42.09h7.44c.63,0,1.31-.07,1.72-.09V17c-.36,0-1.15-.08-1.72-.08h-7.44c-.8,0-1.85,0-2.42.08Z"/><path class="cls-4" d="M271.6,18.65c0,.54.27.68.87.8a12.32,12.32,0,0,0,1.48.07,24.09,24.09,0,0,0,4.93-.51v2.48a41,41,0,0,1-5.07.28,15.83,15.83,0,0,1-2.42-.17,2.2,2.2,0,0,1-2.06-2.25V11.77a15.32,15.32,0,0,0-.11-1.64h2.49a13.82,13.82,0,0,0-.11,1.64v2.35a40,40,0,0,0,4.57-1.47,11.7,11.7,0,0,0,1.69-.82l.9,2.14L277,14.7c-1.34.5-3.5,1.17-5.35,1.64Zm5.78-6.73A19.37,19.37,0,0,0,276.31,10l1.31-.54c.35.52.84,1.43,1.09,1.92Zm2-3.15a20.48,20.48,0,0,1,1.1,1.91l-1.31.56A15.63,15.63,0,0,0,278,9.3Z"/><path class="cls-4" d="M293.15,11.43a8.82,8.82,0,0,0-.58,1,21.72,21.72,0,0,1-2.11,3.69,37.72,37.72,0,0,1,3.81,3.91l-1.95,1.7A27.14,27.14,0,0,0,289,17.92a18.74,18.74,0,0,1-5.15,3.82l-1.76-1.83A15.66,15.66,0,0,0,287.8,16a10.29,10.29,0,0,0,2-3.16H285.4c-.63,0-1.4.08-1.79.11V10.51a16.65,16.65,0,0,0,1.79.11h4.68a6,6,0,0,0,1.68-.21Z"/><path class="cls-4" d="M301.56,13.51a19.62,19.62,0,0,1-1.09,3.92,13.59,13.59,0,0,1,1.38,2.2L300.23,21a12,12,0,0,0-.83-1.54,9.44,9.44,0,0,1-2.69,2.76,10.36,10.36,0,0,0-1.35-1.59,7.42,7.42,0,0,0,2.82-2.95c-.71-1-1.49-1.93-2.24-2.76l1.43-1.16c.53.58,1.11,1.22,1.67,1.88a16.16,16.16,0,0,0,.55-2.42Zm7.24.44h-1.4v5.92c0,1.09-.18,1.66-.77,2a5.53,5.53,0,0,1-2.66.44,8.29,8.29,0,0,0-.63-2.2c.73,0,1.47,0,1.72,0s.32-.07.32-.31V14h-3.33V13h-6.27V11.1h2.32V9h1.95V11.1h2.48V12h2.85V9h2v3h1.4Zm-5.45.91a10.34,10.34,0,0,1,1.54,2.92l-1.75.89a11.34,11.34,0,0,0-1.41-3Z"/><path class="cls-4" d="M312.72,14.05c0,2.34-.24,6-1.54,8.24a9.11,9.11,0,0,0-1.77-1.15c1.18-2,1.26-5,1.26-7.09V10.56h4.93V9h2.13v1.54h4.93V12.5h-5.55a17.7,17.7,0,0,1,3,1.8l-1.47,1.52a17.19,17.19,0,0,0-3.38-2.2l1.13-1.12h-3.69Zm-.41,6.33a12.35,12.35,0,0,0,.9-4.26l1.83.4a13.48,13.48,0,0,1-.92,4.66Zm8.74.77a11.26,11.26,0,0,0-.48-2c-.18,2.23-.68,2.89-2,2.89h-1.28c-1.64,0-2-.6-2-2.38V15.12h2v4.56c0,.54.06.59.36.59h.73c.34,0,.41-.32.46-2.17a5.5,5.5,0,0,0,1.66.77,19.27,19.27,0,0,0-1-2.46l1.83-.7a17.4,17.4,0,0,1,1.77,4.63Z"/><path class="cls-4" d="M334.86,18.55a8.41,8.41,0,0,0,1.38-.13v2.45a13.42,13.42,0,0,0-1.38-.07h-9.24c-.43,0-1,0-1.45.07V18.42a8.06,8.06,0,0,0,1.45.13H329V13.24h-2.46c-.44,0-1.05,0-1.42.07V11a10.43,10.43,0,0,0,1.42.1h7.59a10.65,10.65,0,0,0,1.37-.1v2.33c-.45,0-1-.07-1.37-.07h-2.75v5.31Z"/><path class="cls-4" d="M342.23,10.12a10.51,10.51,0,0,0-.06,1.1V16c0,.35,0,.93.06,1.3h-2.52c0-.28.07-.88.07-1.32V11.22c0-.26,0-.75-.06-1.1Zm6.43-.13c0,.42-.06.9-.06,1.51v3.06c0,2.81-.66,4.21-1.72,5.33a8.76,8.76,0,0,1-3.43,2L341.67,20a6.52,6.52,0,0,0,3.44-1.71c.94-1,1.14-2,1.14-3.92V11.5a10.46,10.46,0,0,0-.1-1.51Z"/><path class="cls-4" d="M364.76,11.52a10.22,10.22,0,0,0-.63.84,14.71,14.71,0,0,1-3.31,3.84l-1.75-1.41a7.37,7.37,0,0,0,2.31-2.31h-6.92a16.79,16.79,0,0,0-1.77.12V10.26a12.67,12.67,0,0,0,1.77.15h7.27a10.19,10.19,0,0,0,1.69-.14ZM359,13.42c0,3.29.07,6.32-3.88,8.52l-2-1.61a5.51,5.51,0,0,0,1.6-.86c1.56-1.17,1.91-2.36,1.91-4.65a7.5,7.5,0,0,0-.12-1.4Z"/></g></g></svg>