<svg xmlns="http://www.w3.org/2000/svg" xmlns:xlink="http://www.w3.org/1999/xlink" viewBox="0 0 497 109.54"><defs><style>.cls-1{fill:none;}.cls-2{clip-path:url(#clip-path);}.cls-3{fill:#4d4d4d;}</style><clipPath id="clip-path" transform="translate(0 0)"><rect class="cls-1" width="497" height="109.54"/></clipPath></defs><g id="レイヤー_2" data-name="レイヤー 2"><g id="レイヤー_1-2" data-name="レイヤー 1"><g class="cls-2"><path class="cls-3" d="M20,1.09l-4.09,17.3H12.4L10.9,11c-.41-1.91-.55-3.55-1-5.45C9.54,7.49,9.4,9.4,8.86,11L7.22,18.39H3.81L0,1.09H3.54L4.9,8.58a50.36,50.36,0,0,1,1,6c.13-1.91.82-3.95,1.09-6l1.5-7.49h3.4l1.5,7.49a44.53,44.53,0,0,1,1,6,46.21,46.21,0,0,1,1-6l1.5-7.35h3.4C20,1.36,20,1.09,20,1.09" transform="translate(0 0)"/><path class="cls-3" d="M32.42,18.39H29.29V11.31c0-1.64-.54-2.86-1.91-2.86-.81,0-2,.54-2,2.45v7.63H21.8V.55h3.4V7.63A3.93,3.93,0,0,1,28.61,6c2.32,0,4,1.64,4,5.32-.14,0-.14,7.08-.14,7.08" transform="translate(0 0)"/><path class="cls-3" d="M44.82,15.4a18.62,18.62,0,0,0,.14,3H42L41.83,17a4.25,4.25,0,0,1-3.41,1.5,3.65,3.65,0,0,1-3.82-3.82c0-3.13,2.87-4.63,6.82-4.63,0-1.36-.41-2.31-2.32-2.31a5.2,5.2,0,0,0-3,1L35.56,6.4a8.49,8.49,0,0,1,4.36-1.09c3.95,0,4.9,2.46,4.9,5.32Zm-3.27-3.27c-1.9,0-3.81.4-3.81,2.31a1.55,1.55,0,0,0,1.5,1.64,2.08,2.08,0,0,0,2-2.32V12.13Z" transform="translate(0 0)"/><path class="cls-3" d="M48.37,3.54l3.4-1V5.72h2.86V8.17H51.77v5.45c0,1.5.55,2.05,1.5,2.05a2.29,2.29,0,0,0,1.09-.14v2.59a7.75,7.75,0,0,1-2.32.41c-3.54,0-3.81-3.14-3.81-4.5V8.17H46.59V5.72h1.64a10.7,10.7,0,0,0,.14-2.18" transform="translate(0 0)"/><path class="cls-3" d="M78.75,18.39H75.61V11.31c0-1.91-.54-3-1.9-3-1,0-1.91.82-1.91,2.45v7.63H68.53V11c0-1.5-.55-2.59-1.64-2.59a2.35,2.35,0,0,0-2,2.59v7.49H61.72V5.72h2.72l.14,1.64a3.83,3.83,0,0,1,3.54-1.91,3.3,3.3,0,0,1,3.13,2,4.39,4.39,0,0,1,3.82-2c2.31,0,4,1.5,4,5.31v7.5h-.27Z" transform="translate(0 0)"/><path class="cls-3" d="M90.87,15.4a18.62,18.62,0,0,0,.14,3H88L87.87,17a4.22,4.22,0,0,1-3.4,1.5,3.65,3.65,0,0,1-3.82-3.82c0-3.13,2.86-4.63,6.82-4.63,0-1.36-.41-2.31-2.32-2.31a5.2,5.2,0,0,0-3,1L81.61,6.4A8.46,8.46,0,0,1,86,5.31c4,0,4.9,2.46,4.9,5.32Zm-3.13-3.27c-1.91,0-3.82.4-3.82,2.31a1.55,1.55,0,0,0,1.5,1.64,2.08,2.08,0,0,0,2-2.32V12.13Z" transform="translate(0 0)"/><path class="cls-3" d="M104.9,18.39h-4l-3-5.45L97,14v4.09H93.6V.14h3.54v11A5.06,5.06,0,0,1,98,9.67l2.45-3.95h4l-4.09,5Z" transform="translate(0 0)"/><path class="cls-3" d="M115.67,17.85a11.44,11.44,0,0,1-4.09.82c-4,0-6-2.46-6-6.41,0-3.54,2-6.81,5.86-6.81,3,0,5,2.32,5,6.13v1.36H109c0,2.05,1.64,3,3.41,3a6,6,0,0,0,3-.54Zm-2.46-7c0-1.36-.54-2.86-2-2.86s-2.32,1.63-2.45,2.86Z" transform="translate(0 0)"/><path class="cls-3" d="M125.2,8.58A4.33,4.33,0,0,0,122.75,8c-1,0-1.5.54-1.5,1.09,0,.82.55,1.09,1.91,1.63,2,1,3.13,2.05,3.13,3.82,0,2.45-1.9,4-4.9,4a9,9,0,0,1-3.54-.82l.54-2.45a6,6,0,0,0,3,.82c1.09,0,1.63-.55,1.63-1.37s-.4-1.09-1.9-1.63c-2.32-.95-3.14-2.32-3.14-3.54,0-2.32,1.91-3.95,4.5-3.95a6.15,6.15,0,0,1,3.13.81Z" transform="translate(0 0)"/><rect class="cls-3" x="133.38" y="0.41" width="3.41" height="17.98"/><path class="cls-3" d="M141.55,4.09a1.57,1.57,0,0,1-1.63-1.64A1.56,1.56,0,0,1,141.55.82a1.82,1.82,0,0,1,1.91,1.63,1.89,1.89,0,0,1-1.91,1.64m1.64,14.3h-3.41V5.86h3.41Z" transform="translate(0 0)"/><path class="cls-3" d="M146.59,5.31c0-3.81,2.32-5.31,4.64-5.31a4.6,4.6,0,0,1,2,.41L153.13,3A3.31,3.31,0,0,0,152,2.86c-1.9,0-1.9,1.91-1.9,3.13h2.45V8.45h-2.45V18.53h-3.41V8.45h-1.64V5.86h1.64Z" transform="translate(0 0)"/><path class="cls-3" d="M163.62,17.85a11.38,11.38,0,0,1-4.08.82c-4,0-6-2.46-6-6.41,0-3.54,2-6.81,5.86-6.81,3,0,5,2.32,5,6.13v1.36H157c0,2.05,1.63,3,3.4,3a6,6,0,0,0,3-.54Zm-2.45-7c0-1.36-.54-2.86-2-2.86s-2.32,1.63-2.46,2.86Z" transform="translate(0 0)"/><path class="cls-3" d="M173,4.09a1.57,1.57,0,0,1-1.63-1.64A1.57,1.57,0,0,1,173,.82a1.82,1.82,0,0,1,1.91,1.63c0,1.09-.82,1.64-1.91,1.64m1.64,14.3h-3.41V5.86h3.41Z" transform="translate(0 0)"/><path class="cls-3" d="M188.42,18.39H185V11c0-1.5-.54-2.87-1.9-2.87-1,0-2.05.82-2.05,2.59v7.5h-3.4V5.59h2.86l.13,1.63a4.23,4.23,0,0,1,3.55-1.91c2.31,0,4.08,1.64,4.08,5,.14.28.14,8,.14,8" transform="translate(0 0)"/><path class="cls-3" d="M192,3.54l3.41-1V5.72h2.86V8.17h-2.86v5.45c0,1.5.54,2.05,1.5,2.05a2.31,2.31,0,0,0,1.09-.14v2.59a7.82,7.82,0,0,1-2.32.41c-3.54,0-3.82-3.14-3.82-4.5V8.17h-1.63V5.72h1.63A10.7,10.7,0,0,0,192,3.54" transform="translate(0 0)"/><path class="cls-3" d="M209.54,17.85a11.44,11.44,0,0,1-4.09.82c-3.95,0-6-2.46-6-6.41,0-3.54,2.05-6.81,5.86-6.81,3,0,5,2.32,5,6.13v1.36h-7.49c0,2.05,1.63,3,3.41,3a6,6,0,0,0,3-.54Zm-2.59-7c0-1.36-.55-2.86-2-2.86s-2.31,1.63-2.45,2.86Z" transform="translate(0 0)"/><path class="cls-3" d="M219.35,8.86h-1c-1.5,0-2.59,1-2.59,3.13v6.54h-3.4V6h2.86l.13,2.32a3.4,3.4,0,0,1,3.14-2.45h.82Z" transform="translate(0 0)"/><path class="cls-3" d="M230.52,17.85a11.44,11.44,0,0,1-4.09.82c-4,0-6-2.46-6-6.41,0-3.54,2-6.81,5.86-6.81,3,0,5,2.32,5,6.13v1.36h-7.49c0,2.05,1.64,3,3.41,3a6,6,0,0,0,3-.54Zm-2.46-7c0-1.36-.54-2.86-2-2.86s-2.32,1.63-2.45,2.86Z" transform="translate(0 0)"/><path class="cls-3" d="M240.05,8.58A4.35,4.35,0,0,0,237.6,8c-.95,0-1.5.54-1.5,1.09,0,.82.55,1.09,1.91,1.63,2,1,3.13,2.05,3.13,3.82,0,2.45-1.9,4-4.9,4a9,9,0,0,1-3.54-.82l.54-2.45a6,6,0,0,0,3,.82c1.09,0,1.63-.55,1.63-1.37s-.41-1.09-1.9-1.63c-2.32-.95-3.14-2.32-3.14-3.54,0-2.32,1.91-3.95,4.5-3.95a6.15,6.15,0,0,1,3.13.81Z" transform="translate(0 0)"/><path class="cls-3" d="M244,3.54l3.41-1V5.72h2.86V8.17h-2.86v5.45c0,1.5.54,2.05,1.5,2.05a2.29,2.29,0,0,0,1.09-.14v2.59a7.75,7.75,0,0,1-2.32.41c-3.54,0-3.81-3.14-3.81-4.5V8.17h-1.64V5.72h1.64Z" transform="translate(0 0)"/><path class="cls-3" d="M253.81,4.09a1.57,1.57,0,0,1-1.63-1.64A1.57,1.57,0,0,1,253.81.82a1.82,1.82,0,0,1,1.91,1.63,1.89,1.89,0,0,1-1.91,1.64m1.64,14.3H252V5.86h3.41Z" transform="translate(0 0)"/><path class="cls-3" d="M269.21,18.39H265.8V11c0-1.5-.54-2.87-1.9-2.87-1,0-2,.82-2,2.59v7.5h-3.4V5.59h2.86l.13,1.63A4.22,4.22,0,0,1,265,5.31c2.32,0,4.09,1.64,4.09,5Z" transform="translate(0 0)"/><path class="cls-3" d="M282.83,5.86c0,.95-.13,2-.13,3.81v7.09c0,2.45-.14,7-6.41,7a8.43,8.43,0,0,1-4-1l.55-2.59A7,7,0,0,0,276,21c1.91,0,3.13-1.09,3.13-3.41v-.95A3.45,3.45,0,0,1,276,18.26c-3,0-4.9-2.59-4.9-6,0-4.09,2.45-6.54,5.31-6.54a3.74,3.74,0,0,1,3.13,1.64l.14-1.5Zm-3.4,4.77c0-1.64-1-2.46-2.05-2.46-1.5,0-2.45,1.5-2.45,4,0,2.31.95,3.81,2.45,3.81.82,0,2.05-.54,2.05-2.59Z" transform="translate(0 0)"/><path class="cls-3" d="M299.86,15.4a18.62,18.62,0,0,0,.14,3h-3L296.86,17a4.22,4.22,0,0,1-3.4,1.5,3.65,3.65,0,0,1-3.82-3.82c0-3.13,2.87-4.63,6.82-4.63,0-1.36-.41-2.31-2.32-2.31a5.2,5.2,0,0,0-3,1L290.6,6.4A8.49,8.49,0,0,1,295,5.31c4,0,4.9,2.46,4.9,5.32Zm-3.13-3.27c-1.91,0-3.82.4-3.82,2.31a1.55,1.55,0,0,0,1.5,1.64,2.08,2.08,0,0,0,2-2.32Z" transform="translate(0 0)"/><path class="cls-3" d="M313.62,18.39h-3.4V11c0-1.5-.55-2.87-1.91-2.87-1,0-2,.82-2,2.59v7.5h-3.41V5.59h2.86l.14,1.63a4.19,4.19,0,0,1,3.54-1.91c2.32,0,4.09,1.64,4.09,5v8Z" transform="translate(0 0)"/><path class="cls-3" d="M327.52,14.85v3.54h-3l-.14-1.63a3.67,3.67,0,0,1-3.54,2c-2.86,0-4.9-2.59-4.9-6.4,0-4.36,2.45-6.54,5-6.54a3.14,3.14,0,0,1,3,1.5V.55h3.4v14.3Zm-3.41-3.95C324.11,9,323,8,321.8,8c-1.64,0-2.59,1.63-2.59,4s1,3.81,2.45,3.81A2.45,2.45,0,0,0,324,13.22Z" transform="translate(0 0)"/><path class="cls-3" d="M351.5,5.86l-3.82,12.53h-3l-1.36-4.9a34.85,34.85,0,0,1-.82-4,24.61,24.61,0,0,1-.81,4l-1.36,4.9h-3L333.79,5.86h3.4l1.09,5.45c.14,1.36.55,2.59.82,3.95a16.93,16.93,0,0,1,.95-3.95l1.37-5.59H344l1.37,5.45c.4,1.5.54,2.86.95,4.09a24.47,24.47,0,0,1,.82-4.09l1.09-5.45h3.13v.14Z" transform="translate(0 0)"/><path class="cls-3" d="M364.17,12c0,4.63-3,6.54-5.86,6.54-3.41,0-5.86-2.45-5.86-6.4s2.59-6.54,6-6.54c3.55,0,5.73,2.72,5.73,6.4m-5.73-4c-1.9,0-2.45,2.31-2.45,4.09,0,2.31,1,4.08,2.45,4.08s2.46-1.9,2.46-4.08S360.22,8,358.44,8" transform="translate(0 0)"/><path class="cls-3" d="M373.57,8.86h-1c-1.5,0-2.59,1-2.59,3.13v6.54h-3.4V6h2.86l.14,2.32a3.38,3.38,0,0,1,3.13-2.45h.82Z" transform="translate(0 0)"/><path class="cls-3" d="M375.88,3.54l3.41-1V5.72h2.86V8.17h-3v5.45c0,1.5.55,2.05,1.5,2.05a2.27,2.27,0,0,0,1.09-.14v2.59a7.74,7.74,0,0,1-2.31.41c-3.55,0-3.82-3.14-3.82-4.5V8.17H374V5.72h1.63V3.54Z" transform="translate(0 0)"/><path class="cls-3" d="M394.82,18.39h-3.41V11.31c0-1.64-.54-2.86-1.9-2.86-.82,0-2.05.54-2.05,2.45v7.63h-3.4V.55h3.4V7.63A3.93,3.93,0,0,1,390.87,6c2.32,0,3.95,1.64,3.95,5.32Z" transform="translate(0 0)"/><rect class="cls-3" x="402.45" y="0.41" width="3.41" height="17.98"/><path class="cls-3" d="M410.49,4.09a1.58,1.58,0,0,1-1.64-1.64A1.57,1.57,0,0,1,410.49.82a1.82,1.82,0,0,1,1.91,1.63,1.73,1.73,0,0,1-1.91,1.64m1.77,14.3h-3.41V5.86h3.41Z" transform="translate(0 0)"/><path class="cls-3" d="M425.47,5.86l-4.36,12.53H418L413.89,5.86h3.55l1.63,6a27.93,27.93,0,0,0,.82,3.14,13,13,0,0,1,.82-3.14l1.49-6Z" transform="translate(0 0)"/><path class="cls-3" d="M428.88,4.09a1.57,1.57,0,0,1-1.63-1.64A1.56,1.56,0,0,1,428.88.82a1.82,1.82,0,0,1,1.91,1.63c0,1.09-.82,1.64-1.91,1.64m1.64,14.3h-3.41V5.86h3.41Z" transform="translate(0 0)"/><path class="cls-3" d="M444.41,18.39H441V11c0-1.5-.55-2.87-1.91-2.87-1,0-2,.82-2,2.59v7.5h-3.41V5.59h2.86l.14,1.63a4.19,4.19,0,0,1,3.54-1.91c2.31,0,4.08,1.64,4.08,5Z" transform="translate(0 0)"/><path class="cls-3" d="M458.17,5.86c0,.95-.13,2-.13,3.81v7.09c0,2.45-.14,7-6.41,7a8.37,8.37,0,0,1-3.95-1l.55-2.59a7,7,0,0,0,3.13.82c1.91,0,3.13-1.09,3.13-3.41v-.95a3.45,3.45,0,0,1-3.13,1.64c-3,0-4.9-2.59-4.9-6,0-4.09,2.45-6.54,5.31-6.54a3.74,3.74,0,0,1,3.13,1.64l.14-1.5Zm-3.68,4.77c0-1.64-.95-2.46-2-2.46-1.5,0-2.45,1.5-2.45,4,0,2.31.95,3.81,2.45,3.81.82,0,2-.54,2-2.59Z" transform="translate(0 0)"/><path class="cls-3" d="M475.2,15.4a18.62,18.62,0,0,0,.14,3h-3L472.2,17a4.22,4.22,0,0,1-3.4,1.5A3.65,3.65,0,0,1,465,14.71c0-3.13,2.86-4.63,6.82-4.63,0-1.36-.41-2.31-2.32-2.31a5.2,5.2,0,0,0-3,1l-.54-2.32a8.46,8.46,0,0,1,4.36-1.09c3.95,0,4.9,2.46,4.9,5.32Zm-3.27-3.27c-1.9,0-3.81.4-3.81,2.31a1.55,1.55,0,0,0,1.5,1.64,2.15,2.15,0,0,0,2-2.32V12.13Z" transform="translate(0 0)"/><path class="cls-3" d="M484.87,8.86h-.95c-1.5,0-2.59,1-2.59,3.13v6.54h-3.4V6h2.86l.13,2.32a3.4,3.4,0,0,1,3.14-2.45h.81Z" transform="translate(0 0)"/><path class="cls-3" d="M496.18,17.85a11.38,11.38,0,0,1-4.08.82c-4,0-6-2.46-6-6.41,0-3.54,2-6.81,5.86-6.81,3,0,5,2.32,5,6.13v1.36h-7.49c0,2.05,1.63,3,3.4,3a6,6,0,0,0,3-.54Zm-2.45-7c0-1.36-.54-2.86-2-2.86s-2.32,1.63-2.46,2.86Z" transform="translate(0 0)"/><path class="cls-3" d="M24.93,41.83a1.64,1.64,0,0,1,0-3.27,1.82,1.82,0,0,1,1.91,1.63,1.73,1.73,0,0,1-1.91,1.64M26.7,56H23.3V43.46h3.4Z" transform="translate(0 0)"/><path class="cls-3" d="M30.24,41.28l3.41-1v3.13h2.86v2.45H33.65v5.45c0,1.5.55,2,1.5,2a2.29,2.29,0,0,0,1.09-.14v2.59a8.09,8.09,0,0,1-2.32.41c-3.54,0-3.81-3.14-3.81-4.5V45.91H28.47V43.46h1.64Z" transform="translate(0 0)"/><path class="cls-3" d="M44.82,46.32a4.35,4.35,0,0,0-2.45-.54c-.95,0-1.5.54-1.5,1.09,0,.81.55,1.09,1.91,1.63,2,1,3.13,2,3.13,3.81,0,2.46-1.9,4-4.9,4a9,9,0,0,1-3.54-.82L38,53a6,6,0,0,0,3,.81c1.09,0,1.63-.54,1.63-1.36s-.41-1.09-1.9-1.63c-2.32-1-3.14-2.32-3.14-3.54,0-2.32,1.91-4,4.5-4a6.14,6.14,0,0,1,3.13.82Z" transform="translate(0 0)"/><path class="cls-3" d="M63.76,52.32a30,30,0,0,0,.14,3.81H61L60.9,54.5a4.15,4.15,0,0,1-3.54,1.9c-2.46,0-4-1.5-4-5.31V43.6h3.4v6.94c0,1.91.55,3,1.91,3a2.16,2.16,0,0,0,2-2.31V43.6h3.41v8.85h-.41Z" transform="translate(0 0)"/><path class="cls-3" d="M77.52,56H74.11V48.77c0-1.49-.54-2.86-1.9-2.86-1,0-2,.82-2,2.59V56h-3.4V43.32h2.86L69.75,45a4.2,4.2,0,0,1,3.55-1.91c2.31,0,4.08,1.64,4.08,5Z" transform="translate(0 0)"/><path class="cls-3" d="M88.69,55.72a10.44,10.44,0,0,1-3,.55c-3.81,0-6-2.45-6-6.41a6.15,6.15,0,0,1,6.54-6.54,4.58,4.58,0,0,1,2.59.55l-.55,2.59a5.63,5.63,0,0,0-1.9-.41c-2,0-3.41,1.63-3.41,4s1.5,4,3.41,4a4.47,4.47,0,0,0,2-.41Z" transform="translate(0 0)"/><path class="cls-3" d="M100.41,55.45a11.39,11.39,0,0,1-4.09.82c-3.95,0-6-2.46-6-6.41,0-3.54,2-6.81,5.85-6.81,3,0,5,2.32,5,6.13v1.36h-7.5c0,2.05,1.64,3,3.41,3a5.91,5.91,0,0,0,3-.54ZM98,48.5c0-1.36-.55-2.86-2-2.86s-2.31,1.64-2.45,2.86Z" transform="translate(0 0)"/><path class="cls-3" d="M110.08,46.46h-1c-1.5,0-2.59.95-2.59,3.13v6.54h-3.13V43.6h2.86l.13,2.31a3.4,3.4,0,0,1,3.14-2.45h.81v3Z" transform="translate(0 0)"/><path class="cls-3" d="M112.53,41.28l3.41-1v3.13h2.86v2.45h-2.86v5.45c0,1.5.54,2,1.5,2a2.29,2.29,0,0,0,1.09-.14v2.59a8.09,8.09,0,0,1-2.32.41c-3.54,0-3.81-3.14-3.81-4.5V45.91h-1.64V43.46h1.64V41.28Z" transform="translate(0 0)"/><path class="cls-3" d="M130,53a18.62,18.62,0,0,0,.14,3h-3L127,54.63a4.19,4.19,0,0,1-3.4,1.5,3.65,3.65,0,0,1-3.82-3.81c0-3.14,2.86-4.64,6.82-4.64,0-1.36-.41-2.31-2.32-2.31a5.27,5.27,0,0,0-3,1L120.71,44a8.47,8.47,0,0,1,4.36-1.08c4,0,4.9,2.45,4.9,5.31Zm-3.13-3.14c-1.91,0-3.82.41-3.82,2.32a1.54,1.54,0,0,0,1.5,1.63,2.14,2.14,0,0,0,2-2.31V49.86Z" transform="translate(0 0)"/><path class="cls-3" d="M134.6,41.83a1.64,1.64,0,0,1,0-3.27,1.82,1.82,0,0,1,1.91,1.63c0,1.09-.68,1.64-1.91,1.64M136.38,56H133V43.46h3.41Z" transform="translate(0 0)"/><path class="cls-3" d="M150,56h-3.41V48.77c0-1.49-.54-2.86-1.9-2.86-1,0-2.05.82-2.05,2.59V56h-3.27V43.32h2.86l.14,1.64a4.18,4.18,0,0,1,3.54-1.91c2.32,0,4.09,1.64,4.09,5Z" transform="translate(0 0)"/><path class="cls-3" d="M153.54,41.28l3.41-1v3.13h2.86v2.45H157v5.45c0,1.5.54,2,1.5,2a2.31,2.31,0,0,0,1.09-.14v2.59a8.16,8.16,0,0,1-2.32.41c-3.54,0-3.82-3.14-3.82-4.5V45.91h-1.63V43.46h1.63Z" transform="translate(0 0)"/><path class="cls-3" d="M163.35,41.83a1.64,1.64,0,0,1,0-3.27,1.82,1.82,0,0,1,1.91,1.63,1.73,1.73,0,0,1-1.91,1.64M165,56h-3.41V43.46H165Z" transform="translate(0 0)"/><path class="cls-3" d="M177.38,55.45a11.38,11.38,0,0,1-4.08.82c-4,0-6-2.46-6-6.41,0-3.54,2-6.81,5.86-6.81,3,0,5,2.32,5,6.13v1.36h-7.49c0,2.05,1.63,3,3.4,3a5.86,5.86,0,0,0,3-.54Zm-2.45-7c0-1.36-.54-2.86-2-2.86s-2.32,1.64-2.45,2.86Z" transform="translate(0 0)"/><path class="cls-3" d="M186.92,46.32a4.37,4.37,0,0,0-2.45-.54c-1,0-1.5.54-1.5,1.09,0,.81.54,1.09,1.91,1.63,2,1,3.13,2,3.13,3.81,0,2.46-1.91,4-4.9,4a9.06,9.06,0,0,1-3.55-.82l.55-2.45a6,6,0,0,0,3,.81c1.09,0,1.63-.54,1.63-1.36s-.41-1.09-1.91-1.63c-2.31-1-3.13-2.32-3.13-3.54,0-2.32,1.91-4,4.5-4a6.14,6.14,0,0,1,3.13.82Z" transform="translate(0 0)"/><path class="cls-3" d="M204.63,53a18.62,18.62,0,0,0,.14,3h-3l-.14-1.36a4.19,4.19,0,0,1-3.4,1.5,3.65,3.65,0,0,1-3.82-3.81c0-3.14,2.86-4.64,6.82-4.64,0-1.36-.41-2.31-2.32-2.31a5.27,5.27,0,0,0-3,1L195.37,44a8.47,8.47,0,0,1,4.36-1.08c4,0,4.9,2.45,4.9,5.31Zm-3.27-3.14c-1.91,0-3.81.41-3.81,2.32a1.53,1.53,0,0,0,1.5,1.63,2.07,2.07,0,0,0,2-2.31V49.86Z" transform="translate(0 0)"/><path class="cls-3" d="M218.25,56h-3.4V48.77c0-1.49-.55-2.86-1.91-2.86-.95,0-2,.82-2,2.59V56h-3.41V43.32h2.86l.14,1.64A4.18,4.18,0,0,1,214,43.05c2.32,0,4.09,1.64,4.09,5Z" transform="translate(0 0)"/><path class="cls-3" d="M232,52.45V56h-3l-.14-1.63a3.67,3.67,0,0,1-3.54,2c-2.86,0-4.91-2.59-4.91-6.4,0-4.36,2.46-6.54,5-6.54a3.12,3.12,0,0,1,3,1.5V38.15h3.41v14.3Zm-3.41-4c0-1.91-1.09-2.86-2.32-2.86-1.63,0-2.59,1.64-2.59,4s1,3.82,2.46,3.82a2.45,2.45,0,0,0,2.31-2.59V48.5Z" transform="translate(0 0)"/><path class="cls-3" d="M250.54,52.32a30,30,0,0,0,.14,3.81h-3l-.13-1.63A4.16,4.16,0,0,1,244,56.4c-2.45,0-3.95-1.5-3.95-5.31V43.6h3.41v6.94c0,1.91.54,3,1.91,3a2.16,2.16,0,0,0,2-2.31V43.6h3.41Z" transform="translate(0 0)"/><path class="cls-3" d="M264.17,56h-3.41V48.77c0-1.49-.54-2.86-1.91-2.86-1,0-2,.82-2,2.59V56h-3.4V43.32h2.86L256.4,45a4.2,4.2,0,0,1,3.54-1.91c2.32,0,4.09,1.64,4.09,5Z" transform="translate(0 0)"/><rect class="cls-3" x="267.03" y="38.01" width="3.41" height="17.98"/><path class="cls-3" d="M275.07,41.83a1.64,1.64,0,1,1,0-3.27,1.81,1.81,0,0,1,1.9,1.63c0,1.09-.81,1.64-1.9,1.64M276.7,56h-3.4V43.46h3.4Z" transform="translate(0 0)"/><path class="cls-3" d="M297.14,56H294V48.91c0-1.91-.54-3-1.9-3-1,0-1.91.82-1.91,2.45V56h-3.13V48.77c0-1.49-.55-2.59-1.64-2.59a2.36,2.36,0,0,0-2,2.59v7.5h-3.14V43.46h2.86l.14,1.63a3.86,3.86,0,0,1,3.54-1.9,3.31,3.31,0,0,1,3.14,2,4.38,4.38,0,0,1,3.81-2c2.32,0,3.95,1.5,3.95,5.31V56Z" transform="translate(0 0)"/><path class="cls-3" d="M301.63,41.83a1.64,1.64,0,0,1,0-3.27,1.82,1.82,0,0,1,1.91,1.63c0,1.09-.68,1.64-1.91,1.64M303.4,56H300V43.46h3.4Z" transform="translate(0 0)"/><path class="cls-3" d="M307,41.28l3.4-1v3.13h2.86v2.45h-2.86v5.45c0,1.5.55,2,1.5,2a2.27,2.27,0,0,0,1.09-.14v2.59a8.09,8.09,0,0,1-2.32.41c-3.54,0-3.81-3.14-3.81-4.5V45.91h-1.63V43.46h1.63Z" transform="translate(0 0)"/><path class="cls-3" d="M324.52,55.45a11.39,11.39,0,0,1-4.09.82c-3.95,0-6-2.46-6-6.41,0-3.54,2-6.81,5.86-6.81,3,0,5,2.32,5,6.13v1.36h-7.49c0,2.05,1.63,3,3.4,3a5.89,5.89,0,0,0,3-.54Zm-2.45-7c0-1.36-.55-2.86-2.05-2.86s-2.31,1.64-2.45,2.86Z" transform="translate(0 0)"/><path class="cls-3" d="M338.28,52.45V56h-3l-.13-1.63a3.68,3.68,0,0,1-3.54,2c-2.87,0-4.91-2.59-4.91-6.4,0-4.36,2.45-6.54,5-6.54a3.14,3.14,0,0,1,3,1.5V38.15h3.41v14.3Zm-3.4-4c0-1.91-1.09-2.86-2.32-2.86-1.64,0-2.59,1.64-2.59,4s.95,3.82,2.45,3.82a2.45,2.45,0,0,0,2.32-2.59V48.5Z" transform="translate(0 0)"/><path class="cls-3" d="M349.18,45.23a4.09,4.09,0,0,1,3.82-2c2.86,0,4.63,2.59,4.63,6.4,0,4.63-2.59,6.54-5,6.54a3.29,3.29,0,0,1-3-1.5v6.13h-3.41V43.19H349Zm.27,5.72c0,1.91,1.09,2.59,2.32,2.59,1.63,0,2.59-1.63,2.59-3.95s-1-4-2.45-4-2.32,1.09-2.32,2.86V51Z" transform="translate(0 0)"/><path class="cls-3" d="M370.84,49.73c0,4.63-3,6.54-5.86,6.54-3.4,0-5.85-2.46-5.85-6.41s2.59-6.54,6-6.54,5.72,2.59,5.72,6.41M365,45.78c-1.9,0-2.45,2.31-2.45,4.08,0,2.32,1,4.09,2.45,4.09s2.46-1.91,2.46-4.09-.68-4.08-2.46-4.08" transform="translate(0 0)"/><path class="cls-3" d="M379.83,46.32a4.33,4.33,0,0,0-2.45-.54c-.95,0-1.5.54-1.5,1.09,0,.81.55,1.09,1.91,1.63,2,1,3.13,2,3.13,3.81,0,2.46-1.9,4-4.9,4a9,9,0,0,1-3.54-.82L373,53a6,6,0,0,0,3,.81c1.09,0,1.63-.54,1.63-1.36s-.4-1.09-1.9-1.63c-2.32-1-3.14-2.32-3.14-3.54,0-2.32,1.91-4,4.5-4a6.14,6.14,0,0,1,3.13.82Z" transform="translate(0 0)"/><path class="cls-3" d="M389.78,46.32a4.35,4.35,0,0,0-2.45-.54c-1,0-1.5.54-1.5,1.09,0,.81.54,1.09,1.91,1.63,2,1,3.13,2,3.13,3.81,0,2.46-1.91,4-4.91,4a9,9,0,0,1-3.54-.82L383,53a6,6,0,0,0,3,.81c1.09,0,1.64-.54,1.64-1.36s-.41-1.09-1.91-1.63c-2.31-1-3.13-2.32-3.13-3.54,0-2.32,1.91-4,4.49-4a6.15,6.15,0,0,1,3.14.82Z" transform="translate(0 0)"/><path class="cls-3" d="M394.82,41.83a1.64,1.64,0,0,1,0-3.27,1.82,1.82,0,0,1,1.91,1.63,1.73,1.73,0,0,1-1.91,1.64M396.59,56h-3.4V43.46h3.4Z" transform="translate(0 0)"/><path class="cls-3" d="M402.86,45a4.06,4.06,0,0,1,3.54-1.64c2.86,0,4.63,2.59,4.63,6.41,0,4.49-2.58,6.81-5,6.81a3.64,3.64,0,0,1-3.4-2l-.14,1.63h-2.86v-18H403Zm0,6a2.37,2.37,0,0,0,2.31,2.59c1.64,0,2.59-1.5,2.59-3.95,0-2-.81-3.81-2.59-3.81a2.54,2.54,0,0,0-2.31,2.59Z" transform="translate(0 0)"/><path class="cls-3" d="M414.85,41.83a1.64,1.64,0,1,1,0-3.27,1.82,1.82,0,0,1,1.91,1.63c0,1.09-.69,1.64-1.91,1.64M416.62,56h-3.41V43.46h3.41Z" transform="translate(0 0)"/><rect class="cls-3" x="419.62" y="38.01" width="3.41" height="17.98"/><path class="cls-3" d="M427.65,41.83a1.64,1.64,0,0,1,0-3.27,1.82,1.82,0,0,1,1.91,1.63,1.89,1.89,0,0,1-1.91,1.64M429.29,56h-3.41V43.46h3.41Z" transform="translate(0 0)"/><path class="cls-3" d="M433,41.28l3.4-1v3.13h2.86v2.45h-2.86v5.45c0,1.5.55,2,1.5,2a2.27,2.27,0,0,0,1.09-.14v2.59a8.08,8.08,0,0,1-2.31.41c-3.55,0-3.82-3.14-3.82-4.5V45.91H431.2V43.46h1.63Z" transform="translate(0 0)"/><path class="cls-3" d="M442.64,41.83a1.64,1.64,0,0,1,0-3.27,1.65,1.65,0,1,1,0,3.27M444.41,56H441V43.46h3.4Z" transform="translate(0 0)"/><path class="cls-3" d="M456.67,55.45a11.38,11.38,0,0,1-4.08.82c-4,0-6-2.46-6-6.41,0-3.54,2-6.81,5.86-6.81,3,0,5,2.32,5,6.13v1.36H450c0,2.05,1.63,3,3.4,3a5.86,5.86,0,0,0,3-.54Zm-2.45-7c0-1.36-.54-2.86-2-2.86s-2.32,1.64-2.46,2.86Z" transform="translate(0 0)"/><path class="cls-3" d="M466.21,46.32a4.35,4.35,0,0,0-2.45-.54c-1,0-1.5.54-1.5,1.09,0,.81.54,1.09,1.91,1.63,2,1,3.13,2,3.13,3.81,0,2.46-1.91,4-4.91,4a9,9,0,0,1-3.54-.82L459.4,53a6,6,0,0,0,3,.81c1.1,0,1.64-.54,1.64-1.36s-.41-1.09-1.91-1.63c-2.31-1-3.13-2.32-3.13-3.54,0-2.32,1.91-4,4.5-4a6.14,6.14,0,0,1,3.13.82Z" transform="translate(0 0)"/><path class="cls-3" d="M469.48,54.22a1.92,1.92,0,0,1,2-2,2.1,2.1,0,0,1,2.05,2,1.87,1.87,0,0,1-2.05,2.05,2,2,0,0,1-2-2.05" transform="translate(0 0)"/><path class="cls-3" d="M158,98.77c.13,2.32-1,3.27-2.32,3.27a5.65,5.65,0,0,1-2.59-.81,3.56,3.56,0,0,0-1.9-.82c-.55,0-.82.41-1,1.5h-1.5c0-2.32,1.09-3.27,2.46-3.27a5.65,5.65,0,0,1,2.58.81,4.68,4.68,0,0,0,1.91.69c.55,0,.82-.41.82-1.5H158Z" transform="translate(0 0)"/><path class="cls-3" d="M166.08,97.55a2.82,2.82,0,0,1,2.58-1.23c2.05,0,3.41,1.91,3.41,4.63,0,3.27-1.91,4.91-3.68,4.91a2.61,2.61,0,0,1-2.45-1.5l-.14,1.23h-2V92.51h2.45Zm0,4.36a1.72,1.72,0,0,0,1.63,1.9c1.23,0,1.91-1.09,1.91-2.86,0-1.5-.55-2.72-1.91-2.72a1.82,1.82,0,0,0-1.63,1.91Z" transform="translate(0 0)"/><path class="cls-3" d="M181.2,96.46l-2,6.26c-1,3-1.77,4.5-2.86,5.59a3.82,3.82,0,0,1-2.31,1.23l-.55-2.05a5.39,5.39,0,0,0,1.23-.68,3.15,3.15,0,0,0,1.22-1.63.51.51,0,0,0-.13-.41l-3-8.31h2.59l1.36,4.77c.14.54.27,1.22.41,1.63l.41-1.63,1.09-4.77Z" transform="translate(0 0)"/><path class="cls-3" d="M192.1,95.37a4.26,4.26,0,0,0-2.18-.55c-1.23,0-1.91.68-1.91,1.37,0,1,.68,1.36,2.18,2,2,1,2.86,2,2.86,3.68,0,2.18-1.63,3.81-4.63,3.81a8.94,8.94,0,0,1-3.13-.68l.4-2a5.5,5.5,0,0,0,2.73.68c1.36,0,2-.68,2-1.64s-.54-1.5-2-2c-1.91-.82-3.13-2-3.13-3.68,0-2,1.63-3.68,4.35-3.68a6.88,6.88,0,0,1,2.73.55Z" transform="translate(0 0)"/><path class="cls-3" d="M206.67,96.46,204,105.59h-2.18l-1-3.55a17.27,17.27,0,0,1-.55-2.86c-.14,1.09-.41,2-.54,2.86l-1,3.55h-2.18L194,96.46h2.46l.81,4c.14,1,.41,1.91.55,2.86a18.42,18.42,0,0,1,.68-2.86l.95-4.09h1.91l.95,4c.28,1.09.41,2,.69,3a27.39,27.39,0,0,1,.54-3l.82-4h2.31Z" transform="translate(0 0)"/><path class="cls-3" d="M214.85,103.4a10.18,10.18,0,0,0,.14,2.19h-2.18l-.14-1a3,3,0,0,1-2.45,1.09,2.65,2.65,0,0,1-2.73-2.72c0-2.32,2-3.41,4.91-3.41,0-1-.28-1.63-1.64-1.63a3.77,3.77,0,0,0-2.18.68L208.17,97a5.78,5.78,0,0,1,3.14-.82c2.86,0,3.54,1.78,3.54,3.82Zm-2.45-2.31c-1.37,0-2.73.27-2.73,1.63a1.12,1.12,0,0,0,1.09,1.23,1.53,1.53,0,0,0,1.5-1.64Z" transform="translate(0 0)"/><path class="cls-3" d="M229.56,105.59h-2.31v-5.18c0-1.36-.41-2.18-1.37-2.18-.68,0-1.36.54-1.36,1.77v5.59h-2.31v-5.32c0-1.09-.41-1.91-1.23-1.91a1.74,1.74,0,0,0-1.5,1.91v5.45h-2.31V96.46h2l.14,1.22a2.86,2.86,0,0,1,2.58-1.36,2.4,2.4,0,0,1,2.32,1.5,3.16,3.16,0,0,1,2.72-1.5c1.64,0,2.87,1.09,2.87,3.82v5.45Z" transform="translate(0 0)"/><path class="cls-3" d="M232.83,95.23a1.23,1.23,0,0,1,0-2.45A1.25,1.25,0,0,1,234.19,94c0,.82-.54,1.23-1.36,1.23m1.23,10.36h-2.45V96.46h2.45Z" transform="translate(0 0)"/><path class="cls-3" d="M249.18,105.59h-2.59l-1-3.28h-3.41l-.81,3.28H239l3.55-12.54h3Zm-3.81-5.18-.82-2.86c-.14-.82-.41-1.77-.55-2.59-.13.82-.4,1.77-.54,2.59l-.82,2.86Z" transform="translate(0 0)"/><path class="cls-3" d="M258.45,105.59H256v-5.32c0-1.09-.41-2-1.36-2-.68,0-1.5.54-1.5,1.91v5.45h-2.45V96.46h2l.14,1.22a3.06,3.06,0,0,1,2.59-1.36c1.63,0,3,1.23,3,3.68Z" transform="translate(0 0)"/><path class="cls-3" d="M267.44,103.4a11,11,0,0,0,.13,2.19h-2.18l-.13-1a3,3,0,0,1-2.46,1.09,2.64,2.64,0,0,1-2.72-2.72c0-2.32,2-3.41,4.91-3.41,0-1-.28-1.63-1.64-1.63a3.77,3.77,0,0,0-2.18.68L260.76,97a5.78,5.78,0,0,1,3.14-.82c2.86,0,3.54,1.78,3.54,3.82ZM265,101.09c-1.37,0-2.73.27-2.73,1.63a1.11,1.11,0,0,0,1.09,1.23,1.53,1.53,0,0,0,1.5-1.64v-1.22Z" transform="translate(0 0)"/><path class="cls-3" d="M277.38,105.59h-2.45v-5.32c0-1.09-.41-2-1.36-2-.68,0-1.5.54-1.5,1.91v5.45h-2.45V96.46h2l.14,1.22a3.06,3.06,0,0,1,2.59-1.36c1.63,0,3,1.23,3,3.68Z" transform="translate(0 0)"/><path class="cls-3" d="M287.33,103v2.59h-2.05l-.13-1.23a2.78,2.78,0,0,1-2.59,1.5c-2,0-3.54-1.91-3.54-4.63,0-3.14,1.77-4.77,3.68-4.77a2.33,2.33,0,0,1,2.18,1.09V92.64h2.45Zm-2.45-2.86c0-1.37-.82-2-1.64-2-1.23,0-1.91,1.23-1.91,2.86s.68,2.73,1.77,2.73a1.73,1.73,0,0,0,1.64-1.91v-1.63Z" transform="translate(0 0)"/><path class="cls-3" d="M302.18,105.59h-2.73L296.59,100l-.95,1.23v4.36h-2.45V93.05h2.45v5.72c.27-.54.54-1,.82-1.5l2.72-4.22H302l-3.81,5.31Z" transform="translate(0 0)"/><path class="cls-3" d="M308.17,98.64h-.68c-1.09,0-1.91.68-1.91,2.31v4.77h-2.45V96.59h2.05l.13,1.64a2.4,2.4,0,0,1,2.32-1.77h.54Z" transform="translate(0 0)"/><path class="cls-3" d="M310.76,95.23a1.23,1.23,0,0,1,0-2.45A1.25,1.25,0,0,1,312.12,94a1.33,1.33,0,0,1-1.36,1.23M312,105.59h-2.45V96.46H312Z" transform="translate(0 0)"/><path class="cls-3" d="M318.94,98.5a3.45,3.45,0,0,0-1.78-.41c-.68,0-1.09.41-1.09.82s.41.82,1.37,1.23c1.5.68,2.31,1.49,2.31,2.72,0,1.77-1.36,2.86-3.54,2.86a7.34,7.34,0,0,1-2.59-.54l.41-1.77a4.67,4.67,0,0,0,2.18.54c.82,0,1.23-.41,1.23-1s-.28-.82-1.37-1.23c-1.63-.68-2.31-1.63-2.31-2.59A3,3,0,0,1,317,96.32a5.13,5.13,0,0,1,2.31.55Z" transform="translate(0 0)"/><path class="cls-3" d="M329.15,105.59H326.7v-5.18c0-1.23-.41-2-1.36-2a1.58,1.58,0,0,0-1.5,1.78v5.58h-2.45V92.64h2.45v5.18a2.9,2.9,0,0,1,2.45-1.23c1.64,0,2.86,1.23,2.86,3.82Z" transform="translate(0 0)"/><path class="cls-3" d="M339.1,105.59h-2.45v-5.32c0-1.09-.41-2-1.37-2-.68,0-1.49.54-1.49,1.91v5.45h-2.46V96.46h2.05l.13,1.22a3.06,3.06,0,0,1,2.59-1.36c1.64,0,3,1.23,3,3.68Z" transform="translate(0 0)"/><path class="cls-3" d="M348.09,103.4a10.18,10.18,0,0,0,.14,2.19h-2.18l-.14-1a3,3,0,0,1-2.45,1.09,2.65,2.65,0,0,1-2.73-2.72c0-2.32,2-3.41,4.91-3.41,0-1-.27-1.63-1.64-1.63a3.79,3.79,0,0,0-2.18.68L341.41,97a5.81,5.81,0,0,1,3.14-.82c2.86,0,3.54,1.78,3.54,3.82Zm-2.45-2.31c-1.36,0-2.73.27-2.73,1.63A1.12,1.12,0,0,0,344,104a1.53,1.53,0,0,0,1.5-1.64v-1.22Z" transform="translate(0 0)"/></g></g></g></svg>