<?xml version="1.0" encoding="utf-8"?>
<!-- Generator: Adobe Illustrator 24.2.1, SVG Export Plug-In . SVG Version: 6.00 Build 0)  -->
<svg version="1.1" id="レイヤー_1" xmlns="http://www.w3.org/2000/svg" xmlns:xlink="http://www.w3.org/1999/xlink" x="0px"
	 y="0px" width="84.6px" height="55.2px" viewBox="0 0 84.6 55.2" style="enable-background:new 0 0 84.6 55.2;"
	 xml:space="preserve">
<style type="text/css">
	.st0{fill:#467026;}
</style>
<g id="g33OqB_1_">
	<g>
		<path class="st0" d="M65.2,37.6c0,4.8,0,9.6,0,14.3c0,1.5-0.6,2-2.1,2c-6.8,0-13.6,0-20.4,0c-0.5,0-1.1,0.1-1.5-0.4
			c-0.5-0.6-0.9-1.1-1-1.9c0-0.2,0-0.4,0-0.6c0-9,0-18,0-27c0-1.5,0.6-2.5,2-3.1c0.4-0.1,0.8-0.3,1.1-0.3c6.2,0,12.3,0,18.5,0
			c0.7,0,1.5,0.1,2.1,0.4c0.7,0.3,1.2,0.9,1.2,1.9C65.1,27.9,65.2,32.8,65.2,37.6z M52.7,24.9c-1.9,0-3.9,0.1-5.8,0
			c-1.1,0-1.6,0.5-2.1,1.2c-0.6,0.9-0.5,1.8-0.4,2.7c0.1,0.6,0.7,1.1,1.1,1.6c0.4,0.5,0.9,0.3,1.3,0.3c3.8,0,7.6,0,11.4,0
			c1.9,0,2.3-0.4,3-2.1c0.4-1-0.3-1.8-0.4-2.7c0-0.3-0.8-0.7-1.2-0.9c-0.3-0.2-0.8-0.1-1.2-0.2C56.6,24.9,54.6,24.9,52.7,24.9z
			 M49.4,50.3c1.2,0,2.5,0,3.7,0c0.6,0,1.6-0.7,1.7-1.2c0.1-0.5,0-1,0-1.4c0-0.8-0.8-1.5-1.6-1.5c-2.3,0-4.5,0-6.8,0
			c-0.9,0-1.9,0.9-2,1.7c-0.1,0.8,0.3,1.4,0.6,2c0.3,0.6,0.9,0.4,1.5,0.4C47.4,50.3,48.4,50.3,49.4,50.3z M57.3,42.3
			c0,1.4,0.6,2.1,2,2.1c0.8,0,2.1-1.2,2.1-2c0-0.8-1.2-2.1-2.1-2.1C58,40.3,57.3,41,57.3,42.3z M54.8,36.1c0-1.3-0.7-2.1-1.9-2
			c-0.5,0-1.2,0.3-1.5,0.7c-0.4,0.4-0.7,1-0.7,1.5c-0.1,0.8,1.4,1.9,2.3,1.9C54.2,38.2,54.8,37.5,54.8,36.1z M59.1,38.2
			c1,0,2.3-1.1,2.3-2.1c0-0.8-1.4-2.1-2.3-2.1c-1,0-1.8,1-1.9,2.3C57.3,37.5,57.9,38.2,59.1,38.2z M54.8,42.4c0-1.4-0.6-2.1-1.8-2.1
			c-1.3,0-1.9,0.6-1.9,2c0,1.5,0.6,2.2,1.7,2.2C54.1,44.4,54.8,43.7,54.8,42.4z M59.2,50.3c0.6,0.1,1.1-0.1,1.4-0.6
			c0.3-0.5,0.8-1,0.8-1.5c0.1-0.8-1.4-2.1-2.3-2c-1,0-1.8,1-1.8,2.3C57.3,49.6,58,50.3,59.2,50.3z M46.4,44.4c1.1,0,2.1-0.9,2.1-2
			c0-1.1-0.9-2.1-2-2.1c-0.8,0-2.1,1.1-2.1,2C44.3,43.1,45.6,44.4,46.4,44.4z M48.5,36.1c0-1.1-1-2.1-1.9-2c-0.9,0-2.3,1.3-2.3,2.1
			c0.1,0.9,1.3,2.1,2.1,2C47.7,38.2,48.6,37.2,48.5,36.1z"/>
		<path class="st0" d="M19.4,27.8c0-6,0-12.1,0-18.1c0-0.9,0.2-1.5,0.9-2.2c1.1-1,2.2-2.1,3.2-3.2c0.4-0.4,0.7-0.8,1-1.2
			c0.8-1.3,2-2,3.7-2c8.8,0.1,17.6,0,26.4,0c0.7,0,1.3-0.1,1.9,0.6c0.3,0.4,0.4,0.6,0.4,1.1c0,4.4,0,8.7,0,13.1
			c0,0.4-0.1,0.7-0.6,0.6c-0.1,0-0.1,0-0.2,0c-2.2,0.1-2.2,0.1-2.2-2.1c0-3.2,0-6.4,0-9.6c0-0.6-0.2-0.8-0.8-0.8
			c-7.7,0-15.4,0-23.1,0c-0.6,0-0.7,0.2-0.7,0.7c0,1.9,0,3.7,0,5.6c0,1.4-0.2,1.6-1.7,1.6c-1.5,0-3,0-4.6,0c-0.9,0-1.3,0.3-1.2,1.2
			c0.1,0.9,0.4,1.8,0.4,2.7c0,8.5,0,16.9,0,25.4c0,0.8-0.3,1.4-0.4,2.1c-0.2,1.5,0.1,1.8,1.6,1.8c3.7,0,7.5,0,11.2,0
			c1.3,0,1.3,0,1.3,1.4c0,0.1,0,0.3,0,0.4c0,0.5,0,0.7-0.6,0.7c-4.9,0-9.8,0-14.8,0c-1,0-1.2-0.3-1.2-1.4c0-4.1,0-8.2,0-12.3
			C19.4,32,19.4,29.9,19.4,27.8z M22.6,9.5c1.2,0,2.2,0,3.2,0c0.5,0,0.7-0.2,0.7-0.7c0-1,0.1-2,0.1-3c0-0.1,0-0.3,0.1-0.4
			c-0.2,0-0.4,0-0.5,0.1C25,6.8,23.9,8,22.6,9.5z"/>
		<path class="st0" d="M37.3,16.6c-3.3,0-6.5,0-9.8,0c-1.1,0-1.4-0.3-1.5-1.2c0-0.8,0.6-1.6,1.4-1.7c0.2,0,0.4,0,0.6,0
			c6.3,0,12.6,0,18.9,0c0.8,0,1.4,0.2,1.7,0.8c0.2,0.4,0.3,1,0.2,1.5c-0.1,0.4-0.6,0.6-1.2,0.6c-2.8,0-5.5,0-8.3,0
			C38.7,16.6,38,16.6,37.3,16.6z"/>
		<path class="st0" d="M31.3,23.7c-1.4,0-2.8,0-4.2,0c-0.6,0-1-0.3-1-0.8c-0.1-0.5-0.3-1.2,0.4-1.5c0.5-0.3,1.1-0.6,1.6-0.6
			c2.6-0.1,5.3,0,7.9,0c0.5,0,0.6,0.3,0.5,0.6c-0.1,0.6-0.3,1.1-0.4,1.7c0,0.4-0.2,0.6-0.6,0.6C34.1,23.6,32.7,23.7,31.3,23.7z"/>
		<path class="st0" d="M31.5,35.3c1,0,2.1,0,3.1,0c1.5,0,1.5,0,1.5,1.6c0,0.3,0,0.6,0,0.8c0,0.5-0.2,0.5-0.6,0.5c-2.4,0-4.8,0-7.2,0
			c-0.3,0-0.6,0-0.8,0c-0.5-0.1-1.2-0.8-1.3-1.4c-0.2-1,0.3-1.5,1.3-1.5C28.8,35.3,30.1,35.3,31.5,35.3z"/>
		<path class="st0" d="M31.3,30.7c-1.3,0-2.6,0-3.9,0c-1.1,0-1.4-0.3-1.3-1.3c0-0.8,0.4-1.2,1.2-1.2c2.7,0,5.4,0,8.1,0
			c0.5,0,0.7,0.2,0.7,0.7c0,0.4,0,0.8,0,1.2c0,0.4-0.2,0.6-0.6,0.6C34.1,30.7,32.7,30.7,31.3,30.7z"/>
	</g>
</g>
</svg>
