<svg xmlns="http://www.w3.org/2000/svg" viewBox="0 0 214 57"><defs><style>.cls-1{fill:#018a8c;}.cls-2{fill:none;stroke:#018a8c;stroke-miterlimit:10;}</style></defs><g id="レイヤー_2" data-name="レイヤー 2"><g id="レイヤー_1-2" data-name="レイヤー 1"><path class="cls-1" d="M67.9,22.72H70l2.16,6c.28.79.52,1.59.79,2.39h.08c.27-.8.49-1.6.77-2.39l2.13-6H78.1V34.5H76.37V28.67c0-1.05.15-2.57.24-3.65h-.06l-1,2.73-2,5.61H72.4l-2.06-5.61L69.41,25h-.06c.08,1.08.22,2.6.22,3.65V34.5H67.9Z"/><path class="cls-1" d="M84.38,28.56c0-3.79,2.1-6.06,5.13-6.06s5.13,2.27,5.13,6.06-2.11,6.15-5.13,6.15S84.38,32.36,84.38,28.56Zm8.36,0c0-2.77-1.28-4.45-3.23-4.45s-3.22,1.68-3.22,4.45,1.26,4.53,3.22,4.53S92.74,31.33,92.74,28.56Z"/><path class="cls-1" d="M107.36,34.5l-2.67-4.75h-1.9V34.5h-1.86V22.72h3.86c2.43,0,4.25.86,4.25,3.41a3.29,3.29,0,0,1-2.46,3.38l2.88,5Zm-4.57-6.24h1.77c1.71,0,2.64-.71,2.64-2.13s-.93-1.92-2.64-1.92h-1.77Z"/><path class="cls-1" d="M115.25,22.72h7v1.55h-5.1v3.28h4.32v1.57h-4.32v3.81h5.28V34.5h-7.14Z"/><rect class="cls-2" x="0.5" y="0.5" width="213" height="56"/><polyline class="cls-2" points="155.5 32.5 187.5 32.5 176.5 20.5"/></g></g></svg>