<?xml version="1.0" encoding="utf-8"?>
<!-- Generator: Adobe Illustrator 24.2.1, SVG Export Plug-In . SVG Version: 6.00 Build 0)  -->
<svg version="1.1" id="レイヤー_1" xmlns="http://www.w3.org/2000/svg" xmlns:xlink="http://www.w3.org/1999/xlink" x="0px"
	 y="0px" viewBox="0 0 84.6 55.2" style="enable-background:new 0 0 84.6 55.2;" xml:space="preserve">
<style type="text/css">
	.st0{fill:#467026;}
</style>
<g id="レイヤー_2_1_">
	<g id="レイヤー_1-2">
		<g id="T7URJG.tif">
			<path class="st0" d="M29.7,51.4c-1.3,1.2-3.2,1.6-4.9,1.1c-1.7-0.5-3.1-1.8-3.5-3.6C21.1,49,21,49,20.9,49.1
				c-2.5,1.6-5.7,0.9-7.3-1.6c-0.4-0.7-0.7-1.4-0.8-2.2c0-0.3-0.1-0.5-0.5-0.4c-1.9,0.4-3.9-0.1-5.2-1.5c-2.2-1.8-2.6-5.1-0.8-7.4
				c0.5-0.6,0.5-0.7-0.2-1c-1.3-0.7-2.6-1.3-4-1.9c-0.7-0.2-1.3-0.4-2-0.6c0.5-1.2,1-2.3,1.4-3.5c1.4-3.6,2.9-7.2,4.3-10.9
				c1.1-2.8,2.2-5.6,3.3-8.3c0.6-1.6,1.2-3.1,1.8-4.7c0.3-0.8,0.3-0.8,1.1-0.6c4.2,1.2,8.5,1.3,12.8,0.4c2.8-0.7,5.6-1.6,8.3-2.8
				c2.3-1,4.7-1.6,7.2-2c3-0.4,6-0.1,8.8,0.9c0.6,0.2,1.2,0.3,1.8,0.3c1.9-0.1,3.8,0,5.7,0.4c4.1,0.8,8.1,1.5,12.2,2.3
				c2.7,0.5,5.4,0.4,8-0.5c0.4-0.1,0.5,0,0.7,0.4c1.6,6,3.2,12,4.8,18c0.8,3,1.6,6.1,2.4,9.1c0.1,0.3,0.1,0.5-0.2,0.6
				c-1.6,1.1-3.5,1.8-5.3,2.3c-0.9,0.1-1.9,0.2-2.8,0.2c-0.8,0-0.8,0-0.8,0.8c0,2.2-1.1,4.2-2.9,5.3c-1.1,0.7-2.3,0.9-3.5,0.5
				c-0.4-0.1-0.6,0-0.6,0.4c-0.3,2.5-2.3,4.5-4.8,4.7c-0.4,0-0.9,0-1.3,0c-0.4-0.1-0.5,0.1-0.5,0.5c0,1.2-0.5,2.4-1.3,3.3
				c-0.6,0.7-1.5,1.1-2.5,1.1c-0.9,0-1.8-0.2-2.6-0.2c-0.2,0-0.4,0.1-0.5,0.2c-0.2,1.7-1.5,2.4-2.9,2.8c-2.7,0.8-5.5,0.5-8-0.8
				c-1-0.5-2-1-3-1.5c-0.2-0.2-0.5-0.1-0.7,0.1c0,0-0.1,0.1-0.1,0.1c-0.3,0.5-0.7,0.9-1,1.3c-1.1,1.6-3.1,2.5-5,2.1
				c-1.9-0.3-3.5-1.6-4.1-3.4l-0.1-0.2C29.9,51.5,29.8,51.5,29.7,51.4z M20.2,33.1c0.1-0.2,0.1-0.3,0.2-0.4c0.5-0.6,0.9-1.2,1.4-1.9
				c1.3-1.8,3.7-2.5,5.8-1.8c2,0.7,3.5,2.5,3.6,4.7c0,0.4,0.1,0.6,0.5,0.5c0.2,0,0.4,0,0.6,0c2.7-0.1,5,2,5.2,4.7
				c0,0.5,0.1,0.6,0.6,0.5c2.3-0.2,4.4,1,5.4,3c0.1,0.3,0.4,0.5,0.7,0.7c2.6,1.4,5.3,2.8,7.9,4.2c1.3,0.8,2.7,1.3,4.2,1.7
				c1.5,0.2,2.6-0.2,3-1.4c0.1-0.6,0.2-1.2,0.2-1.8c0-0.4-0.2-0.8-0.6-1c-4.1-2.3-8.2-4.7-12.4-7.1c-0.7-0.4-1.3-0.8-2-1.2
				c-0.4-0.2-0.6-0.7-0.5-1.1c0.1-0.5,0.6-0.7,1.1-0.6c0.2,0,0.4,0.1,0.6,0.2c0.7,0.4,1.3,0.7,1.9,1.1c4.2,2.4,8.4,4.8,12.6,7.2
				c0.9,0.6,2,0.9,3.2,0.7c1.7-0.3,3-1.8,2.8-3.5c0-0.4-0.3-0.8-0.6-1c-1.6-0.9-3.1-1.8-4.7-2.8L53,31.9c-0.9-0.6-1.9-1.1-2.8-1.7
				c-0.5-0.2-0.7-0.8-0.5-1.3c0.1-0.2,0.2-0.4,0.4-0.5c0.4-0.3,0.8-0.1,1.2,0.1l14.9,9c1,0.7,2.2,1.2,3.4,1.5c0.7,0.1,1.4,0,2-0.4
				c1.3-0.8,2-2.3,1.9-3.8c0-0.7-0.1-1.2-0.8-1.4c-0.2-0.1-0.4-0.2-0.5-0.3c-1-0.8-2-1.7-3-2.5c-1.7-1.5-3.4-3.1-5.3-4.5
				c-2.4-1.8-5-3.4-7.6-5c-1.6-1-3.2-1.9-4.9-2.8c-1.1-0.6-2.4-0.6-3.5,0.1c-1.5,1-3.2,1.6-5,1.9c-0.3,0.1-0.5,0.2-0.6,0.5
				c-0.2,0.6-0.3,1.2-0.6,1.8c-1.8,3.5-4.8,5.5-8.9,5.1c-1.5,0-2.7-1.3-2.7-2.8c0-0.1,0-0.1,0-0.2c0.1-1.8,0.5-3.5,1.2-5.1
				c0.5-0.9,0.9-1.9,1-3c0-0.9,0-1.9,0.1-2.8c0-1.5,0.7-2.9,1.7-4C37.3,6.4,41,4,45.1,2.4c0.1-0.1,0.3-0.2,0.5-0.3
				C45.4,2.1,45.3,2,45.2,2c-1.6-0.1-3.2-0.1-4.9,0c-2.6,0.4-5.1,1.1-7.5,2.2c-3.1,1.3-6.3,2.3-9.6,2.9C19.9,7.6,16.4,7.6,13,6.8
				c-0.5-0.1-0.7,0-0.8,0.4c-1.2,3-2.4,6.1-3.6,9.1c-1.7,4.1-3.3,8.2-5,12.3c-0.3,0.7-0.5,1.4-0.8,2c-0.1,0.2-0.1,0.5,0.1,0.6
				c0,0,0.1,0,0.1,0C4.5,32,6,32.8,7.4,33.5c0.2,0.2,0.5,0.1,0.7-0.1c0,0,0-0.1,0.1-0.1c0.6-0.9,1.3-1.7,1.9-2.5
				c0.6-0.9,1.6-1.5,2.6-1.8c2.7-0.7,4.6,0.1,6.3,2.1C19.5,31.7,19.9,32.4,20.2,33.1z M43.1,18.1c0.6-0.1,1.1-0.2,1.7-0.4
				c1-0.4,1.9-1,2.9-1.4c1.2-0.6,2.7-0.7,3.9-0.1c1,0.4,2,0.9,2.9,1.5c2.2,1.3,4.3,2.6,6.5,4c2.3,1.4,4.5,2.9,6.5,4.7
				c1.6,1.5,3.3,2.9,4.9,4.5c1.2,1.1,2.9,1.7,4.6,1.6c1.7-0.1,3.3-0.7,4.8-1.5c0.4-0.2,0.5-0.5,0.4-0.9c-0.9-3.4-1.8-6.7-2.7-10.1
				c-1.2-4.5-2.4-9-3.6-13.5c-0.1-0.4-0.3-0.4-0.7-0.4c-1.9,0.4-3.8,0.5-5.8,0.2c-4.4-0.8-8.7-1.7-13.1-2.5c-4.7-1-9.6-0.2-13.8,2.3
				C40.2,7.2,38,8.8,36,10.6c-1.1,1-1.7,2.3-1.6,3.8c0.1,0.8,0.1,1.5,0,2.3c-0.2,0.9-0.5,1.9-0.9,2.8c-0.8,1.6-1.2,3.3-1.3,5
				c0,0.8,0.2,1,0.9,1.1c2.1,0.3,4.3-0.6,5.7-2.2c1.1-1.4,1.8-3,2.1-4.7c0.3-1.5,0.5-2.9,0.6-4.4c0-0.6,0.4-1,1-1
				c0.5,0,0.9,0.4,1,0.9c0,0,0,0,0,0.1c0,0.4,0,0.8-0.1,1.2C43.3,16.3,43.2,17.1,43.1,18.1z M14.7,44.6c0,1.5,0.9,2.8,2.3,3.2
				c1.3,0.4,2.7,0,3.5-1.1c2.7-3.6,5.4-7.1,8.1-10.7c1.1-1.5,0.8-3.5-0.6-4.6c-1.5-1.1-3.5-0.8-4.6,0.6l0,0l-3.3,4.3l-4.8,6.4
				C14.9,43.2,14.6,43.9,14.7,44.6z M23.2,47.9c0.1,1.2,0.9,2.3,2.1,2.7c1.2,0.5,2.6,0.1,3.4-1c0.8-1,1.6-2.1,2.4-3.1
				c1.3-1.8,2.7-3.5,4-5.3c1-1.3,0.8-3.2-0.5-4.2c-0.1-0.1-0.2-0.1-0.3-0.2c-1.4-1-3.3-0.6-4.3,0.8l-6.2,8.2
				C23.3,46.3,23.1,47.1,23.2,47.9z M18.2,34.6c0-1.5-0.9-2.8-2.2-3.4c-1.4-0.9-3.4-0.6-4.4,0.8c-1.4,1.8-2.7,3.6-4,5.3
				c-0.5,0.7-0.7,1.6-0.6,2.4c0.2,1.1,0.8,2,1.8,2.6c1.5,1.1,3.6,0.9,4.7-0.6c0-0.1,0.1-0.1,0.1-0.2l3.5-4.7
				C17.8,36.3,18.2,35.4,18.2,34.6z M42.2,45c0.1-1.5-0.8-2.9-2.2-3.5c-1.3-0.5-2.7,0-3.6,1.1c-0.5,0.6-1,1.3-1.5,2
				c-1,1.3-2,2.6-2.9,3.9s-0.4,3.2,1.2,4.3c1.4,0.8,3.2,0.5,4.1-0.8l4.1-5.4C41.9,46.1,42.1,45.6,42.2,45z M44.2,45.3l-0.2,0.4
				c-0.4,0.8-0.8,1.5-1.2,2.3c-0.3,0.4-0.6,0.9-1,1.3c-0.2,0.3-0.2,0.5,0.2,0.6c0.5,0.2,1,0.5,1.6,0.8c1.2,0.5,2.4,1,3.6,1.4
				c1.6,0.4,3.3,0.3,4.8-0.5c0.5-0.2,0.8-0.6,0.8-1.1c0-0.5-0.3-0.9-0.7-1.1c-2.4-1.2-4.8-2.5-7.2-3.8L44.2,45.3z"/>
		</g>
	</g>
</g>
</svg>
