<?xml version="1.0" encoding="utf-8"?>
<!-- Generator: Adobe Illustrator 24.2.3, SVG Export Plug-In . SVG Version: 6.00 Build 0)  -->
<svg version="1.1" id="レイヤー_1" xmlns="http://www.w3.org/2000/svg" xmlns:xlink="http://www.w3.org/1999/xlink" x="0px"
	 y="0px" width="380.1px" height="251px" viewBox="0 0 380.1 251" style="enable-background:new 0 0 380.1 251;"
	 xml:space="preserve">
<style type="text/css">
	.st0{fill:#4D4D4D;}
</style>
<g>
	<path class="st0" d="M138.1,235c-1.4,0.5-4.3,1.2-7.1,1.2c-3.8,0-6.6-1-8.7-3c-2.1-2.1-3.4-5.5-3.4-9.4c0-8.4,5.6-12.9,12.7-12.9
		c2.5,0,4.6,0.5,5.8,1l-1,3.9c-1.1-0.5-2.5-0.9-4.7-0.9c-4.4,0-7.8,2.7-7.8,8.7c0,5.7,3.1,8.6,7.2,8.6c1.2,0,2-0.2,2.4-0.4v-6.1
		h-3.6v-3.8h8.1V235H138.1z"/>
	<path class="st0" d="M157.4,236h-4.8v-10.3c0-2.3-0.7-4.1-2.8-4.1c-1.2,0-3,0.8-3,3.5V236h-4.7v-25.9h4.8v10.1h0.1
		c1.3-1.9,3.3-2.5,4.8-2.5c3.2,0,5.7,2.3,5.7,7.6V236H157.4z"/>
	<path class="st0" d="M175.2,235.3c-1.5,0.6-3.6,1-5.8,1c-5.5,0-8.7-3.5-8.7-9.1c0-5.2,3-9.6,8.2-9.6c4.3,0,7.2,3.1,7.2,8.9
		c0,0.7,0,1.4-0.1,1.9h-10.7c0.1,3.1,2.3,4.3,4.9,4.3c1.8,0,3.2-0.3,4.4-0.7L175.2,235.3z M171.7,225.1c0-1.9-0.7-4.2-3.1-4.2
		c-2.3,0-3.3,2.4-3.4,4.2H171.7z"/>
	<path class="st0" d="M192.9,235.3c-1.5,0.6-3.6,1-5.8,1c-5.5,0-8.7-3.5-8.7-9.1c0-5.2,3-9.6,8.2-9.6c4.3,0,7.2,3.1,7.2,8.9
		c0,0.7,0,1.4-0.1,1.9H183c0.1,3.1,2.3,4.3,4.9,4.3c1.8,0,3.2-0.3,4.4-0.7L192.9,235.3z M189.4,225.1c0-1.9-0.7-4.2-3.1-4.2
		c-2.3,0-3.3,2.4-3.4,4.2H189.4z"/>
	<path class="st0" d="M204.4,211.2h4.8V236h-4.8V211.2z"/>
	<path class="st0" d="M232,236h-4.8l-5.3-10.2c-1.3-2.5-2.8-5.6-3.8-8.3H218c0.2,3.1,0.3,6.5,0.3,11v7.6H214v-24.8h5.2l5.2,10
		c1.3,2.5,2.7,5.5,3.7,8.1h0.1c-0.3-3.2-0.4-6.7-0.4-10.7v-7.4h4.3V236H232z"/>
	<path class="st0" d="M252.7,235.4c-0.9,0.5-2.9,0.9-5.5,0.9c-7.4,0-11.6-5.1-11.6-12.4c0-8.7,5.6-13,12.1-13c2.7,0,4.4,0.5,5.1,0.9
		l-0.9,3.9c-1-0.4-2.3-0.8-4-0.8c-4.1,0-7.4,2.8-7.4,8.8c0,5.6,2.9,8.6,7.3,8.6c1.5,0,3.1-0.3,4-0.7L252.7,235.4z"/>
	<path class="st0" d="M255.6,233.3c0-1.8,1.2-3.1,2.9-3.1c1.7,0,2.9,1.2,2.9,3.1c0,1.8-1.1,3.1-2.9,3.1S255.6,235,255.6,233.3z"/>
</g>
<g>
	<path class="st0" d="M22.4,109l-3,12.7h-2.6l-1.1-5.4c-0.3-1.4-0.4-2.6-0.7-4l0,0c-0.3,1.4-0.4,2.8-0.8,4l-1.2,5.4h-2.5L7.7,109
		h2.6l1,5.5c0.3,1.5,0.6,3,0.7,4.4l0,0c0.1-1.4,0.6-2.9,0.8-4.4l1.1-5.5h2.5l1.1,5.5c0.3,1.5,0.6,2.9,0.7,4.4l0,0
		c0.1-1.5,0.4-2.9,0.7-4.4l1.1-5.4h2.5C22.4,109.2,22.4,109,22.4,109z"/>
	<path class="st0" d="M31.5,121.7h-2.3v-5.2c0-1.2-0.4-2.1-1.4-2.1c-0.6,0-1.5,0.4-1.5,1.8v5.6h-2.6v-13.2h2.5v5.2l0,0
		c0.7-1,1.7-1.2,2.5-1.2c1.7,0,2.9,1.2,2.9,3.9C31.5,116.5,31.5,121.7,31.5,121.7z"/>
	<path class="st0" d="M40.6,119.5c0,0.8,0,1.7,0.1,2.2h-2.2l-0.1-1l0,0c-0.6,0.7-1.4,1.1-2.5,1.1c-1.7,0-2.8-1.2-2.8-2.8
		c0-2.3,2.1-3.4,5-3.4c0-1-0.3-1.7-1.7-1.7c-0.8,0-1.7,0.3-2.2,0.7l-0.4-1.7c0.6-0.4,1.8-0.8,3.2-0.8c2.9,0,3.6,1.8,3.6,3.9V119.5z
		 M38.2,117.1c-1.4,0-2.8,0.3-2.8,1.7c0,0.8,0.6,1.2,1.1,1.2c0.6,0,1.5-0.4,1.5-1.7v-1.2H38.2z"/>
	<path class="st0" d="M43.2,110.8l2.5-0.7v2.3h2.1v1.8h-2.1v4c0,1.1,0.4,1.5,1.1,1.5c0.4,0,0.6,0,0.8-0.1v1.9
		c-0.3,0.1-1,0.3-1.7,0.3c-2.6,0-2.8-2.3-2.8-3.3v-4.3h-1.2v-1.8h1.2C43.2,112.5,43.2,110.8,43.2,110.8z"/>
	<path class="st0" d="M65.5,121.7h-2.3v-5.2c0-1.4-0.4-2.2-1.4-2.2c-0.7,0-1.4,0.6-1.4,1.8v5.6H58v-5.4c0-1.1-0.4-1.9-1.2-1.9
		c-0.7,0-1.5,0.7-1.5,1.9v5.5h-2.3v-6.6c0-1.1,0-1.9,0-2.8H55l0.1,1.2l0,0c0.4-0.7,1.2-1.4,2.6-1.4c1.1,0,1.9,0.6,2.3,1.5l0,0
		c0.8-1.1,1.7-1.5,2.8-1.5c1.7,0,2.9,1.1,2.9,3.9v5.5H65.5z"/>
	<path class="st0" d="M74.4,119.5c0,0.8,0,1.7,0.1,2.2h-2.2l-0.1-1l0,0c-0.6,0.7-1.4,1.1-2.5,1.1c-1.7,0-2.8-1.2-2.8-2.8
		c0-2.3,2.1-3.4,5-3.4c0-1-0.3-1.7-1.7-1.7c-0.8,0-1.7,0.3-2.2,0.7l-0.4-1.7c0.6-0.4,1.8-0.8,3.2-0.8c2.9,0,3.6,1.8,3.6,3.9V119.5z
		 M72.1,117.1c-1.4,0-2.8,0.3-2.8,1.7c0,0.8,0.6,1.2,1.1,1.2c0.6,0,1.5-0.4,1.5-1.7v-1.2H72.1z"/>
	<path class="st0" d="M84.7,121.7h-2.9l-2.2-4l-0.7,0.8v3h-2.5v-13.2H79v8.1l0,0c0.1-0.4,0.4-0.8,0.6-1.1l1.8-2.9h2.9l-3,3.7
		L84.7,121.7z"/>
	<path class="st0" d="M92.6,121.3c-0.8,0.3-1.8,0.6-3,0.6c-2.9,0-4.4-1.8-4.4-4.7c0-2.6,1.5-5,4.3-5c2.2,0,3.7,1.7,3.7,4.5
		c0,0.4,0,0.7,0,1h-5.5c0,1.5,1.2,2.2,2.5,2.2c1,0,1.7-0.1,2.2-0.4L92.6,121.3z M90.8,116.2c0-1-0.4-2.1-1.5-2.1
		c-1.2,0-1.7,1.2-1.8,2.1H90.8z"/>
	<path class="st0" d="M99.6,114.5c-0.4-0.3-1.1-0.4-1.8-0.4s-1.1,0.4-1.1,0.8c0,0.6,0.4,0.8,1.4,1.2c1.5,0.7,2.3,1.5,2.3,2.8
		c0,1.8-1.4,2.9-3.6,2.9c-1,0-1.9-0.3-2.6-0.6l0.4-1.8c0.4,0.3,1.4,0.6,2.2,0.6c0.8,0,1.2-0.4,1.2-1s-0.3-0.8-1.4-1.2
		c-1.7-0.7-2.3-1.7-2.3-2.6c0-1.7,1.4-2.9,3.3-2.9c1,0,1.8,0.3,2.3,0.6L99.6,114.5z"/>
	<path class="st0" d="M108.1,121.7h-2.5v-13.2h2.5V121.7z"/>
	<path class="st0" d="M111.6,111.2c-0.8,0-1.2-0.6-1.2-1.2c0-0.8,0.6-1.2,1.2-1.2c0.8,0,1.4,0.6,1.4,1.2
		C112.8,110.8,112.3,111.2,111.6,111.2z M112.8,121.7h-2.5v-9.2h2.5V121.7z"/>
	<path class="st0" d="M115.3,112.1c0-2.8,1.7-3.9,3.4-3.9c0.6,0,1.1,0.1,1.5,0.3l-0.1,1.9c-0.3-0.1-0.6-0.1-0.8-0.1
		c-1.4,0-1.4,1.4-1.4,2.3h1.8v1.8h-1.8v7.4h-2.5v-7.4h-1.2v-1.9h1.2L115.3,112.1L115.3,112.1z"/>
	<path class="st0" d="M127.8,121.3c-0.8,0.3-1.8,0.6-3,0.6c-2.9,0-4.4-1.8-4.4-4.7c0-2.6,1.5-5,4.3-5c2.2,0,3.7,1.7,3.7,4.5
		c0,0.4,0,0.7,0,1h-5.5c0,1.5,1.2,2.2,2.5,2.2c1,0,1.7-0.1,2.2-0.4L127.8,121.3z M126,116.2c0-1-0.4-2.1-1.5-2.1
		c-1.2,0-1.7,1.2-1.8,2.1H126z"/>
	<path class="st0" d="M134.7,111.2c-0.8,0-1.2-0.6-1.2-1.2c0-0.8,0.6-1.2,1.2-1.2c0.8,0,1.4,0.6,1.4,1.2
		C136.1,110.8,135.5,111.2,134.7,111.2z M135.9,121.7h-2.5v-9.2h2.5V121.7z"/>
	<path class="st0" d="M146,121.7h-2.5v-5.4c0-1.1-0.4-2.1-1.4-2.1c-0.7,0-1.5,0.6-1.5,1.9v5.5h-2.5v-6.5c0-1.1,0-1.9,0-2.8h2.1
		l0.1,1.2l0,0c0.4-0.7,1.4-1.4,2.6-1.4c1.7,0,3,1.2,3,3.7C146,116,146,121.7,146,121.7z"/>
	<path class="st0" d="M148.6,110.8l2.5-0.7v2.3h2.1v1.8h-2.1v4c0,1.1,0.4,1.5,1.1,1.5c0.4,0,0.6,0,0.8-0.1v1.9
		c-0.3,0.1-1,0.3-1.7,0.3c-2.6,0-2.8-2.3-2.8-3.3v-4.3h-1.2v-1.8h1.2C148.6,112.5,148.6,110.8,148.6,110.8z"/>
	<path class="st0" d="M161.5,121.3c-0.8,0.3-1.8,0.6-3,0.6c-2.9,0-4.4-1.8-4.4-4.7c0-2.6,1.5-5,4.3-5c2.2,0,3.7,1.7,3.7,4.5
		c0,0.4,0,0.7,0,1h-5.5c0,1.5,1.2,2.2,2.5,2.2c1,0,1.7-0.1,2.2-0.4L161.5,121.3z M159.6,116.2c0-1-0.4-2.1-1.5-2.1
		c-1.2,0-1.7,1.2-1.8,2.1H159.6z"/>
	<path class="st0" d="M168.7,114.7c-0.1,0-0.4,0-0.7,0c-1.1,0-1.9,0.7-1.9,2.3v4.8h-2.5v-6.3c0-1.1,0-2.1,0-2.9h2.1l0.1,1.7l0,0
		c0.4-1.2,1.4-1.8,2.3-1.8c0.3,0,0.4,0,0.6,0C168.7,112.5,168.7,114.7,168.7,114.7z"/>
	<path class="st0" d="M176.9,121.3c-0.8,0.3-1.8,0.6-3,0.6c-2.9,0-4.4-1.8-4.4-4.7c0-2.6,1.5-5,4.3-5c2.2,0,3.7,1.7,3.7,4.5
		c0,0.4,0,0.7,0,1H172c0,1.5,1.2,2.2,2.5,2.2c1,0,1.7-0.1,2.2-0.4L176.9,121.3z M175.1,116.2c0-1-0.4-2.1-1.5-2.1
		c-1.2,0-1.7,1.2-1.8,2.1H175.1z"/>
	<path class="st0" d="M183.9,114.5c-0.4-0.3-1.1-0.4-1.8-0.4c-0.7,0-1.1,0.4-1.1,0.8c0,0.6,0.4,0.8,1.4,1.2c1.5,0.7,2.3,1.5,2.3,2.8
		c0,1.8-1.4,2.9-3.6,2.9c-1,0-1.9-0.3-2.6-0.6l0.4-1.8c0.4,0.3,1.4,0.6,2.2,0.6s1.2-0.4,1.2-1s-0.3-0.8-1.4-1.2
		c-1.7-0.7-2.3-1.7-2.3-2.6c0-1.7,1.4-2.9,3.3-2.9c1,0,1.8,0.3,2.3,0.6L183.9,114.5z"/>
	<path class="st0" d="M186.8,110.8l2.5-0.7v2.3h2.1v1.8h-2.1v4c0,1.1,0.4,1.5,1.1,1.5c0.4,0,0.6,0,0.8-0.1v1.9
		c-0.3,0.1-1,0.3-1.7,0.3c-2.6,0-2.8-2.3-2.8-3.3v-4.3h-1.2v-1.8h1.2L186.8,110.8L186.8,110.8z"/>
	<path class="st0" d="M194,111.2c-0.8,0-1.2-0.6-1.2-1.2c0-0.8,0.6-1.2,1.2-1.2c0.8,0,1.4,0.6,1.4,1.2
		C195.2,110.8,194.7,111.2,194,111.2z M195.2,121.7h-2.5v-9.2h2.5V121.7z"/>
	<path class="st0" d="M205.3,121.7h-2.5v-5.4c0-1.1-0.4-2.1-1.4-2.1c-0.7,0-1.5,0.6-1.5,1.9v5.5h-2.5v-6.5c0-1.1,0-1.9,0-2.8h2.1
		l0.1,1.2l0,0c0.4-0.7,1.4-1.4,2.6-1.4c1.7,0,3,1.2,3,3.7L205.3,121.7L205.3,121.7z"/>
	<path class="st0" d="M215.3,112.5c0,0.7-0.1,1.5-0.1,2.8v5.2c0,1.8-0.1,5.1-4.7,5.1c-1.1,0-2.2-0.3-2.9-0.7l0.4-1.9
		c0.6,0.3,1.4,0.6,2.3,0.6c1.4,0,2.3-0.8,2.3-2.5v-0.7l0,0c-0.4,0.7-1.2,1.2-2.3,1.2c-2.2,0-3.6-1.9-3.6-4.4c0-3,1.8-4.8,3.9-4.8
		c1.1,0,1.9,0.6,2.3,1.2l0,0l0.1-1.1L215.3,112.5L215.3,112.5z M212.8,116c0-1.2-0.7-1.8-1.5-1.8c-1.1,0-1.8,1.1-1.8,2.9
		c0,1.7,0.7,2.8,1.8,2.8c0.6,0,1.5-0.4,1.5-1.9V116z"/>
	<path class="st0" d="M227.8,119.5c0,0.8,0,1.7,0.1,2.2h-2.2l-0.1-1l0,0c-0.6,0.7-1.4,1.1-2.5,1.1c-1.7,0-2.8-1.2-2.8-2.8
		c0-2.3,2.1-3.4,5-3.4c0-1-0.3-1.7-1.7-1.7c-0.8,0-1.7,0.3-2.2,0.7l-0.4-1.7c0.6-0.4,1.8-0.8,3.2-0.8c2.9,0,3.6,1.8,3.6,3.9V119.5z
		 M225.5,117.1c-1.4,0-2.8,0.3-2.8,1.7c0,0.8,0.6,1.2,1.1,1.2c0.6,0,1.5-0.4,1.5-1.7L225.5,117.1L225.5,117.1z"/>
	<path class="st0" d="M237.9,121.7h-2.5v-5.4c0-1.1-0.4-2.1-1.4-2.1c-0.7,0-1.5,0.6-1.5,1.9v5.5H230v-6.5c0-1.1,0-1.9,0-2.8h2.1
		l0.1,1.2l0,0c0.4-0.7,1.4-1.4,2.6-1.4c1.7,0,3,1.2,3,3.7V121.7z"/>
	<path class="st0" d="M248.1,119.1c0,1,0,1.9,0,2.6h-2.2l-0.1-1.2l0,0c-0.4,1-1.5,1.5-2.6,1.5c-2.1,0-3.6-1.9-3.6-4.7
		c0-3.2,1.8-4.8,3.7-4.8c1.1,0,1.8,0.4,2.2,1.1l0,0v-5h2.5v10.5L248.1,119.1L248.1,119.1z M245.6,116.2c0-1.4-0.8-2.1-1.7-2.1
		c-1.2,0-1.9,1.2-1.9,2.9c0,1.7,0.7,2.8,1.8,2.8c0.7,0,1.7-0.6,1.7-1.9L245.6,116.2L245.6,116.2z"/>
	<path class="st0" d="M265.7,112.5l-2.8,9.2h-2.2l-1-3.6c-0.3-1-0.4-1.8-0.6-2.9l0,0c-0.1,1.1-0.4,2.1-0.6,2.9l-1,3.6h-2.2l-2.6-9.2
		h2.5l0.8,4c0.1,1,0.4,1.9,0.6,2.9l0,0c0.1-1,0.4-2.1,0.7-2.9l1-4.1h1.9l1,4c0.3,1.1,0.4,2.1,0.7,3l0,0c0.1-1,0.3-1.9,0.6-3l0.8-4
		h2.3V112.5z"/>
	<path class="st0" d="M275,117c0,3.4-2.2,4.8-4.3,4.8c-2.5,0-4.3-1.8-4.3-4.7c0-3,1.9-4.8,4.4-4.8C273.4,112.3,275,114.3,275,117z
		 M270.8,114.1c-1.4,0-1.8,1.7-1.8,3c0,1.7,0.7,3,1.8,3s1.8-1.4,1.8-3C272.6,115.6,272.1,114.1,270.8,114.1z"/>
	<path class="st0" d="M281.9,114.7c-0.1,0-0.4,0-0.7,0c-1.1,0-1.9,0.7-1.9,2.3v4.8h-2.5v-6.3c0-1.1,0-2.1,0-2.9h2.1l0.1,1.7l0,0
		c0.4-1.2,1.4-1.8,2.3-1.8c0.3,0,0.4,0,0.6,0V114.7z"/>
	<path class="st0" d="M283.6,110.8l2.5-0.7v2.3h2.1v1.8H286v4c0,1.1,0.4,1.5,1.1,1.5c0.4,0,0.6,0,0.8-0.1v1.9
		c-0.3,0.1-1,0.3-1.7,0.3c-2.6,0-2.8-2.3-2.8-3.3v-4.3h-1.2v-1.8h1.2V110.8L283.6,110.8z"/>
	<path class="st0" d="M297.5,121.7H295v-5.2c0-1.2-0.4-2.1-1.4-2.1c-0.6,0-1.5,0.4-1.5,1.8v5.6h-2.5v-13.2h2.5v5.2l0,0
		c0.7-1,1.7-1.2,2.5-1.2c1.7,0,2.9,1.2,2.9,3.9V121.7z"/>
	<path class="st0" d="M305.6,121.7h-2.5v-13.2h2.5V121.7z"/>
	<path class="st0" d="M309,111.2c-0.8,0-1.2-0.6-1.2-1.2c0-0.8,0.6-1.2,1.2-1.2c0.8,0,1.4,0.6,1.4,1.2
		C310.4,110.8,309.7,111.2,309,111.2z M310.3,121.7h-2.5v-9.2h2.5V121.7z"/>
	<path class="st0" d="M320,112.5l-3.2,9.2h-2.3l-3-9.2h2.6l1.2,4.4c0.1,0.8,0.4,1.5,0.6,2.3l0,0c0.1-0.8,0.3-1.5,0.6-2.3l1.1-4.4
		H320z"/>
	<path class="st0" d="M322.5,111.2c-0.8,0-1.2-0.6-1.2-1.2c0-0.8,0.6-1.2,1.2-1.2c0.8,0,1.4,0.6,1.4,1.2
		C323.9,110.8,323.3,111.2,322.5,111.2z M323.7,121.7h-2.5v-9.2h2.5V121.7z"/>
	<path class="st0" d="M333.9,121.7h-2.5v-5.4c0-1.1-0.4-2.1-1.4-2.1c-0.7,0-1.5,0.6-1.5,1.9v5.5h-2.5v-6.5c0-1.1,0-1.9,0-2.8h2.1
		l0.1,1.2l0,0c0.4-0.7,1.4-1.4,2.6-1.4c1.7,0,3,1.2,3,3.7L333.9,121.7L333.9,121.7z"/>
	<path class="st0" d="M344,112.5c0,0.7-0.1,1.5-0.1,2.8v5.2c0,1.8-0.1,5.1-4.7,5.1c-1.1,0-2.2-0.3-2.9-0.7l0.4-1.9
		c0.6,0.3,1.4,0.6,2.3,0.6c1.4,0,2.3-0.8,2.3-2.5v-0.7l0,0c-0.4,0.7-1.2,1.2-2.3,1.2c-2.2,0-3.6-1.9-3.6-4.4c0-3,1.8-4.8,3.9-4.8
		c1.1,0,1.9,0.6,2.3,1.2l0,0l0.1-1.1L344,112.5L344,112.5z M341.3,116c0-1.2-0.7-1.8-1.5-1.8c-1.1,0-1.8,1.1-1.8,2.9
		c0,1.7,0.7,2.8,1.8,2.8c0.6,0,1.5-0.4,1.5-1.9V116z"/>
	<path class="st0" d="M356.5,119.5c0,0.8,0,1.7,0.1,2.2h-2.2l-0.1-1l0,0c-0.6,0.7-1.4,1.1-2.5,1.1c-1.7,0-2.8-1.2-2.8-2.8
		c0-2.3,2.1-3.4,5-3.4c0-1-0.3-1.7-1.7-1.7c-0.8,0-1.7,0.3-2.2,0.7l-0.4-1.7c0.6-0.4,1.8-0.8,3.2-0.8c2.9,0,3.6,1.8,3.6,3.9V119.5z
		 M354.1,117.1c-1.4,0-2.8,0.3-2.8,1.7c0,0.8,0.6,1.2,1.1,1.2s1.5-0.4,1.5-1.7v-1.2H354.1z"/>
	<path class="st0" d="M363.6,114.7c-0.1,0-0.4,0-0.7,0c-1.1,0-1.9,0.7-1.9,2.3v4.8h-2.5v-6.3c0-1.1,0-2.1,0-2.9h2.1l0.1,1.7l0,0
		c0.4-1.2,1.4-1.8,2.3-1.8c0.3,0,0.4,0,0.6,0L363.6,114.7L363.6,114.7z"/>
	<path class="st0" d="M371.9,121.3c-0.8,0.3-1.8,0.6-3,0.6c-2.9,0-4.4-1.8-4.4-4.7c0-2.6,1.5-5,4.3-5c2.2,0,3.7,1.7,3.7,4.5
		c0,0.4,0,0.7,0,1h-5.5c0,1.5,1.2,2.2,2.5,2.2c1,0,1.7-0.1,2.2-0.4L371.9,121.3z M370.1,116.2c0-1-0.4-2.1-1.5-2.1
		c-1.2,0-1.7,1.2-1.8,2.1H370.1z"/>
</g>
<g>
	<path class="st0" d="M26,138.9c-0.8,0-1.2-0.6-1.2-1.2c0-0.8,0.6-1.2,1.2-1.2c0.8,0,1.4,0.6,1.4,1.2
		C27.4,138.5,26.7,138.9,26,138.9z M27.3,149.3h-2.5v-9.2h2.5V149.3z"/>
	<path class="st0" d="M29.9,138.5l2.5-0.7v2.3h2.1v1.8h-2.1v4c0,1.1,0.4,1.5,1.1,1.5c0.4,0,0.6,0,0.8-0.1v1.9
		c-0.3,0.1-1,0.3-1.7,0.3c-2.6,0-2.8-2.3-2.8-3.3v-4.3h-1.2v-1.8h1.2L29.9,138.5L29.9,138.5z"/>
	<path class="st0" d="M40.6,142.2c-0.4-0.3-1.1-0.4-1.8-0.4s-1.1,0.4-1.1,0.8c0,0.6,0.4,0.8,1.4,1.2c1.5,0.7,2.3,1.5,2.3,2.8
		c0,1.8-1.4,2.9-3.6,2.9c-1,0-1.9-0.3-2.6-0.6l0.4-1.8c0.4,0.3,1.4,0.6,2.2,0.6s1.2-0.4,1.2-1c0-0.6-0.3-0.8-1.4-1.2
		c-1.7-0.7-2.3-1.7-2.3-2.6c0-1.7,1.4-2.9,3.3-2.9c1,0,1.8,0.3,2.3,0.6L40.6,142.2z"/>
	<path class="st0" d="M54.5,146.6c0,1.1,0,2.1,0.1,2.8h-2.1l-0.1-1.2l0,0c-0.4,0.6-1.2,1.4-2.6,1.4c-1.8,0-2.9-1.1-2.9-3.9v-5.5h2.5
		v5.1c0,1.4,0.4,2.2,1.4,2.2c0.8,0,1.5-0.7,1.5-1.7v-5.6h2.5v6.5H54.5z"/>
	<path class="st0" d="M64.6,149.3h-2.5V144c0-1.1-0.4-2.1-1.4-2.1c-0.7,0-1.5,0.6-1.5,1.9v5.5h-2.5v-6.5c0-1.1,0-1.9,0-2.8h2.1
		l0.1,1.2l0,0c0.4-0.7,1.4-1.4,2.6-1.4c1.7,0,3,1.2,3,3.7L64.6,149.3L64.6,149.3z"/>
	<path class="st0" d="M72.8,149.1c-0.4,0.1-1.2,0.4-2.2,0.4c-2.8,0-4.4-1.8-4.4-4.7c0-2.8,1.8-4.8,4.8-4.8c0.8,0,1.5,0.1,1.9,0.4
		l-0.4,1.9c-0.3-0.1-0.8-0.3-1.4-0.3c-1.5,0-2.5,1.2-2.5,2.9c0,1.8,1.1,2.9,2.5,2.9c0.6,0,1.1-0.1,1.5-0.3L72.8,149.1z"/>
	<path class="st0" d="M81.4,148.9c-0.8,0.3-1.8,0.6-3,0.6c-2.9,0-4.4-1.8-4.4-4.7c0-2.6,1.5-5,4.3-5c2.2,0,3.7,1.7,3.7,4.5
		c0,0.4,0,0.7,0,1h-5.5c0,1.5,1.2,2.2,2.5,2.2c1,0,1.7-0.1,2.2-0.4L81.4,148.9z M79.6,143.8c0-1-0.4-2.1-1.5-2.1
		c-1.2,0-1.7,1.2-1.8,2.1H79.6z"/>
	<path class="st0" d="M88.5,142.3c-0.1,0-0.4,0-0.7,0c-1.1,0-1.9,0.7-1.9,2.3v4.8h-2.3v-6.3c0-1.1,0-2.1,0-2.9h2.1l0.1,1.7l0,0
		c0.4-1.2,1.4-1.8,2.3-1.8c0.3,0,0.4,0,0.6,0v2.2L88.5,142.3L88.5,142.3z"/>
	<path class="st0" d="M90.3,138.5l2.5-0.7v2.3h2.1v1.8h-2.1v4c0,1.1,0.4,1.5,1.1,1.5c0.4,0,0.6,0,0.8-0.1v1.9
		c-0.3,0.1-1,0.3-1.7,0.3c-2.6,0-2.8-2.3-2.8-3.3v-4.3h-1.2v-1.8h1.2V138.5z"/>
	<path class="st0" d="M103.1,147.1c0,0.8,0,1.7,0.1,2.2H101l-0.1-1l0,0c-0.6,0.7-1.4,1.1-2.5,1.1c-1.7,0-2.8-1.2-2.8-2.8
		c0-2.3,2.1-3.4,5-3.4c0-1-0.3-1.7-1.7-1.7c-0.8,0-1.7,0.3-2.2,0.7l-0.4-1.7c0.6-0.4,1.8-0.8,3.2-0.8c2.9,0,3.6,1.8,3.6,3.9V147.1z
		 M100.8,144.8c-1.4,0-2.8,0.3-2.8,1.7c0,0.8,0.6,1.2,1.1,1.2s1.5-0.4,1.5-1.7v-1.2H100.8z"/>
	<path class="st0" d="M106.5,138.9c-0.8,0-1.2-0.6-1.2-1.2c0-0.8,0.6-1.2,1.2-1.2c0.8,0,1.4,0.6,1.4,1.2
		C107.9,138.5,107.4,138.9,106.5,138.9z M107.8,149.3h-2.5v-9.2h2.5V149.3z"/>
	<path class="st0" d="M117.8,149.3h-2.5V144c0-1.1-0.4-2.1-1.4-2.1c-0.7,0-1.5,0.6-1.5,1.9v5.5H110v-6.5c0-1.1,0-1.9,0-2.8h2.1
		l0.1,1.2l0,0c0.4-0.7,1.4-1.4,2.6-1.4c1.7,0,3,1.2,3,3.7L117.8,149.3L117.8,149.3z"/>
	<path class="st0" d="M120.4,138.5l2.5-0.7v2.3h2.1v1.8h-2.1v4c0,1.1,0.4,1.5,1.1,1.5c0.4,0,0.6,0,0.8-0.1v1.9
		c-0.3,0.1-1,0.3-1.7,0.3c-2.6,0-2.8-2.3-2.8-3.3v-4.3h-1.2v-1.8h1.2L120.4,138.5L120.4,138.5z"/>
	<path class="st0" d="M127.6,138.9c-0.8,0-1.2-0.6-1.2-1.2c0-0.8,0.6-1.2,1.2-1.2c0.8,0,1.4,0.6,1.4,1.2
		C129,138.5,128.3,138.9,127.6,138.9z M128.8,149.3h-2.5v-9.2h2.5V149.3z"/>
	<path class="st0" d="M137.9,148.9c-0.8,0.3-1.8,0.6-3,0.6c-2.9,0-4.4-1.8-4.4-4.7c0-2.6,1.5-5,4.3-5c2.2,0,3.7,1.7,3.7,4.5
		c0,0.4,0,0.7,0,1H133c0,1.5,1.2,2.2,2.5,2.2c1,0,1.7-0.1,2.2-0.4L137.9,148.9z M136.1,143.8c0-1-0.4-2.1-1.5-2.1
		c-1.2,0-1.7,1.2-1.8,2.1H136.1z"/>
	<path class="st0" d="M144.9,142.2c-0.4-0.3-1.1-0.4-1.8-0.4c-0.7,0-1.1,0.4-1.1,0.8c0,0.6,0.4,0.8,1.4,1.2c1.5,0.7,2.3,1.5,2.3,2.8
		c0,1.8-1.4,2.9-3.6,2.9c-1,0-1.9-0.3-2.6-0.6l0.4-1.8c0.4,0.3,1.4,0.6,2.2,0.6c0.8,0,1.2-0.4,1.2-1c0-0.6-0.3-0.8-1.4-1.2
		c-1.7-0.7-2.3-1.7-2.3-2.6c0-1.7,1.4-2.9,3.3-2.9c1,0,1.8,0.3,2.3,0.6L144.9,142.2z"/>
	<path class="st0" d="M157.9,147.1c0,0.8,0,1.7,0.1,2.2h-2.2l-0.1-1l0,0c-0.6,0.7-1.4,1.1-2.5,1.1c-1.7,0-2.8-1.2-2.8-2.8
		c0-2.3,2.1-3.4,5-3.4c0-1-0.3-1.7-1.7-1.7c-0.8,0-1.7,0.3-2.2,0.7l-0.4-1.7c0.6-0.4,1.8-0.8,3.2-0.8c2.9,0,3.6,1.8,3.6,3.9V147.1z
		 M155.5,144.8c-1.4,0-2.8,0.3-2.8,1.7c0,0.8,0.6,1.2,1.1,1.2c0.6,0,1.5-0.4,1.5-1.7v-1.2H155.5z"/>
	<path class="st0" d="M167.9,149.3h-2.5V144c0-1.1-0.4-2.1-1.4-2.1c-0.7,0-1.5,0.6-1.5,1.9v5.5h-2.5v-6.5c0-1.1,0-1.9,0-2.8h2.1
		l0.1,1.2l0,0c0.4-0.7,1.4-1.4,2.6-1.4c1.7,0,3,1.2,3,3.7L167.9,149.3L167.9,149.3z"/>
	<path class="st0" d="M178,146.7c0,1,0,1.9,0,2.6h-2.2l-0.1-1.2l0,0c-0.4,1-1.5,1.5-2.6,1.5c-2.1,0-3.6-1.9-3.6-4.7
		c0-3.2,1.8-4.8,3.7-4.8c1.1,0,1.8,0.4,2.2,1.1l0,0v-5h2.5v10.5L178,146.7L178,146.7z M175.5,143.8c0-1.4-0.8-2.1-1.7-2.1
		c-1.2,0-1.9,1.2-1.9,2.9c0,1.7,0.7,2.8,1.8,2.8c0.7,0,1.7-0.6,1.7-1.9v-1.7L175.5,143.8L175.5,143.8z"/>
	<path class="st0" d="M191.6,146.6c0,1.1,0,2.1,0.1,2.8h-2.2l-0.1-1.2l0,0c-0.4,0.6-1.2,1.4-2.6,1.4c-1.8,0-2.9-1.1-2.9-3.9v-5.5
		h2.5v5.1c0,1.4,0.4,2.2,1.4,2.2c0.8,0,1.5-0.7,1.5-1.7v-5.6h2.5L191.6,146.6L191.6,146.6z"/>
	<path class="st0" d="M201.6,149.3h-2.5V144c0-1.1-0.4-2.1-1.4-2.1c-0.7,0-1.5,0.6-1.5,1.9v5.5h-2.5v-6.5c0-1.1,0-1.9,0-2.8h2.1
		l0.1,1.2l0,0c0.4-0.7,1.4-1.4,2.6-1.4c1.7,0,3,1.2,3,3.7L201.6,149.3L201.6,149.3z"/>
	<path class="st0" d="M206.2,149.3h-2.5v-13.2h2.5V149.3z"/>
	<path class="st0" d="M209.6,138.9c-0.8,0-1.2-0.6-1.2-1.2c0-0.8,0.6-1.2,1.2-1.2c0.8,0,1.4,0.6,1.4,1.2
		C211,138.5,210.4,138.9,209.6,138.9z M210.8,149.3h-2.5v-9.2h2.5V149.3z"/>
	<path class="st0" d="M225.8,149.3h-2.3v-5.2c0-1.4-0.4-2.2-1.4-2.2c-0.7,0-1.4,0.6-1.4,1.8v5.6h-2.3V144c0-1.1-0.4-1.9-1.2-1.9
		c-0.7,0-1.5,0.7-1.5,1.9v5.5h-2.3v-6.6c0-1.1,0-1.9,0-2.8h2.1l0.1,1.2l0,0c0.4-0.7,1.2-1.4,2.6-1.4c1.1,0,1.9,0.6,2.3,1.5l0,0
		c0.8-1.1,1.7-1.5,2.8-1.5c1.7,0,2.9,1.1,2.9,3.9v5.5H225.8z"/>
	<path class="st0" d="M229.1,138.9c-0.8,0-1.2-0.6-1.2-1.2c0-0.8,0.6-1.2,1.2-1.2c0.8,0,1.4,0.6,1.4,1.2
		C230.5,138.5,230,138.9,229.1,138.9z M230.4,149.3h-2.5v-9.2h2.5V149.3z"/>
	<path class="st0" d="M233,138.5l2.5-0.7v2.3h2.1v1.8h-2.1v4c0,1.1,0.4,1.5,1.1,1.5c0.4,0,0.6,0,0.8-0.1v1.9c-0.3,0.1-1,0.3-1.7,0.3
		c-2.6,0-2.8-2.3-2.8-3.3v-4.3h-1.2v-1.8h1.2L233,138.5L233,138.5z"/>
	<path class="st0" d="M245.9,148.9c-0.8,0.3-1.8,0.6-3,0.6c-2.9,0-4.4-1.8-4.4-4.7c0-2.6,1.5-5,4.3-5c2.2,0,3.7,1.7,3.7,4.5
		c0,0.4,0,0.7,0,1H241c0,1.5,1.2,2.2,2.5,2.2c1,0,1.7-0.1,2.2-0.4L245.9,148.9z M244.1,143.8c0-1-0.4-2.1-1.5-2.1
		c-1.2,0-1.7,1.2-1.8,2.1H244.1z"/>
	<path class="st0" d="M256,146.7c0,1,0,1.9,0,2.6h-2.2l-0.1-1.2l0,0c-0.4,1-1.5,1.5-2.6,1.5c-2.1,0-3.6-1.9-3.6-4.7
		c0-3.2,1.8-4.8,3.7-4.8c1.1,0,1.8,0.4,2.2,1.1l0,0v-5h2.5v10.5L256,146.7L256,146.7z M253.5,143.8c0-1.4-0.8-2.1-1.7-2.1
		c-1.2,0-1.9,1.2-1.9,2.9c0,1.7,0.7,2.8,1.8,2.8c0.7,0,1.7-0.6,1.7-1.9v-1.7L253.5,143.8L253.5,143.8z"/>
	<path class="st0" d="M264,141.4c0.6-1,1.5-1.5,2.8-1.5c2.1,0,3.4,1.9,3.4,4.7c0,3.4-1.9,4.8-3.7,4.8c-1,0-1.8-0.4-2.2-1.1l0,0v4.5
		h-2.5v-9.9c0-1.2,0-2.2,0-3h2.1L264,141.4L264,141.4z M264.2,145.6c0,1.4,0.8,1.9,1.7,1.9c1.2,0,1.9-1.2,1.9-2.9
		c0-1.7-0.7-2.9-1.8-2.9c-1,0-1.7,0.8-1.7,2.1v1.8L264.2,145.6L264.2,145.6z"/>
	<path class="st0" d="M279.9,144.7c0,3.4-2.2,4.8-4.3,4.8c-2.5,0-4.3-1.8-4.3-4.7c0-3,1.9-4.8,4.4-4.8
		C278.3,140,279.9,141.9,279.9,144.7z M275.6,141.8c-1.4,0-1.8,1.7-1.8,3c0,1.7,0.7,3,1.8,3c1.1,0,1.8-1.4,1.8-3
		C277.4,143.3,276.9,141.8,275.6,141.8z"/>
	<path class="st0" d="M286.5,142.2c-0.4-0.3-1.1-0.4-1.8-0.4c-0.7,0-1.1,0.4-1.1,0.8c0,0.6,0.4,0.8,1.4,1.2c1.5,0.7,2.3,1.5,2.3,2.8
		c0,1.8-1.4,2.9-3.6,2.9c-1,0-1.9-0.3-2.6-0.6l0.4-1.8c0.4,0.3,1.4,0.6,2.2,0.6c0.8,0,1.2-0.4,1.2-1c0-0.6-0.3-0.8-1.4-1.2
		c-1.7-0.7-2.3-1.7-2.3-2.6c0-1.7,1.4-2.9,3.3-2.9c1,0,1.8,0.3,2.3,0.6L286.5,142.2z"/>
	<path class="st0" d="M293.8,142.2c-0.4-0.3-1.1-0.4-1.8-0.4c-0.7,0-1.1,0.4-1.1,0.8c0,0.6,0.4,0.8,1.4,1.2c1.5,0.7,2.3,1.5,2.3,2.8
		c0,1.8-1.4,2.9-3.6,2.9c-1,0-1.9-0.3-2.6-0.6l0.4-1.8c0.4,0.3,1.4,0.6,2.2,0.6s1.2-0.4,1.2-1c0-0.6-0.3-0.8-1.4-1.2
		c-1.7-0.7-2.3-1.7-2.3-2.6c0-1.7,1.4-2.9,3.3-2.9c1,0,1.8,0.3,2.3,0.6L293.8,142.2z"/>
	<path class="st0" d="M297.5,138.9c-0.8,0-1.2-0.6-1.2-1.2c0-0.8,0.6-1.2,1.2-1.2c0.8,0,1.4,0.6,1.4,1.2
		C298.9,138.5,298.2,138.9,297.5,138.9z M298.8,149.3h-2.5v-9.2h2.5V149.3z"/>
	<path class="st0" d="M303.4,141.2c0.6-0.8,1.4-1.2,2.6-1.2c2.1,0,3.4,1.9,3.4,4.7c0,3.3-1.9,5-3.7,5c-1,0-1.9-0.4-2.5-1.5l0,0
		l-0.1,1.2h-2.1c0-0.7,0-1.7,0-2.6v-10.6h2.5L303.4,141.2L303.4,141.2z M303.4,145.6c0,1.1,0.7,1.9,1.7,1.9c1.2,0,1.9-1.1,1.9-2.9
		c0-1.5-0.6-2.8-1.9-2.8c-0.8,0-1.7,0.8-1.7,1.9V145.6z"/>
	<path class="st0" d="M312.2,138.9c-0.8,0-1.2-0.6-1.2-1.2c0-0.8,0.6-1.2,1.2-1.2c0.8,0,1.4,0.6,1.4,1.2
		C313.6,138.5,313.1,138.9,312.2,138.9z M313.5,149.3H311v-9.2h2.5V149.3z"/>
	<path class="st0" d="M318.2,149.3h-2.5v-13.2h2.5V149.3z"/>
	<path class="st0" d="M321.6,138.9c-0.8,0-1.2-0.6-1.2-1.2c0-0.8,0.6-1.2,1.2-1.2c0.8,0,1.4,0.6,1.4,1.2
		C322.8,138.5,322.3,138.9,321.6,138.9z M322.8,149.3h-2.5v-9.2h2.5V149.3z"/>
	<path class="st0" d="M325.5,138.5l2.5-0.7v2.3h2.1v1.8h-2.1v4c0,1.1,0.4,1.5,1.1,1.5c0.4,0,0.6,0,0.8-0.1v1.9
		c-0.3,0.1-1,0.3-1.7,0.3c-2.6,0-2.8-2.3-2.8-3.3v-4.3h-1.2v-1.8h1.2L325.5,138.5L325.5,138.5z"/>
	<path class="st0" d="M332.6,138.9c-0.8,0-1.2-0.6-1.2-1.2c0-0.8,0.6-1.2,1.2-1.2c0.8,0,1.4,0.6,1.4,1.2
		C333.9,138.5,333.3,138.9,332.6,138.9z M333.9,149.3h-2.5v-9.2h2.5V149.3z"/>
	<path class="st0" d="M342.9,148.9c-0.8,0.3-1.8,0.6-3,0.6c-2.9,0-4.4-1.8-4.4-4.7c0-2.6,1.5-5,4.3-5c2.2,0,3.7,1.7,3.7,4.5
		c0,0.4,0,0.7,0,1H338c0,1.5,1.2,2.2,2.5,2.2c1,0,1.7-0.1,2.2-0.4L342.9,148.9z M341.1,143.8c0-1-0.4-2.1-1.5-2.1
		c-1.2,0-1.7,1.2-1.8,2.1H341.1z"/>
	<path class="st0" d="M349.9,142.2c-0.4-0.3-1.1-0.4-1.8-0.4s-1.1,0.4-1.1,0.8c0,0.6,0.4,0.8,1.4,1.2c1.5,0.7,2.3,1.5,2.3,2.8
		c0,1.8-1.4,2.9-3.6,2.9c-1,0-1.9-0.3-2.6-0.6l0.4-1.8c0.4,0.3,1.4,0.6,2.2,0.6c0.8,0,1.2-0.4,1.2-1c0-0.6-0.3-0.8-1.4-1.2
		c-1.7-0.7-2.3-1.7-2.3-2.6c0-1.7,1.4-2.9,3.3-2.9c1,0,1.8,0.3,2.3,0.6L349.9,142.2z"/>
	<path class="st0" d="M352.3,148c0-1,0.7-1.5,1.5-1.5c0.8,0,1.5,0.7,1.5,1.5c0,1-0.6,1.5-1.5,1.5S352.3,148.8,352.3,148z"/>
</g>
<path class="st0" d="M123.7,180.7c0.1,1.7-0.7,2.4-1.7,2.4c-0.6,0-1.1-0.2-1.9-0.6c-0.6-0.4-1-0.6-1.4-0.6s-0.6,0.3-0.7,1.1h-1.1
	c0-1.7,0.8-2.4,1.8-2.4c0.6,0,1.1,0.2,1.9,0.6c0.6,0.3,1,0.5,1.4,0.5s0.6-0.3,0.6-1.1h1.1L123.7,180.7L123.7,180.7z"/>
<path class="st0" d="M129.6,179.8c0.4-0.6,1-0.9,1.9-0.9c1.5,0,2.5,1.4,2.5,3.4c0,2.4-1.4,3.6-2.7,3.6c-0.7,0-1.4-0.3-1.8-1.1l0,0
	l-0.1,0.9h-1.5c0-0.5,0-1.2,0-1.9v-7.7h1.8L129.6,179.8L129.6,179.8z M129.6,183c0,0.8,0.5,1.4,1.2,1.4c0.9,0,1.4-0.8,1.4-2.1
	c0-1.1-0.4-2-1.4-2c-0.6,0-1.2,0.6-1.2,1.4V183z"/>
<path class="st0" d="M140.7,179l-1.5,4.6c-0.7,2.2-1.3,3.3-2.1,4.1c-0.6,0.6-1.3,0.9-1.7,0.9l-0.4-1.5c0.3-0.1,0.6-0.3,0.9-0.5
	c0.6-0.4,0.9-1.1,0.9-1.2c0-0.1,0-0.2-0.1-0.3l-2.2-6.1h1.9l1,3.5c0.1,0.4,0.2,0.9,0.3,1.2l0,0c0.1-0.4,0.2-0.8,0.3-1.2l0.8-3.5
	H140.7z"/>
<path class="st0" d="M148.7,178.2c-0.3-0.2-0.9-0.4-1.6-0.4c-0.9,0-1.4,0.5-1.4,1c0,0.7,0.5,1,1.6,1.5c1.5,0.7,2.1,1.5,2.1,2.7
	c0,1.6-1.2,2.8-3.4,2.8c-0.9,0-1.8-0.3-2.3-0.5l0.3-1.5c0.5,0.3,1.2,0.5,2,0.5c1,0,1.5-0.5,1.5-1.2s-0.4-1.1-1.5-1.5
	c-1.4-0.6-2.3-1.5-2.3-2.7c0-1.5,1.2-2.7,3.2-2.7c0.9,0,1.5,0.2,2,0.4L148.7,178.2z"/>
<path class="st0" d="M159.4,179l-2,6.7h-1.6l-0.7-2.6c-0.2-0.7-0.3-1.3-0.4-2.1l0,0c-0.1,0.8-0.3,1.5-0.4,2.1l-0.7,2.6H152l-1.9-6.7
	h1.8l0.6,2.9c0.1,0.7,0.3,1.4,0.4,2.1l0,0c0.1-0.7,0.3-1.5,0.5-2.1l0.7-3h1.4l0.7,2.9c0.2,0.8,0.3,1.5,0.5,2.2l0,0
	c0.1-0.7,0.2-1.4,0.4-2.2l0.6-2.9h1.7L159.4,179L159.4,179z"/>
<path class="st0" d="M165.4,184.1c0,0.6,0,1.2,0.1,1.6h-1.6l-0.1-0.7l0,0c-0.4,0.5-1,0.8-1.8,0.8c-1.2,0-2-0.9-2-2
	c0-1.7,1.5-2.5,3.6-2.5c0-0.7-0.2-1.2-1.2-1.2c-0.6,0-1.2,0.2-1.6,0.5l-0.3-1.2c0.4-0.3,1.3-0.6,2.3-0.6c2.1,0,2.6,1.3,2.6,2.8
	V184.1z M163.6,182.4c-1,0-2,0.2-2,1.2c0,0.6,0.4,0.9,0.8,0.9c0.4,0,1.1-0.3,1.1-1.2L163.6,182.4L163.6,182.4z"/>
<path class="st0" d="M176.2,185.7h-1.7v-3.8c0-1-0.3-1.6-1-1.6c-0.5,0-1,0.4-1,1.3v4.1h-1.7v-3.9c0-0.8-0.3-1.4-0.9-1.4
	c-0.5,0-1.1,0.5-1.1,1.4v4h-1.7V181c0-0.8,0-1.4,0-2h1.5l0.1,0.9l0,0c0.3-0.5,0.9-1,1.9-1c0.8,0,1.4,0.4,1.7,1.1l0,0
	c0.6-0.8,1.2-1.1,2-1.1c1.2,0,2.1,0.8,2.1,2.8v4H176.2z"/>
<path class="st0" d="M178.6,178.1c-0.6,0-0.9-0.4-0.9-0.9c0-0.6,0.4-0.9,0.9-0.9c0.6,0,1,0.4,1,0.9
	C179.6,177.8,179.2,178.1,178.6,178.1z M179.5,185.7h-1.8V179h1.8V185.7z"/>
<path class="st0" d="M190.6,185.7h-1.9l-0.7-2.4h-2.5l-0.6,2.4h-1.8l2.6-9.2h2.2L190.6,185.7z M187.8,181.9l-0.6-2.1
	c-0.1-0.6-0.3-1.3-0.4-1.9l0,0c-0.1,0.6-0.3,1.3-0.4,1.9l-0.6,2.1H187.8z"/>
<path class="st0" d="M197.4,185.7h-1.8v-3.9c0-0.8-0.3-1.5-1-1.5c-0.5,0-1.1,0.4-1.1,1.4v4h-1.8V181c0-0.8,0-1.4,0-2h1.5l0.1,0.9
	l0,0c0.3-0.5,1-1,1.9-1c1.2,0,2.2,0.9,2.2,2.7L197.4,185.7L197.4,185.7z"/>
<path class="st0" d="M204,184.1c0,0.6,0,1.2,0.1,1.6h-1.6l-0.1-0.7l0,0c-0.4,0.5-1,0.8-1.8,0.8c-1.2,0-2-0.9-2-2
	c0-1.7,1.5-2.5,3.6-2.5c0-0.7-0.2-1.2-1.2-1.2c-0.6,0-1.2,0.2-1.6,0.5l-0.3-1.2c0.4-0.3,1.3-0.6,2.3-0.6c2.1,0,2.6,1.3,2.6,2.8
	V184.1z M202.2,182.4c-1,0-2,0.2-2,1.2c0,0.6,0.4,0.9,0.8,0.9s1.1-0.3,1.1-1.2v-0.9H202.2z"/>
<path class="st0" d="M211.3,185.7h-1.8v-3.9c0-0.8-0.3-1.5-1-1.5c-0.5,0-1.1,0.4-1.1,1.4v4h-1.8V181c0-0.8,0-1.4,0-2h1.5l0.1,0.9
	l0,0c0.3-0.5,1-1,1.9-1c1.2,0,2.2,0.9,2.2,2.7L211.3,185.7L211.3,185.7z"/>
<path class="st0" d="M218.6,183.8c0,0.7,0,1.4,0,1.9h-1.5l-0.1-0.9l0,0c-0.3,0.7-1.1,1.1-1.9,1.1c-1.5,0-2.6-1.4-2.6-3.4
	c0-2.3,1.3-3.5,2.7-3.5c0.8,0,1.3,0.3,1.6,0.8l0,0v-3.6h1.8V183.8z M216.8,181.7c0-1-0.6-1.5-1.2-1.5c-0.9,0-1.4,0.9-1.4,2.1
	c0,1.2,0.5,2,1.3,2c0.5,0,1.2-0.4,1.2-1.4v-1.2L216.8,181.7L216.8,181.7z"/>
<path class="st0" d="M229.5,185.7h-2l-2.1-4.1l-0.7,0.9v3.2h-1.8v-9.2h1.8v4.2l0,0c0.2-0.4,0.4-0.7,0.6-1.1l2-3.1h2.1l-2.8,3.9
	L229.5,185.7z"/>
<path class="st0" d="M233.9,180.6c-0.1,0-0.3,0-0.5,0c-0.8,0-1.4,0.5-1.4,1.7v3.5h-1.8v-4.6c0-0.8,0-1.5,0-2.1h1.5l0.1,1.2l0,0
	c0.3-0.9,1-1.3,1.7-1.3c0.2,0,0.3,0,0.4,0L233.9,180.6L233.9,180.6z"/>
<path class="st0" d="M235.8,178.1c-0.6,0-0.9-0.4-0.9-0.9c0-0.6,0.4-0.9,0.9-0.9c0.6,0,1,0.4,1,0.9
	C236.7,177.8,236.3,178.1,235.8,178.1z M236.7,185.7h-1.8V179h1.8V185.7z"/>
<path class="st0" d="M241.8,180.5c-0.3-0.2-0.8-0.3-1.3-0.3s-0.8,0.3-0.8,0.6c0,0.4,0.3,0.6,1,0.9c1.1,0.5,1.7,1.1,1.7,2
	c0,1.3-1,2.1-2.6,2.1c-0.7,0-1.4-0.2-1.9-0.4l0.3-1.3c0.3,0.2,1,0.4,1.6,0.4s0.9-0.3,0.9-0.7s-0.2-0.6-1-0.9
	c-1.2-0.5-1.7-1.2-1.7-1.9c0-1.2,1-2.1,2.4-2.1c0.7,0,1.3,0.2,1.7,0.4L241.8,180.5z"/>
<path class="st0" d="M249.3,185.7h-1.8v-3.8c0-0.9-0.3-1.5-1-1.5c-0.4,0-1.1,0.3-1.1,1.3v4.1h-1.8v-9.6h1.8v3.8l0,0
	c0.5-0.7,1.2-0.9,1.8-0.9c1.2,0,2.1,0.9,2.1,2.8V185.7z"/>
<path class="st0" d="M256.6,185.7h-1.8v-3.9c0-0.8-0.3-1.5-1-1.5c-0.5,0-1.1,0.4-1.1,1.4v4h-1.8V181c0-0.8,0-1.4,0-2h1.5l0.1,0.9
	l0,0c0.3-0.5,1-1,1.9-1c1.2,0,2.2,0.9,2.2,2.7L256.6,185.7L256.6,185.7z"/>
<path class="st0" d="M263.2,184.1c0,0.6,0,1.2,0.1,1.6h-1.6l-0.1-0.7l0,0c-0.4,0.5-1,0.8-1.8,0.8c-1.2,0-2-0.9-2-2
	c0-1.7,1.5-2.5,3.6-2.5c0-0.7-0.2-1.2-1.2-1.2c-0.6,0-1.2,0.2-1.6,0.5l-0.3-1.2c0.4-0.3,1.3-0.6,2.3-0.6c2.1,0,2.6,1.3,2.6,2.8
	V184.1z M261.4,182.4c-1,0-2,0.2-2,1.2c0,0.6,0.4,0.9,0.8,0.9s1.1-0.3,1.1-1.2v-0.9H261.4z"/>
<g>
	<g>
		<path class="st0" d="M51.4,52.5c-1.6,0.8-5.1,1.6-9.6,1.6c-13,0-20.3-8.9-20.3-21.7c0-15.2,9.8-22.9,21.3-22.9c4.7,0,7.7,1,9,1.6
			l-1.6,6.8c-1.7-0.7-4-1.4-6.9-1.4c-7.2,0-12.9,4.9-12.9,15.4c0,9.8,5,15.1,12.9,15.1c2.6,0,5.4-0.5,7.1-1.2L51.4,52.5z"/>
		<path class="st0" d="M84.5,37.6c0,12-7.7,16.6-14.7,16.6c-8.5,0-14.6-6-14.6-16.2c0-10.6,6.4-16.6,14.9-16.6
			C79,21.5,84.5,28.1,84.5,37.6z M70,27.6c-4.6,0-6.3,5.4-6.3,10.2c0,5.6,2.1,10.2,6.2,10.2c4,0,6.1-4.7,6.1-10.3
			C76.1,32.9,74.3,27.6,70,27.6z"/>
		<path class="st0" d="M134.1,53.6h-8.2V35.8c0-4.5-1.2-7.5-4.6-7.5c-2.3,0-4.9,1.8-4.9,6.2v19.1h-8.2V35c0-3.7-1.2-6.7-4.5-6.7
			c-2.3,0-5,2.1-5,6.4v18.9h-8.2v-22c0-3.7-0.1-6.7-0.2-9.4h7.1l0.4,4.2H98c1.5-2.3,4.2-4.9,8.9-4.9c3.8,0,6.8,2,8,5.3h0.1
			c2.6-3.8,5.8-5.3,9.3-5.3c5.5,0,9.7,3.9,9.7,13L134.1,53.6L134.1,53.6z"/>
		<path class="st0" d="M145.7,18c-2.7,0-4.5-1.9-4.5-4.5s1.9-4.5,4.5-4.5c2.7,0,4.5,1.9,4.5,4.5C150.2,16.3,148.2,18,145.7,18z
			 M149.9,53.6h-8.4V22.2h8.4V53.6z"/>
		<path class="st0" d="M184.3,53.6h-8.4V35.3c0-3.8-1.2-6.9-4.8-6.9c-2.3,0-5.4,1.8-5.4,6.6v18.7h-8.4v-22c0-3.7-0.1-6.7-0.2-9.4
			h7.2l0.4,4.2h0.2c1.4-2.3,4.5-4.9,9.1-4.9c5.8,0,10.2,4,10.2,12.8L184.3,53.6L184.3,53.6z"/>
		<path class="st0" d="M218.7,22.2c-0.2,2.3-0.3,5-0.3,9.4v17.7c0,6.2-0.6,17.6-15.9,17.6c-3.7,0-7.5-0.7-9.9-2.1l1.6-6.4
			c1.9,1,4.8,2,8.1,2c4.7,0,7.8-2.7,7.8-8.7v-2.3H210c-1.6,2.5-4.4,4-7.9,4c-7.5,0-12.1-6.7-12.1-15.3c0-10.4,6-16.6,13-16.6
			c4,0,6.5,1.9,7.9,4.4h0.1l0.3-3.7H218.7z M210,34.4c0-4-2.4-6.3-5.3-6.3c-3.8,0-6.3,3.8-6.3,9.8c0,5.5,2.3,9.2,6.3,9.2
			c1.9,0,5.3-1.2,5.3-6.6V34.4z"/>
		<path class="st0" d="M254.7,29.1c-1.4-0.7-3.6-1.6-5.9-1.6c-2.5,0-3.9,1.3-3.9,3c0,1.8,1.2,2.7,4.8,4.2c5.3,2.2,7.8,5.3,7.8,9.6
			c0,6-4.5,9.9-12.4,9.9c-3.4,0-6.8-0.8-8.9-2.1l1.6-6c1.6,1,4.7,2.1,7.3,2.1c2.9,0,4.3-1.2,4.3-3.2c0-1.9-1.1-2.9-4.5-4.4
			c-5.9-2.4-8-5.7-8-9.2c0-5.6,4.5-9.9,11.5-9.9c3.2,0,6,0.8,7.8,1.8L254.7,29.1z"/>
		<path class="st0" d="M290.6,37.6c0,12-7.7,16.6-14.7,16.6c-8.5,0-14.6-6-14.6-16.2c0-10.6,6.4-16.6,14.9-16.6
			C285.1,21.5,290.6,28.1,290.6,37.6z M276.1,27.6c-4.6,0-6.3,5.4-6.3,10.2c0,5.6,2.1,10.2,6.2,10.2c4,0,6.1-4.7,6.1-10.3
			C282.2,32.9,280.4,27.6,276.1,27.6z"/>
		<path class="st0" d="M324.1,37.6c0,12-7.7,16.6-14.7,16.6c-8.5,0-14.6-6-14.6-16.2c0-10.6,6.4-16.6,14.9-16.6
			C318.6,21.5,324.1,28.1,324.1,37.6z M309.6,27.6c-4.6,0-6.3,5.4-6.3,10.2c0,5.6,2.1,10.2,6.2,10.2c4,0,6.1-4.7,6.1-10.3
			C315.7,32.9,313.9,27.6,309.6,27.6z"/>
		<path class="st0" d="M357.1,53.6h-8.4V35.3c0-3.8-1.2-6.9-4.8-6.9c-2.3,0-5.4,1.8-5.4,6.6v18.7h-8.4v-22c0-3.7-0.1-6.7-0.2-9.4
			h7.2l0.4,4.2h0.2c1.4-2.3,4.5-4.9,9.1-4.9c5.8,0,10.2,4,10.2,12.8L357.1,53.6L357.1,53.6z"/>
	</g>
</g>
</svg>
