<?xml version="1.0" encoding="utf-8"?>
<!-- Generator: Adobe Illustrator 24.2.1, SVG Export Plug-In . SVG Version: 6.00 Build 0)  -->
<svg version="1.1" id="レイヤー_1" xmlns="http://www.w3.org/2000/svg" xmlns:xlink="http://www.w3.org/1999/xlink" x="0px"
	 y="0px" width="250.6px" height="54px" viewBox="0 0 250.6 54" style="enable-background:new 0 0 250.6 54;" xml:space="preserve">
<style type="text/css">
	.st0{fill:#018A8C;}
	.st1{fill:#FFFFFF;}
</style>
<rect class="st0" width="54" height="54"/>
<path class="st1" d="M20.8,9.3c0.1,0.1,0.2,0.1,0.4,0.1c1.3,0.2,2.2,1.3,2.2,2.5c0.2,2,0.5,4,0.8,6.1c0.2,1.5-0.1,1.9-1.4,2.5
	c-0.7,0.3-1.4,0.7-2,1.1c-0.5,0.3-0.7,0.9-0.5,1.5c1.6,4.5,4.4,8.6,7.9,11.8c0.5,0.5,1.4,0.5,1.9-0.1c0,0,0,0,0,0
	c0.5-0.4,1-0.9,1.5-1.4c0.5-0.6,1.5-0.8,2.2-0.3c2,1.1,4.1,2.2,6.1,3.4c0.9,0.4,1.3,1.5,0.9,2.5c-0.7,2.5-2.8,4.3-5.3,4.7
	c-0.2,0-0.3,0.1-0.5,0.2h-2.4c-2.2-0.4-4.3-1.3-6.1-2.7C22,37.6,18.4,33.1,16,28c-1.7-3.2-2.6-6.8-2.6-10.4c0.1-1.5,0.4-2.9,0.8-4.3
	c0.7-2.2,2.5-3.7,4.8-4L20.8,9.3z"/>
<g>
	<path class="st0" d="M67.3,20.4c0-6,2.1-8.9,5.4-8.9c3.3,0,5.4,2.9,5.4,8.9c0,6-2.1,9-5.4,9C69.4,29.4,67.3,26.4,67.3,20.4z
		 M76,20.4c0-5-1.3-7.2-3.3-7.2c-2,0-3.3,2.1-3.3,7.2c0,5.1,1.3,7.3,3.3,7.3C74.7,27.7,76,25.5,76,20.4z"/>
	<path class="st0" d="M93.9,24.4h-2.3v4.8h-2.1v-4.8h-7.5v-1.4l7.2-11.1h2.4v10.8h2.3V24.4z M89.6,22.6v-5.3c0-0.8,0.1-2.2,0.1-3.1
		h-0.1c-0.4,0.8-0.9,1.7-1.4,2.5l-3.9,5.9H89.6z"/>
	<path class="st0" d="M98.1,27.9c5.4-4.7,7.9-8.2,7.9-11.2c0-2-1-3.4-3.2-3.4c-1.4,0-2.6,0.9-3.6,2L98,14.1c1.4-1.5,2.9-2.5,5.1-2.5
		c3.1,0,5,2,5,5.1c0,3.4-2.7,7-6.8,10.8c0.9-0.1,2-0.2,2.8-0.2h4.8v1.9H98.1V27.9z"/>
	<path class="st0" d="M113.6,21.7h6v1.7h-6V21.7z"/>
	<path class="st0" d="M135.4,24.4h-2.3v4.8H131v-4.8h-7.5v-1.4l7.2-11.1h2.4v10.8h2.3V24.4z M131,22.6v-5.3c0-0.8,0.1-2.2,0.1-3.1
		h-0.1c-0.4,0.8-0.9,1.7-1.4,2.5l-3.9,5.9H131z"/>
	<path class="st0" d="M149,14.6c-0.7-0.8-1.7-1.3-2.8-1.3c-2.4,0-4.4,1.8-4.5,7.2c1.1-1.3,2.6-2.1,3.9-2.1c2.9,0,4.8,1.8,4.8,5.4
		c0,3.3-2.3,5.6-5,5.6c-3.3,0-5.8-2.9-5.8-8.6c0-6.8,3-9.4,6.4-9.4c1.8,0,3.1,0.8,4,1.8L149,14.6z M148.5,23.8c0-2.3-1-3.8-3.1-3.8
		c-1.1,0-2.4,0.6-3.5,2.2c0.3,3.6,1.6,5.5,3.7,5.5C147.2,27.8,148.5,26.2,148.5,23.8z"/>
	<path class="st0" d="M154.6,27.1l1.1-1.4c1,1.1,2.3,2,4.3,2c2.1,0,3.5-1.2,3.5-3.2c0-2.1-1.4-3.5-5.4-3.5v-1.7
		c3.6,0,4.8-1.4,4.8-3.3c0-1.7-1.1-2.7-2.9-2.8c-1.4,0-2.6,0.8-3.6,1.7l-1.2-1.4c1.3-1.2,2.8-2.1,4.8-2.1c2.9,0,5,1.6,5,4.3
		c0,2.1-1.2,3.5-3.1,4.2v0.1c2.1,0.5,3.7,2,3.7,4.4c0,3.1-2.5,4.9-5.5,4.9C157.4,29.4,155.7,28.3,154.6,27.1z"/>
	<path class="st0" d="M170.4,21.7h6v1.7h-6V21.7z"/>
	<path class="st0" d="M190.5,14.6c-0.7-0.8-1.7-1.3-2.8-1.3c-2.4,0-4.4,1.8-4.5,7.2c1.1-1.3,2.6-2.1,3.9-2.1c2.9,0,4.8,1.8,4.8,5.4
		c0,3.3-2.3,5.6-5,5.6c-3.3,0-5.8-2.9-5.8-8.6c0-6.8,3-9.4,6.4-9.4c1.8,0,3.1,0.8,4,1.8L190.5,14.6z M189.9,23.8
		c0-2.3-1-3.8-3.1-3.8c-1.1,0-2.4,0.6-3.5,2.2c0.3,3.6,1.6,5.5,3.7,5.5C188.7,27.8,189.9,26.2,189.9,23.8z"/>
	<path class="st0" d="M196,27.1l1.1-1.4c1,1,2.2,1.9,4.2,1.9c2,0,3.7-1.6,3.7-4.1c0-2.5-1.4-3.9-3.6-3.9c-1.2,0-1.9,0.4-2.9,1
		l-1.2-0.7l0.5-8.1h8.4v1.8h-6.5l-0.4,5c0.8-0.4,1.5-0.7,2.6-0.7c2.9,0,5.2,1.7,5.2,5.5s-2.7,5.9-5.7,5.9
		C198.8,29.4,197.2,28.3,196,27.1z"/>
	<path class="st0" d="M211.5,27.1l1.1-1.4c1,1.1,2.3,2,4.3,2c2.1,0,3.5-1.2,3.5-3.2c0-2.1-1.4-3.5-5.4-3.5v-1.7
		c3.6,0,4.8-1.4,4.8-3.3c0-1.7-1.1-2.7-2.9-2.8c-1.4,0-2.6,0.8-3.6,1.7l-1.2-1.4c1.3-1.2,2.8-2.1,4.8-2.1c2.9,0,5,1.6,5,4.3
		c0,2.1-1.2,3.5-3.1,4.2v0.1c2.1,0.5,3.7,2,3.7,4.4c0,3.1-2.5,4.9-5.5,4.9C214.3,29.4,212.6,28.3,211.5,27.1z"/>
	<path class="st0" d="M228.8,26.3c0.7,0.8,1.8,1.3,2.9,1.3c2.2,0,4.2-1.8,4.3-7.2c-1,1.3-2.5,2.1-4,2.1c-2.9,0-4.8-1.9-4.8-5.4
		c0-3.3,2.3-5.6,5-5.6c3.3,0,5.8,2.7,5.8,8.2c0,7-3,9.7-6.3,9.7c-1.9,0-3.2-0.8-4.1-1.8L228.8,26.3z M236,18.7
		c-0.2-3.6-1.6-5.4-3.8-5.4c-1.7,0-2.9,1.6-2.9,3.9c0,2.3,1,3.8,3.1,3.8C233.6,21,234.8,20.3,236,18.7z"/>
</g>
<g>
	<path d="M84.7,41v2.1h-0.8v-1.4h-7.5v1.4h-0.8V41h1.6c-0.2-0.4-0.6-0.9-0.9-1.3l0.7-0.3c0.4,0.4,0.8,1,1,1.4L77.7,41h2.1
		c-0.2-0.4-0.5-1-0.8-1.5l0.7-0.2c0.3,0.5,0.7,1.1,0.9,1.5L80.1,41h2c0.4-0.5,0.9-1.2,1.1-1.6l0.8,0.3c-0.3,0.5-0.7,1-1.1,1.4H84.7z
		 M80.4,45c-0.1,0.3-0.2,0.6-0.4,0.9h3.9v3.3h-0.8v-0.4h-5.8v0.4h-0.8v-3.4h2.8c0.1-0.3,0.2-0.6,0.2-0.9h-2.2v-2.5h5.8V45H80.4z
		 M83.1,46.6h-5.8v1.5h5.8V46.6z M78,44.4h4.2v-1.3H78V44.4z"/>
	<path d="M92.2,46.7c1,0.8,2.5,1.4,3.9,1.7c-0.2,0.2-0.4,0.5-0.6,0.7c-1.5-0.4-3.1-1.2-4.1-2.3v2.4h-0.8v-2.3
		c-1.1,1-2.7,1.7-4.1,2.2c-0.1-0.2-0.4-0.5-0.5-0.7c1.4-0.3,2.9-1,3.9-1.7h-3.6V46h4.3v-0.8h-3.3v-0.6h3.3v-0.8h-3.9v-0.7h2.4
		c-0.1-0.3-0.3-0.8-0.5-1.1l0.4-0.1h-2.7v-0.7h1.7c-0.2-0.4-0.5-1.1-0.9-1.6l0.7-0.2c0.4,0.5,0.8,1.2,0.9,1.6l-0.6,0.2h1.4v-1.9h0.8
		v1.9h1.3v-1.9h0.8v1.9h1.3L93.4,41c0.3-0.5,0.6-1.2,0.8-1.7l0.8,0.2c-0.3,0.6-0.7,1.2-1,1.6h1.7v0.7h-2.2c-0.2,0.4-0.5,0.8-0.7,1.2
		h2.5v0.7h-4v0.8h3.4v0.6h-3.4V46h4.4v0.7H92.2z M89.5,41.9c0.2,0.3,0.5,0.8,0.5,1.1l-0.4,0.1h2.6l-0.1,0c0.2-0.3,0.4-0.8,0.6-1.1
		H89.5z"/>
	<path d="M100.6,47.1h-2.4V48h-0.7V40h3.1V47.1z M98.2,40.7v2.4h1.6v-2.4H98.2z M99.8,46.4v-2.5h-1.6v2.5H99.8z M105.8,43.4v1.2h1.3
		v0.7h-1.3v2.9c0,0.5-0.1,0.7-0.5,0.8c-0.3,0.1-0.9,0.1-1.8,0.1c0-0.2-0.1-0.5-0.3-0.8c0.7,0,1.3,0,1.5,0c0.2,0,0.2-0.1,0.2-0.2
		v-2.9h-4.2v-0.7h4.2v-1.2h-4.2v-0.7h2.8v-1.4h-2.3v-0.7h2.3v-1.3h0.8v1.3h2.4v0.7h-2.4v1.4h2.8v0.7H105.8z M102.2,45.7
		c0.6,0.5,1.2,1.3,1.4,1.9l-0.7,0.4c-0.3-0.5-0.8-1.4-1.4-1.9L102.2,45.7z"/>
	<path d="M109.4,43.4v5.8h-0.8v-9.6h4v3.8H109.4z M109.4,40.3v0.9h2.4v-0.9H109.4z M111.8,42.8v-1h-2.4v1H111.8z M111.8,48.3v0.5
		H111v-4.5h4.1v4H111.8z M111.8,44.9v1h2.6v-1H111.8z M114.4,47.6v-1.1h-2.6v1.1H114.4z M117.7,48.2c0,0.5-0.1,0.8-0.5,0.9
		c-0.4,0.1-0.9,0.1-1.8,0.1c0-0.2-0.2-0.6-0.3-0.8c0.7,0,1.3,0,1.5,0c0.2,0,0.3-0.1,0.3-0.3v-4.7h-3.2v-3.8h4.1V48.2z M114.4,40.3
		v0.9h2.5v-0.9H114.4z M116.8,42.8v-1h-2.5v1H116.8z"/>
	<path d="M120.5,41.6c0-0.5,0.4-0.8,0.8-0.8c0.4,0,0.8,0.3,0.8,0.8c0,0.5-0.4,0.8-0.8,0.8C120.9,42.4,120.5,42.1,120.5,41.6z
		 M120.5,47c0-0.5,0.4-0.8,0.8-0.8c0.4,0,0.8,0.3,0.8,0.8c0,0.5-0.4,0.8-0.8,0.8C120.9,47.8,120.5,47.5,120.5,47z"/>
	<path d="M125.3,47.1c0.3,0.4,0.8,0.6,1.4,0.6c1,0,1.9-0.9,2-3.4c-0.5,0.6-1.2,1-1.9,1c-1.3,0-2.2-0.9-2.2-2.5
		c0-1.6,1.1-2.6,2.3-2.6c1.6,0,2.7,1.3,2.7,3.8c0,3.3-1.4,4.5-2.9,4.5c-0.9,0-1.5-0.4-1.9-0.8L125.3,47.1z M128.7,43.5
		c-0.1-1.7-0.7-2.5-1.8-2.5c-0.8,0-1.4,0.7-1.4,1.8c0,1.1,0.5,1.8,1.4,1.8C127.5,44.6,128.1,44.3,128.7,43.5z"/>
	<path d="M131,43.4c0-0.5,0.3-0.8,0.7-0.8c0.4,0,0.7,0.3,0.7,0.8c0,0.4-0.3,0.8-0.7,0.8C131.3,44.1,131,43.8,131,43.4z M131,47.8
		c0-0.5,0.3-0.8,0.7-0.8c0.4,0,0.7,0.3,0.7,0.8s-0.3,0.8-0.7,0.8C131.3,48.6,131,48.3,131,47.8z"/>
	<path d="M133.8,44.4c0-2.8,1-4.2,2.5-4.2c1.5,0,2.5,1.4,2.5,4.2c0,2.8-1,4.2-2.5,4.2C134.8,48.6,133.8,47.2,133.8,44.4z
		 M137.9,44.4c0-2.4-0.6-3.3-1.5-3.3c-0.9,0-1.5,1-1.5,3.3c0,2.4,0.6,3.4,1.5,3.4C137.2,47.8,137.9,46.7,137.9,44.4z"/>
	<path d="M139.9,44.4c0-2.8,1-4.2,2.5-4.2c1.5,0,2.5,1.4,2.5,4.2c0,2.8-1,4.2-2.5,4.2C140.9,48.6,139.9,47.2,139.9,44.4z M144,44.4
		c0-2.4-0.6-3.3-1.5-3.3c-0.9,0-1.5,1-1.5,3.3c0,2.4,0.6,3.4,1.5,3.4C143.3,47.8,144,46.7,144,44.4z"/>
	<path d="M150.7,44.6c-0.6-0.6-1.1-0.9-1.9-0.9c-0.9,0-1.6,0.6-2.1,1.5l-0.8-0.4c0.7-1.3,1.7-1.9,2.9-1.9c1,0,1.7,0.4,2.5,1.2
		c0.6,0.6,1.1,0.9,1.9,0.9c0.9,0,1.6-0.6,2.1-1.5l0.8,0.4c-0.7,1.3-1.7,1.9-2.9,1.9C152.1,45.7,151.4,45.3,150.7,44.6z"/>
	<path d="M157.4,47.6h1.8v-6h-1.4v-0.6c0.7-0.1,1.2-0.3,1.7-0.6h0.8v7.2h1.6v0.8h-4.4V47.6z"/>
	<path d="M163.1,46.4c0-1.1,0.7-1.8,1.5-2.2v-0.1c-0.6-0.4-1.1-1-1.1-1.9c0-1.2,0.9-2,2.2-2c1.4,0,2.2,0.9,2.2,2.1
		c0,0.8-0.6,1.6-1.1,1.9v0.1c0.7,0.4,1.4,1,1.4,2.1c0,1.2-1,2.1-2.5,2.1C164.2,48.6,163.1,47.7,163.1,46.4z M167.2,46.5
		c0-1.1-1-1.5-2.1-1.9c-0.6,0.4-1.1,1.1-1.1,1.8c0,0.9,0.7,1.5,1.7,1.5C166.6,47.8,167.2,47.3,167.2,46.5z M167,42.4
		c0-0.8-0.5-1.4-1.4-1.4c-0.7,0-1.3,0.5-1.3,1.3c0,1,0.9,1.4,1.8,1.8C166.8,43.6,167,43,167,42.4z"/>
	<path d="M169.5,43.4c0-0.5,0.3-0.8,0.7-0.8c0.4,0,0.7,0.3,0.7,0.8c0,0.4-0.3,0.8-0.7,0.8C169.8,44.1,169.5,43.8,169.5,43.4z
		 M169.5,47.8c0-0.5,0.3-0.8,0.7-0.8c0.4,0,0.7,0.3,0.7,0.8s-0.3,0.8-0.7,0.8C169.8,48.6,169.5,48.3,169.5,47.8z"/>
	<path d="M172.3,44.4c0-2.8,1-4.2,2.5-4.2c1.5,0,2.5,1.4,2.5,4.2c0,2.8-1,4.2-2.5,4.2C173.3,48.6,172.3,47.2,172.3,44.4z
		 M176.3,44.4c0-2.4-0.6-3.3-1.5-3.3c-0.9,0-1.5,1-1.5,3.3c0,2.4,0.6,3.4,1.5,3.4C175.7,47.8,176.3,46.7,176.3,44.4z"/>
	<path d="M178.4,44.4c0-2.8,1-4.2,2.5-4.2c1.5,0,2.5,1.4,2.5,4.2c0,2.8-1,4.2-2.5,4.2C179.4,48.6,178.4,47.2,178.4,44.4z
		 M182.4,44.4c0-2.4-0.6-3.3-1.5-3.3c-0.9,0-1.5,1-1.5,3.3c0,2.4,0.6,3.4,1.5,3.4C181.8,47.8,182.4,46.7,182.4,44.4z"/>
	<path d="M186.5,44.3c0-2.1,0.9-3.9,2.2-5.2l0.7,0.3c-1.3,1.3-2,2.9-2,4.9s0.8,3.6,2,4.9l-0.7,0.3C187.4,48.1,186.5,46.4,186.5,44.3
		z"/>
	<path d="M199.9,46.8h-4v2.5h-0.8v-2.5H190V46h1.8V43h3.3v-1.7h-2.7c-0.5,0.8-1.1,1.6-1.7,2.2c-0.2-0.1-0.5-0.4-0.7-0.5
		c1-0.9,2-2.3,2.5-3.8l0.8,0.2c-0.2,0.4-0.3,0.8-0.5,1.2h6.6v0.8h-3.5V43h3.2v0.8h-3.2V46h4V46.8z M195.1,46v-2.2h-2.5V46H195.1z"/>
	<path d="M210.3,41.2v5.1h-0.8v-0.6h-3.2v3.6h-0.8v-3.6h-3.1v0.7h-0.8v-5.2h3.9v-2h0.8v2H210.3z M205.5,44.9V42h-3.1v2.9H205.5z
		 M209.5,44.9V42h-3.2v2.9H209.5z"/>
	<path d="M213.6,41.7c-0.3,0.4-0.7,0.7-1,1c-0.2-0.2-0.5-0.4-0.7-0.5c0.9-0.7,1.8-1.8,2.3-2.9l0.8,0.2c-0.2,0.4-0.4,0.7-0.6,1h6.9
		v0.7h-1.1v1.9h1.5v0.7h-1.5v1.9h1.4v0.7h-9.4v-0.7h1.4v-1.9h-1.5v-0.7h1.5V41.7z M212,49c0.6-0.5,1.1-1.3,1.4-2.1l0.8,0.2
		c-0.3,0.8-0.8,1.7-1.4,2.2L212,49z M214.3,43.1h1.2v-1.9h-1.2V43.1z M214.3,45.7h1.2v-1.9h-1.2V45.7z M216,47.1
		c0.1,0.6,0.3,1.5,0.3,2l-0.8,0.1c0-0.5-0.1-1.4-0.2-2L216,47.1z M217.5,43.1v-1.9h-1.3v1.9H217.5z M216.3,43.8v1.9h1.3v-1.9H216.3z
		 M218.3,47c0.3,0.6,0.6,1.5,0.7,2l-0.8,0.2c-0.1-0.5-0.4-1.4-0.7-2L218.3,47z M219.5,41.2h-1.3v1.9h1.3V41.2z M219.5,43.8h-1.3v1.9
		h1.3V43.8z M220.5,46.8c0.5,0.7,1.2,1.6,1.5,2.2l-0.8,0.3c-0.3-0.6-0.9-1.5-1.4-2.2L220.5,46.8z"/>
	<path d="M226.5,39.6c-0.3,0.8-0.7,1.6-1.2,2.4v7.3h-0.8v-6.2c-0.4,0.5-0.8,1-1.3,1.5c-0.1-0.2-0.3-0.6-0.5-0.8c1.2-1,2.3-2.7,3-4.4
		L226.5,39.6z M230.2,42.8c0.7,1.8,1.8,3.5,3,4.4c-0.2,0.2-0.5,0.4-0.6,0.7c-1.1-1-2.1-2.7-2.8-4.4v5.8h-0.8v-5.6
		c-0.7,1.7-1.8,3.3-2.9,4.2c-0.2-0.2-0.4-0.5-0.6-0.6c1.2-0.9,2.4-2.7,3-4.5h-2.7V42h3.1v-2.6h0.8V42h3.2v0.8H230.2z"/>
	<path d="M236.4,44.3c0,2.1-0.9,3.9-2.2,5.2l-0.7-0.3c1.3-1.3,2-2.9,2-4.9s-0.8-3.6-2-4.9l0.7-0.3C235.5,40.4,236.4,42.1,236.4,44.3
		z"/>
</g>
</svg>
