<?xml version="1.0" encoding="utf-8"?>
<!-- Generator: Adobe Illustrator 25.1.0, SVG Export Plug-In . SVG Version: 6.00 Build 0)  -->
<svg version="1.1" id="レイヤー_1" xmlns="http://www.w3.org/2000/svg" xmlns:xlink="http://www.w3.org/1999/xlink" x="0px"
	 y="0px" width="33.1px" height="33.1px" viewBox="0 0 33.1 33.1" style="enable-background:new 0 0 33.1 33.1;"
	 xml:space="preserve">
<style type="text/css">
	.st0{fill:#696969;}
</style>
<g id="レイヤー_2_1_">
	<g id="レイヤー_1-2">
		<path class="st0" d="M16.5,33.1C7.4,33.1,0,25.7,0,16.5S7.4,0,16.5,0s16.5,7.4,16.5,16.5C33.1,25.7,25.7,33.1,16.5,33.1z
			 M16.5,0.7C7.8,0.7,0.7,7.8,0.7,16.5s7.1,15.8,15.8,15.8s15.8-7.1,15.8-15.8l0,0C32.4,7.8,25.3,0.7,16.5,0.7z"/>
		<g id="k2AdYc">
			<path class="st0" d="M13.4,8c0.1,0,0.1,0,0.2,0.1c0.6,0.1,1.1,0.6,1.1,1.3c0.1,1,0.2,2,0.4,3c0.1,0.7,0,0.9-0.7,1.2
				c-0.3,0.2-0.7,0.3-1,0.5c-0.3,0.1-0.4,0.5-0.2,0.7c0,0,0,0,0,0c0.8,2.2,2.1,4.3,3.9,5.9c0.3,0.2,0.7,0.2,0.9,0
				c0.3-0.2,0.5-0.5,0.8-0.7c0.3-0.3,0.7-0.4,1.1-0.1c1,0.5,2,1.1,3,1.7c0.5,0.2,0.7,0.8,0.5,1.2c-0.3,1.2-1.3,2.1-2.6,2.3
				c-0.1,0-0.2,0-0.2,0.1h-1.2c-1.1-0.2-2.1-0.7-3-1.4c-2.2-1.7-4-3.9-5.2-6.4c-0.8-1.6-1.3-3.4-1.3-5.2c0-0.7,0.2-1.4,0.4-2.1
				c0.3-1.1,1.3-1.9,2.4-2H13.4z"/>
		</g>
	</g>
</g>
</svg>
