<svg xmlns="http://www.w3.org/2000/svg" viewBox="0 0 275 58"><defs><style>.cls-1{fill:none;stroke:#195354;stroke-miterlimit:10;}.cls-2{fill:#195354;}</style></defs><g id="レイヤー_2" data-name="レイヤー 2"><g id="レイヤー_1-2" data-name="レイヤー 1"><rect class="cls-1" x="11.61" y="8.07" width="40.84" height="40.84" rx="20.42"/><g id="k2AdYc"><path class="cls-2" d="M28,17.74l.23.08a1.65,1.65,0,0,1,1.4,1.58c.15,1.26.31,2.52.47,3.79.11.92,0,1.17-.88,1.54a11.6,11.6,0,0,0-1.25.68.69.69,0,0,0-.28.91,18.27,18.27,0,0,0,5,7.37.84.84,0,0,0,1.17,0c.34-.27.64-.57,1-.86a1.06,1.06,0,0,1,1.35-.19c1.28.7,2.56,1.4,3.84,2.12a1.18,1.18,0,0,1,.57,1.55,4,4,0,0,1-3.34,2.9l-.3.09H35.37a9.3,9.3,0,0,1-3.79-1.7,21.66,21.66,0,0,1-6.53-8.14,13.69,13.69,0,0,1-1.61-6.5A9.86,9.86,0,0,1,24,20.22a3.61,3.61,0,0,1,3-2.48Z"/></g><path class="cls-2" d="M63.13,28.59c0-6.29,2.45-9.36,6.16-9.36s6.14,3.1,6.14,9.36S73,38.1,69.29,38.1,63.13,34.86,63.13,28.59Zm8.89,0C72,23.51,70.84,22,69.29,22s-2.75,1.48-2.75,6.56,1.18,6.69,2.75,6.69S72,33.7,72,28.59Z"/><path class="cls-2" d="M92.26,33H90.1v4.72H86.73V33H79V30.58l6.78-11H90.1V30.29h2.16Zm-5.53-2.75V26.58c0-1.06.1-2.7.15-3.76h-.1c-.44,1-.93,2-1.45,2.95l-2.82,4.52Z"/><path class="cls-2" d="M96,35.67c4.94-4.42,7.87-7.84,7.87-10.64,0-1.84-1-3-2.73-3A4.7,4.7,0,0,0,97.76,24l-2-2a7.38,7.38,0,0,1,5.78-2.76,5.33,5.33,0,0,1,5.72,5.6c0,3.3-2.73,6.83-6,10.08.9-.1,2.11-.2,2.94-.2h4v3H96Z"/><path class="cls-2" d="M112.54,29.43h6.71V32h-6.71Z"/><path class="cls-2" d="M136.17,33H134v4.72h-3.36V33h-7.74V30.58l6.78-11H134V30.29h2.16Zm-5.52-2.75V26.58c0-1.06.09-2.7.14-3.76h-.09c-.45,1-.94,2-1.45,2.95l-2.83,4.52Z"/><path class="cls-2" d="M150.1,23.46a4,4,0,0,0-2.8-1.33c-2.09,0-3.81,1.58-4,6.12a5.33,5.33,0,0,1,3.74-1.94c3,0,5.21,1.82,5.21,5.72a5.69,5.69,0,0,1-5.7,6.07c-3.47,0-6.54-2.77-6.54-9.19,0-6.78,3.37-9.68,7-9.68A6.75,6.75,0,0,1,152,21.3ZM149,32c0-2.16-1-3.17-2.58-3.17a3.6,3.6,0,0,0-3,1.92c.34,3.32,1.57,4.59,3.09,4.59C147.86,35.37,149,34.24,149,32Z"/><path class="cls-2" d="M155.89,35.57l1.7-2.28a5.8,5.8,0,0,0,4,1.86c1.84,0,3.1-.91,3.1-2.53,0-1.79-1.06-2.9-5-2.9v-2.6c3.35,0,4.43-1.16,4.43-2.78a2.17,2.17,0,0,0-2.44-2.28,5.16,5.16,0,0,0-3.43,1.62l-1.85-2.21a8.07,8.07,0,0,1,5.46-2.24c3.51,0,5.89,1.72,5.89,4.84a4.29,4.29,0,0,1-3,4.15v.13a4.54,4.54,0,0,1,3.63,4.47c0,3.34-2.92,5.28-6.38,5.28A7.74,7.74,0,0,1,155.89,35.57Z"/><path class="cls-2" d="M172.89,29.43h6.71V32h-6.71Z"/><path class="cls-2" d="M194,23.46a3.91,3.91,0,0,0-2.8-1.33c-2.09,0-3.81,1.58-4,6.12A5.29,5.29,0,0,1,191,26.31c3,0,5.21,1.82,5.21,5.72a5.69,5.69,0,0,1-5.7,6.07c-3.46,0-6.53-2.77-6.53-9.19,0-6.78,3.36-9.68,7-9.68a6.75,6.75,0,0,1,4.94,2.07ZM192.88,32c0-2.16-1-3.17-2.58-3.17a3.6,3.6,0,0,0-3,1.92c.35,3.32,1.57,4.59,3.1,4.59C191.78,35.37,192.88,34.24,192.88,32Z"/><path class="cls-2" d="M199.81,35.62l1.67-2.31a5.63,5.63,0,0,0,4,1.84,3.05,3.05,0,0,0,3.22-3.34c0-2.11-1.23-3.29-3.07-3.29a4.36,4.36,0,0,0-2.73,1l-1.64-1.08.49-8.82h9.73v3h-6.61l-.35,3.86a4.68,4.68,0,0,1,2.19-.52c3,0,5.6,1.82,5.6,5.77A6.14,6.14,0,0,1,206,38.1,8.27,8.27,0,0,1,199.81,35.62Z"/><path class="cls-2" d="M216.24,35.57l1.69-2.28A5.8,5.8,0,0,0,222,35.15c1.84,0,3.09-.91,3.09-2.53,0-1.79-1.05-2.9-5-2.9v-2.6c3.34,0,4.42-1.16,4.42-2.78a2.17,2.17,0,0,0-2.43-2.28,5.18,5.18,0,0,0-3.44,1.62l-1.84-2.21a8.05,8.05,0,0,1,5.45-2.24c3.52,0,5.9,1.72,5.9,4.84a4.3,4.3,0,0,1-3,4.15v.13a4.54,4.54,0,0,1,3.64,4.47c0,3.34-2.93,5.28-6.39,5.28A7.73,7.73,0,0,1,216.24,35.57Z"/><path class="cls-2" d="M235.2,33.88a4.16,4.16,0,0,0,2.87,1.27c2,0,3.74-1.54,3.89-6.11a5.11,5.11,0,0,1-3.74,2c-3,0-5.21-1.87-5.21-5.73a5.71,5.71,0,0,1,5.73-6.07c3.44,0,6.53,2.71,6.53,9,0,6.88-3.36,9.85-7,9.85a6.84,6.84,0,0,1-5-2.06Zm6.71-7.38c-.32-3.31-1.58-4.54-3.12-4.54-1.35,0-2.46,1.11-2.46,3.34s1,3.15,2.58,3.15A3.63,3.63,0,0,0,241.91,26.5Z"/><rect class="cls-1" x="0.5" y="0.5" width="274" height="57" rx="28.5"/></g></g></svg>